{
	"asset":{
		"generator":"Khronos glTF Blender I/O v4.5.48",
		"version":"2.0"
	},
	"extensionsUsed":[
		"KHR_texture_transform"
	],
	"extensionsRequired":[
		"KHR_texture_transform"
	],
	"scene":0,
	"scenes":[
		{
			"name":"Scene",
			"nodes":[
				2,
				3,
				27,
				28
			]
		}
	],
	"nodes":[
		{
			"mesh":0,
			"name":"eye-cable-left"
		},
		{
			"mesh":1,
			"name":"eye-cable-right"
		},
		{
			"children":[
				0,
				1
			],
			"mesh":2,
			"name":"back-eyes"
		},
		{
			"mesh":3,
			"name":"head-base"
		},
		{
			"mesh":4,
			"name":"upper-hand"
		},
		{
			"children":[
				4
			],
			"mesh":5,
			"name":"lower-hand"
		},
		{
			"mesh":6,
			"name":"upper-thumb"
		},
		{
			"children":[
				6
			],
			"mesh":7,
			"name":"lower-thumb"
		},
		{
			"children":[
				7
			],
			"mesh":8,
			"name":"thumb-base"
		},
		{
			"children":[
				8
			],
			"mesh":9,
			"name":"thumb-connector"
		},
		{
			"children":[
				5,
				9
			],
			"mesh":10,
			"name":"hand-shaft"
		},
		{
			"children":[
				10
			],
			"mesh":11,
			"name":"hand-connector"
		},
		{
			"children":[
				11
			],
			"mesh":12,
			"name":"lower-arm"
		},
		{
			"children":[
				12
			],
			"mesh":13,
			"name":"middle-arm"
		},
		{
			"children":[
				13
			],
			"mesh":14,
			"name":"upper-arm"
		},
		{
			"children":[
				14
			],
			"mesh":15,
			"name":"arm-connector"
		},
		{
			"mesh":16,
			"name":"body-top"
		},
		{
			"mesh":17,
			"name":"gears.002"
		},
		{
			"mesh":18,
			"name":"lower-gears"
		},
		{
			"children":[
				17,
				18
			],
			"mesh":19,
			"name":"bottom_shaft"
		},
		{
			"mesh":20,
			"name":"treadmill"
		},
		{
			"mesh":21,
			"name":"upper-gears"
		},
		{
			"children":[
				21
			],
			"mesh":22,
			"name":"upper_shaft"
		},
		{
			"children":[
				19,
				20,
				22
			],
			"mesh":23,
			"name":"connecting_shaft"
		},
		{
			"children":[
				23
			],
			"mesh":24,
			"name":"treead-connector"
		},
		{
			"children":[
				15,
				16,
				24
			],
			"mesh":25,
			"name":"body-back"
		},
		{
			"mesh":26,
			"name":"body-ring"
		},
		{
			"children":[
				25,
				26
			],
			"mesh":27,
			"name":"walle"
		},
		{
			"mesh":28,
			"name":"back-eyes.001"
		}
	],
	"materials":[
		{
			"doubleSided":true,
			"name":"walle-rubber-cable",
			"pbrMetallicRoughness":{
				"baseColorTexture":{
					"index":0
				},
				"metallicFactor":0,
				"roughnessFactor":0.40909090638160706
			}
		},
		{
			"doubleSided":true,
			"name":"head",
			"normalTexture":{
				"index":1
			},
			"pbrMetallicRoughness":{
				"baseColorTexture":{
					"index":2
				},
				"metallicRoughnessTexture":{
					"index":3
				}
			}
		},
		{
			"doubleSided":true,
			"name":"walle-head-shaft",
			"pbrMetallicRoughness":{
				"baseColorTexture":{
					"index":4
				},
				"metallicFactor":0.4318181872367859,
				"roughnessFactor":0.5681818127632141
			}
		},
		{
			"doubleSided":true,
			"name":"metal",
			"normalTexture":{
				"index":5
			},
			"pbrMetallicRoughness":{
				"baseColorTexture":{
					"index":6
				},
				"metallicFactor":0,
				"roughnessFactor":0.8636363744735718
			}
		},
		{
			"doubleSided":true,
			"name":"walle-arm-shaft",
			"pbrMetallicRoughness":{
				"baseColorTexture":{
					"index":7
				},
				"metallicFactor":0,
				"roughnessFactor":0.4318181872367859
			}
		},
		{
			"doubleSided":true,
			"name":"arm-paint",
			"normalTexture":{
				"index":8
			},
			"pbrMetallicRoughness":{
				"baseColorTexture":{
					"index":9
				},
				"metallicRoughnessTexture":{
					"index":10
				}
			}
		},
		{
			"doubleSided":true,
			"name":"walle-arm-grid",
			"normalTexture":{
				"index":11
			},
			"pbrMetallicRoughness":{
				"baseColorTexture":{
					"index":12
				},
				"metallicFactor":0,
				"roughnessFactor":0.4318181872367859
			}
		},
		{
			"doubleSided":true,
			"name":"body-top",
			"normalTexture":{
				"index":13
			},
			"pbrMetallicRoughness":{
				"baseColorTexture":{
					"index":14
				},
				"metallicRoughnessTexture":{
					"index":15
				}
			}
		},
		{
			"doubleSided":true,
			"name":"walle-shafts",
			"pbrMetallicRoughness":{
				"baseColorTexture":{
					"index":16
				},
				"metallicRoughnessTexture":{
					"index":17
				}
			}
		},
		{
			"doubleSided":true,
			"name":"walle-treadmill",
			"pbrMetallicRoughness":{
				"baseColorTexture":{
					"extensions":{
						"KHR_texture_transform":{
							"offset":[
								0,
								0.17000001668930054
							],
							"scale":[
								0.8299999833106995,
								0.8299999833106995
							]
						}
					},
					"index":18
				},
				"metallicFactor":0.6954545378684998,
				"roughnessFactor":0.48636364936828613
			}
		},
		{
			"doubleSided":true,
			"name":"body-back",
			"normalTexture":{
				"index":19
			},
			"pbrMetallicRoughness":{
				"baseColorTexture":{
					"index":20
				},
				"metallicRoughnessTexture":{
					"index":21
				}
			}
		},
		{
			"doubleSided":true,
			"name":"walle-plain-metal",
			"pbrMetallicRoughness":{
				"baseColorTexture":{
					"index":22
				},
				"roughnessFactor":0.27272725105285645
			}
		},
		{
			"doubleSided":true,
			"name":"walle-piston-paint",
			"pbrMetallicRoughness":{
				"baseColorTexture":{
					"index":23
				},
				"metallicFactor":0,
				"roughnessFactor":0.23636363446712494
			}
		},
		{
			"doubleSided":true,
			"name":"walle-worn-metal",
			"pbrMetallicRoughness":{
				"baseColorTexture":{
					"index":24
				},
				"metallicFactor":0,
				"roughnessFactor":0.36818182468414307
			}
		},
		{
			"doubleSided":true,
			"name":"ring",
			"normalTexture":{
				"index":25
			},
			"pbrMetallicRoughness":{
				"baseColorTexture":{
					"index":26
				},
				"metallicRoughnessTexture":{
					"index":27
				}
			}
		},
		{
			"doubleSided":true,
			"name":"body-bottom",
			"normalTexture":{
				"index":28
			},
			"pbrMetallicRoughness":{
				"baseColorTexture":{
					"index":29
				},
				"metallicRoughnessTexture":{
					"index":30
				}
			}
		},
		{
			"doubleSided":true,
			"name":"lens-border",
			"pbrMetallicRoughness":{
				"baseColorTexture":{
					"index":31
				},
				"metallicRoughnessTexture":{
					"index":32
				}
			}
		},
		{
			"doubleSided":true,
			"name":"lens",
			"pbrMetallicRoughness":{
				"baseColorTexture":{
					"index":33
				},
				"metallicRoughnessTexture":{
					"index":34
				}
			}
		}
	],
	"meshes":[
		{
			"name":"B\u00e9zierCurve",
			"primitives":[
				{
					"attributes":{
						"POSITION":0,
						"NORMAL":1,
						"TEXCOORD_0":2
					},
					"indices":3,
					"material":0
				}
			]
		},
		{
			"name":"B\u00e9zierCurve.002",
			"primitives":[
				{
					"attributes":{
						"POSITION":4,
						"NORMAL":5,
						"TEXCOORD_0":6
					},
					"indices":7,
					"material":0
				}
			]
		},
		{
			"name":"Mesh.002",
			"primitives":[
				{
					"attributes":{
						"POSITION":8,
						"NORMAL":9,
						"TEXCOORD_0":10
					},
					"indices":11,
					"material":1
				}
			]
		},
		{
			"name":"Cylinder.019",
			"primitives":[
				{
					"attributes":{
						"POSITION":12,
						"NORMAL":13,
						"TEXCOORD_0":14
					},
					"indices":15,
					"material":2
				}
			]
		},
		{
			"name":"Cube.008",
			"primitives":[
				{
					"attributes":{
						"POSITION":16,
						"NORMAL":17,
						"TEXCOORD_0":18
					},
					"indices":19,
					"material":3
				}
			]
		},
		{
			"name":"Cube.002",
			"primitives":[
				{
					"attributes":{
						"POSITION":20,
						"NORMAL":21,
						"TEXCOORD_0":22
					},
					"indices":23,
					"material":3
				}
			]
		},
		{
			"name":"Cube.005",
			"primitives":[
				{
					"attributes":{
						"POSITION":24,
						"NORMAL":25,
						"TEXCOORD_0":26
					},
					"indices":27,
					"material":3
				}
			]
		},
		{
			"name":"Cube.006",
			"primitives":[
				{
					"attributes":{
						"POSITION":28,
						"NORMAL":29,
						"TEXCOORD_0":30
					},
					"indices":31,
					"material":3
				}
			]
		},
		{
			"name":"Cylinder.013",
			"primitives":[
				{
					"attributes":{
						"POSITION":32,
						"NORMAL":33,
						"TEXCOORD_0":34
					},
					"indices":35,
					"material":4
				}
			]
		},
		{
			"name":"Cylinder.011",
			"primitives":[
				{
					"attributes":{
						"POSITION":36,
						"NORMAL":37,
						"TEXCOORD_0":38
					},
					"indices":39,
					"material":3
				}
			]
		},
		{
			"name":"Cylinder",
			"primitives":[
				{
					"attributes":{
						"POSITION":40,
						"NORMAL":41,
						"TEXCOORD_0":42
					},
					"indices":43,
					"material":4
				}
			]
		},
		{
			"name":"Cylinder.001",
			"primitives":[
				{
					"attributes":{
						"POSITION":44,
						"NORMAL":45,
						"TEXCOORD_0":46
					},
					"indices":47,
					"material":3
				}
			]
		},
		{
			"name":"Cylinder.006",
			"primitives":[
				{
					"attributes":{
						"POSITION":48,
						"NORMAL":49,
						"TEXCOORD_0":50
					},
					"indices":51,
					"material":4
				}
			]
		},
		{
			"name":"Cylinder.007",
			"primitives":[
				{
					"attributes":{
						"POSITION":52,
						"NORMAL":53,
						"TEXCOORD_0":54
					},
					"indices":55,
					"material":4
				}
			]
		},
		{
			"name":"Cylinder.009",
			"primitives":[
				{
					"attributes":{
						"POSITION":56,
						"NORMAL":57,
						"TEXCOORD_0":58
					},
					"indices":59,
					"material":5
				},
				{
					"attributes":{
						"POSITION":60,
						"NORMAL":61,
						"TEXCOORD_0":62
					},
					"indices":63,
					"material":6
				}
			]
		},
		{
			"name":"Cylinder.014",
			"primitives":[
				{
					"attributes":{
						"POSITION":64,
						"NORMAL":65,
						"TEXCOORD_0":66
					},
					"indices":67,
					"material":5
				}
			]
		},
		{
			"name":"Cube",
			"primitives":[
				{
					"attributes":{
						"POSITION":68,
						"NORMAL":69,
						"TEXCOORD_0":70
					},
					"indices":71,
					"material":7
				}
			]
		},
		{
			"name":"Cylinder.008",
			"primitives":[
				{
					"attributes":{
						"POSITION":72,
						"NORMAL":73,
						"TEXCOORD_0":74
					},
					"indices":75,
					"material":8
				}
			]
		},
		{
			"name":"Cylinder.010",
			"primitives":[
				{
					"attributes":{
						"POSITION":76,
						"NORMAL":77,
						"TEXCOORD_0":78
					},
					"indices":79,
					"material":8
				}
			]
		},
		{
			"name":"Cylinder.023",
			"primitives":[
				{
					"attributes":{
						"POSITION":80,
						"NORMAL":81,
						"TEXCOORD_0":82
					},
					"indices":83,
					"material":8
				}
			]
		},
		{
			"name":"Cube.014",
			"primitives":[
				{
					"attributes":{
						"POSITION":84,
						"NORMAL":85,
						"TEXCOORD_0":86
					},
					"indices":87,
					"material":9
				}
			]
		},
		{
			"name":"Cylinder.003",
			"primitives":[
				{
					"attributes":{
						"POSITION":88,
						"NORMAL":89,
						"TEXCOORD_0":90
					},
					"indices":91,
					"material":8
				}
			]
		},
		{
			"name":"Cylinder.024",
			"primitives":[
				{
					"attributes":{
						"POSITION":92,
						"NORMAL":93,
						"TEXCOORD_0":94
					},
					"indices":95,
					"material":8
				}
			]
		},
		{
			"name":"Cylinder.027",
			"primitives":[
				{
					"attributes":{
						"POSITION":96,
						"NORMAL":97,
						"TEXCOORD_0":98
					},
					"indices":99,
					"material":8
				}
			]
		},
		{
			"name":"Cylinder.026",
			"primitives":[
				{
					"attributes":{
						"POSITION":100,
						"NORMAL":101,
						"TEXCOORD_0":102
					},
					"indices":103,
					"material":8
				}
			]
		},
		{
			"name":"Cube.016",
			"primitives":[
				{
					"attributes":{
						"POSITION":104,
						"NORMAL":105,
						"TEXCOORD_0":106
					},
					"indices":107,
					"material":10
				},
				{
					"attributes":{
						"POSITION":108,
						"NORMAL":109,
						"TEXCOORD_0":110
					},
					"indices":111,
					"material":11
				},
				{
					"attributes":{
						"POSITION":112,
						"NORMAL":113,
						"TEXCOORD_0":114
					},
					"indices":115,
					"material":12
				},
				{
					"attributes":{
						"POSITION":116,
						"NORMAL":117,
						"TEXCOORD_0":118
					},
					"indices":119,
					"material":13
				}
			]
		},
		{
			"name":"Cube.003",
			"primitives":[
				{
					"attributes":{
						"POSITION":120,
						"NORMAL":121,
						"TEXCOORD_0":122
					},
					"indices":123,
					"material":14
				}
			]
		},
		{
			"name":"Cube.017",
			"primitives":[
				{
					"attributes":{
						"POSITION":124,
						"NORMAL":125,
						"TEXCOORD_0":126
					},
					"indices":127,
					"material":15
				}
			]
		},
		{
			"name":"Mesh.001",
			"primitives":[
				{
					"attributes":{
						"POSITION":128,
						"NORMAL":129,
						"TEXCOORD_0":130
					},
					"indices":131,
					"material":16
				},
				{
					"attributes":{
						"POSITION":132,
						"NORMAL":133,
						"TEXCOORD_0":134
					},
					"indices":135,
					"material":17
				}
			]
		}
	],
	"textures":[
		{
			"sampler":0,
			"source":0
		},
		{
			"sampler":0,
			"source":1
		},
		{
			"sampler":0,
			"source":2
		},
		{
			"sampler":0,
			"source":3
		},
		{
			"sampler":0,
			"source":4
		},
		{
			"sampler":0,
			"source":5
		},
		{
			"sampler":0,
			"source":6
		},
		{
			"sampler":0,
			"source":7
		},
		{
			"sampler":0,
			"source":8
		},
		{
			"sampler":0,
			"source":9
		},
		{
			"sampler":0,
			"source":10
		},
		{
			"sampler":0,
			"source":11
		},
		{
			"sampler":0,
			"source":12
		},
		{
			"sampler":0,
			"source":13
		},
		{
			"sampler":0,
			"source":14
		},
		{
			"sampler":0,
			"source":15
		},
		{
			"sampler":0,
			"source":16
		},
		{
			"sampler":0,
			"source":17
		},
		{
			"sampler":0,
			"source":18
		},
		{
			"sampler":0,
			"source":19
		},
		{
			"sampler":0,
			"source":20
		},
		{
			"sampler":0,
			"source":21
		},
		{
			"sampler":0,
			"source":22
		},
		{
			"sampler":0,
			"source":23
		},
		{
			"sampler":0,
			"source":24
		},
		{
			"sampler":0,
			"source":25
		},
		{
			"sampler":0,
			"source":26
		},
		{
			"sampler":0,
			"source":27
		},
		{
			"sampler":0,
			"source":28
		},
		{
			"sampler":0,
			"source":29
		},
		{
			"sampler":0,
			"source":30
		},
		{
			"sampler":0,
			"source":31
		},
		{
			"sampler":0,
			"source":32
		},
		{
			"sampler":0,
			"source":33
		},
		{
			"sampler":0,
			"source":34
		}
	],
	"images":[
		{
			"mimeType":"image/png",
			"name":"cables",
			"uri":"cables.png"
		},
		{
			"mimeType":"image/png",
			"name":"head_normal",
			"uri":"head_normal.png"
		},
		{
			"mimeType":"image/png",
			"name":"head",
			"uri":"head.png"
		},
		{
			"mimeType":"image/png",
			"name":"head_ORM",
			"uri":"head_ORM.png"
		},
		{
			"mimeType":"image/png",
			"name":"head-shaft",
			"uri":"head-shaft.png"
		},
		{
			"mimeType":"image/png",
			"name":"metal-generic_normal",
			"uri":"metal-generic_normal.png"
		},
		{
			"mimeType":"image/png",
			"name":"metal-generic",
			"uri":"metal-generic.png"
		},
		{
			"mimeType":"image/png",
			"name":"arm-shaft",
			"uri":"arm-shaft.png"
		},
		{
			"mimeType":"image/png",
			"name":"paint-generic_normal",
			"uri":"paint-generic_normal.png"
		},
		{
			"mimeType":"image/png",
			"name":"paint-generic",
			"uri":"paint-generic.png"
		},
		{
			"mimeType":"image/png",
			"name":"paint-generic_ORM",
			"uri":"paint-generic_ORM.png"
		},
		{
			"mimeType":"image/png",
			"name":"arm-grid_normal",
			"uri":"arm-grid_normal.png"
		},
		{
			"mimeType":"image/png",
			"name":"arm-grid",
			"uri":"arm-grid.png"
		},
		{
			"mimeType":"image/png",
			"name":"body-top_normal",
			"uri":"body-top_normal.png"
		},
		{
			"mimeType":"image/png",
			"name":"body-top",
			"uri":"body-top.png"
		},
		{
			"mimeType":"image/png",
			"name":"body-top_ORM",
			"uri":"body-top_ORM.png"
		},
		{
			"mimeType":"image/png",
			"name":"shafts",
			"uri":"shafts.png"
		},
		{
			"mimeType":"image/png",
			"name":"shafts_ORM",
			"uri":"shafts_ORM.png"
		},
		{
			"mimeType":"image/png",
			"name":"treadmill",
			"uri":"treadmill.png"
		},
		{
			"mimeType":"image/png",
			"name":"body-back_normal",
			"uri":"body-back_normal.png"
		},
		{
			"mimeType":"image/png",
			"name":"body-back",
			"uri":"body-back.png"
		},
		{
			"mimeType":"image/png",
			"name":"body-back_ORM",
			"uri":"body-back_ORM.png"
		},
		{
			"mimeType":"image/png",
			"name":"plain-metal",
			"uri":"plain-metal.png"
		},
		{
			"mimeType":"image/png",
			"name":"body-back-paint",
			"uri":"body-back-paint.png"
		},
		{
			"mimeType":"image/png",
			"name":"body-back-metal",
			"uri":"body-back-metal.png"
		},
		{
			"mimeType":"image/png",
			"name":"ring_normal",
			"uri":"ring_normal.png"
		},
		{
			"mimeType":"image/png",
			"name":"ring",
			"uri":"ring.png"
		},
		{
			"mimeType":"image/png",
			"name":"ring_ORM",
			"uri":"ring_ORM.png"
		},
		{
			"mimeType":"image/png",
			"name":"body-bottom_normal",
			"uri":"body-bottom_normal.png"
		},
		{
			"mimeType":"image/png",
			"name":"body-bottom",
			"uri":"body-bottom.png"
		},
		{
			"mimeType":"image/png",
			"name":"body-bottom_ORM",
			"uri":"body-bottom_ORM.png"
		},
		{
			"mimeType":"image/png",
			"name":"head-lens",
			"uri":"head-lens.png"
		},
		{
			"mimeType":"image/png",
			"name":"head-lens-ORM",
			"uri":"head-lens-ORM.png"
		},
		{
			"mimeType":"image/png",
			"name":"lens",
			"uri":"lens.png"
		},
		{
			"mimeType":"image/png",
			"name":"lens_ORM",
			"uri":"lens_ORM.png"
		}
	],
	"accessors":[
		{
			"bufferView":0,
			"componentType":5126,
			"count":169,
			"max":[
				0.35190385580062866,
				3.2977347373962402,
				0.11016452312469482
			],
			"min":[
				-0.04657718539237976,
				2.9923229217529297,
				-0.3016422390937805
			],
			"type":"VEC3"
		},
		{
			"bufferView":1,
			"componentType":5126,
			"count":169,
			"type":"VEC3"
		},
		{
			"bufferView":2,
			"componentType":5126,
			"count":169,
			"type":"VEC2"
		},
		{
			"bufferView":3,
			"componentType":5123,
			"count":864,
			"type":"SCALAR"
		},
		{
			"bufferView":4,
			"componentType":5126,
			"count":195,
			"max":[
				-0.01646408438682556,
				3.228163719177246,
				0.11881314963102341
			],
			"min":[
				-0.42027008533477783,
				2.980062246322632,
				-0.2970922291278839
			],
			"type":"VEC3"
		},
		{
			"bufferView":5,
			"componentType":5126,
			"count":195,
			"type":"VEC3"
		},
		{
			"bufferView":6,
			"componentType":5126,
			"count":195,
			"type":"VEC2"
		},
		{
			"bufferView":7,
			"componentType":5123,
			"count":1008,
			"type":"SCALAR"
		},
		{
			"bufferView":8,
			"componentType":5126,
			"count":5582,
			"max":[
				0.7336620092391968,
				3.83188533782959,
				0.9374990463256836
			],
			"min":[
				-0.8092242479324341,
				3.021327495574951,
				-0.34408432245254517
			],
			"type":"VEC3"
		},
		{
			"bufferView":9,
			"componentType":5126,
			"count":5582,
			"type":"VEC3"
		},
		{
			"bufferView":10,
			"componentType":5126,
			"count":5582,
			"type":"VEC2"
		},
		{
			"bufferView":11,
			"componentType":5123,
			"count":21948,
			"type":"SCALAR"
		},
		{
			"bufferView":12,
			"componentType":5126,
			"count":1081,
			"max":[
				0.09261618554592133,
				3.4548165798187256,
				0.47474122047424316
			],
			"min":[
				-0.16178256273269653,
				2.2535266876220703,
				-0.35426414012908936
			],
			"type":"VEC3"
		},
		{
			"bufferView":13,
			"componentType":5126,
			"count":1081,
			"type":"VEC3"
		},
		{
			"bufferView":14,
			"componentType":5126,
			"count":1081,
			"type":"VEC2"
		},
		{
			"bufferView":15,
			"componentType":5123,
			"count":3876,
			"type":"SCALAR"
		},
		{
			"bufferView":16,
			"componentType":5126,
			"count":56,
			"max":[
				1.202355980873108,
				4.3086442947387695,
				2.274620771408081
			],
			"min":[
				-1.2032936811447144,
				3.7722957134246826,
				1.7600197792053223
			],
			"type":"VEC3"
		},
		{
			"bufferView":17,
			"componentType":5126,
			"count":56,
			"type":"VEC3"
		},
		{
			"bufferView":18,
			"componentType":5126,
			"count":56,
			"type":"VEC2"
		},
		{
			"bufferView":19,
			"componentType":5123,
			"count":144,
			"type":"SCALAR"
		},
		{
			"bufferView":20,
			"componentType":5126,
			"count":612,
			"max":[
				1.1871596574783325,
				4.069162845611572,
				2.058152675628662
			],
			"min":[
				-1.1880974769592285,
				3.5195658206939697,
				1.5409780740737915
			],
			"type":"VEC3"
		},
		{
			"bufferView":21,
			"componentType":5126,
			"count":612,
			"type":"VEC3"
		},
		{
			"bufferView":22,
			"componentType":5126,
			"count":612,
			"type":"VEC2"
		},
		{
			"bufferView":23,
			"componentType":5123,
			"count":1872,
			"type":"SCALAR"
		},
		{
			"bufferView":24,
			"componentType":5126,
			"count":28,
			"max":[
				1.0905495882034302,
				4.184767723083496,
				2.1841650009155273
			],
			"min":[
				-1.0914872884750366,
				3.8898959159851074,
				1.9064760208129883
			],
			"type":"VEC3"
		},
		{
			"bufferView":25,
			"componentType":5126,
			"count":28,
			"type":"VEC3"
		},
		{
			"bufferView":26,
			"componentType":5126,
			"count":28,
			"type":"VEC2"
		},
		{
			"bufferView":27,
			"componentType":5123,
			"count":72,
			"type":"SCALAR"
		},
		{
			"bufferView":28,
			"componentType":5126,
			"count":240,
			"max":[
				1.0778206586837769,
				4.032128810882568,
				2.053469181060791
			],
			"min":[
				-1.0787582397460938,
				3.675605297088623,
				1.7279698848724365
			],
			"type":"VEC3"
		},
		{
			"bufferView":29,
			"componentType":5126,
			"count":240,
			"type":"VEC3"
		},
		{
			"bufferView":30,
			"componentType":5126,
			"count":240,
			"type":"VEC2"
		},
		{
			"bufferView":31,
			"componentType":5123,
			"count":648,
			"type":"SCALAR"
		},
		{
			"bufferView":32,
			"componentType":5126,
			"count":154,
			"max":[
				1.0051089525222778,
				3.833265542984009,
				1.8852680921554565
			],
			"min":[
				-1.0060471296310425,
				3.7315831184387207,
				1.7829649448394775
			],
			"type":"VEC3"
		},
		{
			"bufferView":33,
			"componentType":5126,
			"count":154,
			"type":"VEC3"
		},
		{
			"bufferView":34,
			"componentType":5126,
			"count":154,
			"type":"VEC2"
		},
		{
			"bufferView":35,
			"componentType":5123,
			"count":648,
			"type":"SCALAR"
		},
		{
			"bufferView":36,
			"componentType":5126,
			"count":206,
			"max":[
				1.0296305418014526,
				3.776890754699707,
				1.8281018733978271
			],
			"min":[
				-1.0305683612823486,
				3.6707701683044434,
				1.6911592483520508
			],
			"type":"VEC3"
		},
		{
			"bufferView":37,
			"componentType":5126,
			"count":206,
			"type":"VEC3"
		},
		{
			"bufferView":38,
			"componentType":5126,
			"count":206,
			"type":"VEC2"
		},
		{
			"bufferView":39,
			"componentType":5123,
			"count":816,
			"type":"SCALAR"
		},
		{
			"bufferView":40,
			"componentType":5126,
			"count":104,
			"max":[
				1.0965954065322876,
				3.8166351318359375,
				1.835286259651184
			],
			"min":[
				-1.0975334644317627,
				3.6098170280456543,
				1.6291722059249878
			],
			"type":"VEC3"
		},
		{
			"bufferView":41,
			"componentType":5126,
			"count":104,
			"type":"VEC3"
		},
		{
			"bufferView":42,
			"componentType":5126,
			"count":104,
			"type":"VEC2"
		},
		{
			"bufferView":43,
			"componentType":5123,
			"count":360,
			"type":"SCALAR"
		},
		{
			"bufferView":44,
			"componentType":5126,
			"count":492,
			"max":[
				1.0611683130264282,
				3.782594680786133,
				1.801148772239685
			],
			"min":[
				-1.0621063709259033,
				3.5648460388183594,
				1.583244800567627
			],
			"type":"VEC3"
		},
		{
			"bufferView":45,
			"componentType":5126,
			"count":492,
			"type":"VEC3"
		},
		{
			"bufferView":46,
			"componentType":5126,
			"count":492,
			"type":"VEC2"
		},
		{
			"bufferView":47,
			"componentType":5123,
			"count":1920,
			"type":"SCALAR"
		},
		{
			"bufferView":48,
			"componentType":5126,
			"count":136,
			"max":[
				1.086612582206726,
				3.697899341583252,
				1.7146828174591064
			],
			"min":[
				-1.0875506401062012,
				2.9791133403778076,
				0.9886967539787292
			],
			"type":"VEC3"
		},
		{
			"bufferView":49,
			"componentType":5126,
			"count":136,
			"type":"VEC3"
		},
		{
			"bufferView":50,
			"componentType":5126,
			"count":136,
			"type":"VEC2"
		},
		{
			"bufferView":51,
			"componentType":5123,
			"count":552,
			"type":"SCALAR"
		},
		{
			"bufferView":52,
			"componentType":5126,
			"count":136,
			"max":[
				1.1092466115951538,
				3.3173227310180664,
				1.3277009725570679
			],
			"min":[
				-1.1101852655410767,
				2.5122859477996826,
				0.5151193141937256
			],
			"type":"VEC3"
		},
		{
			"bufferView":53,
			"componentType":5126,
			"count":136,
			"type":"VEC3"
		},
		{
			"bufferView":54,
			"componentType":5126,
			"count":136,
			"type":"VEC2"
		},
		{
			"bufferView":55,
			"componentType":5123,
			"count":552,
			"type":"SCALAR"
		},
		{
			"bufferView":56,
			"componentType":5126,
			"count":272,
			"max":[
				1.1258386373519897,
				2.861630439758301,
				0.8644513487815857
			],
			"min":[
				-1.126777172088623,
				1.9211684465408325,
				-0.0846932902932167
			],
			"type":"VEC3"
		},
		{
			"bufferView":57,
			"componentType":5126,
			"count":272,
			"type":"VEC3"
		},
		{
			"bufferView":58,
			"componentType":5126,
			"count":272,
			"type":"VEC2"
		},
		{
			"bufferView":59,
			"componentType":5123,
			"count":1080,
			"type":"SCALAR"
		},
		{
			"bufferView":60,
			"componentType":5126,
			"count":40,
			"max":[
				1.1258386373519897,
				2.861630439758301,
				0.8644513487815857
			],
			"min":[
				-1.126777172088623,
				1.9211684465408325,
				-0.0846932902932167
			],
			"type":"VEC3"
		},
		{
			"bufferView":61,
			"componentType":5126,
			"count":40,
			"type":"VEC3"
		},
		{
			"bufferView":62,
			"componentType":5126,
			"count":40,
			"type":"VEC2"
		},
		{
			"bufferView":63,
			"componentType":5123,
			"count":144,
			"type":"SCALAR"
		},
		{
			"bufferView":64,
			"componentType":5126,
			"count":1036,
			"max":[
				1.1255580186843872,
				2.229806661605835,
				0.22266808152198792
			],
			"min":[
				-1.1264973878860474,
				1.8425724506378174,
				-0.1643606424331665
			],
			"type":"VEC3"
		},
		{
			"bufferView":65,
			"componentType":5126,
			"count":1036,
			"type":"VEC3"
		},
		{
			"bufferView":66,
			"componentType":5126,
			"count":1036,
			"type":"VEC2"
		},
		{
			"bufferView":67,
			"componentType":5123,
			"count":4416,
			"type":"SCALAR"
		},
		{
			"bufferView":68,
			"componentType":5126,
			"count":1019,
			"max":[
				0.8263262510299683,
				2.3464107513427734,
				1.0167627334594727
			],
			"min":[
				-0.8263262510299683,
				0.70896977186203,
				-0.9130423665046692
			],
			"type":"VEC3"
		},
		{
			"bufferView":69,
			"componentType":5126,
			"count":1019,
			"type":"VEC3"
		},
		{
			"bufferView":70,
			"componentType":5126,
			"count":1019,
			"type":"VEC2"
		},
		{
			"bufferView":71,
			"componentType":5123,
			"count":4296,
			"type":"SCALAR"
		},
		{
			"bufferView":72,
			"componentType":5126,
			"count":896,
			"max":[
				1.2964950799942017,
				0.7904698848724365,
				-0.07644705474376678
			],
			"min":[
				-1.2964950799942017,
				0.005660533905029297,
				-0.8612563014030457
			],
			"type":"VEC3"
		},
		{
			"bufferView":73,
			"componentType":5126,
			"count":896,
			"type":"VEC3"
		},
		{
			"bufferView":74,
			"componentType":5126,
			"count":896,
			"type":"VEC2"
		},
		{
			"bufferView":75,
			"componentType":5123,
			"count":2304,
			"type":"SCALAR"
		},
		{
			"bufferView":76,
			"componentType":5126,
			"count":46592,
			"max":[
				1.3714463710784912,
				0.752181887626648,
				0.8984721899032593
			],
			"min":[
				-1.3714463710784912,
				0.043948471546173096,
				-0.8229682445526123
			],
			"type":"VEC3"
		},
		{
			"bufferView":77,
			"componentType":5126,
			"count":46592,
			"type":"VEC3"
		},
		{
			"bufferView":78,
			"componentType":5126,
			"count":46592,
			"type":"VEC2"
		},
		{
			"bufferView":79,
			"componentType":5123,
			"count":141216,
			"type":"SCALAR"
		},
		{
			"bufferView":80,
			"componentType":5126,
			"count":1016,
			"max":[
				1.237031102180481,
				0.5106475353240967,
				0.7331293821334839
			],
			"min":[
				-1.2370312213897705,
				0.21061666309833527,
				-0.5814337134361267
			],
			"type":"VEC3"
		},
		{
			"bufferView":81,
			"componentType":5126,
			"count":1016,
			"type":"VEC3"
		},
		{
			"bufferView":82,
			"componentType":5126,
			"count":1016,
			"type":"VEC2"
		},
		{
			"bufferView":83,
			"componentType":5123,
			"count":3984,
			"type":"SCALAR"
		},
		{
			"bufferView":84,
			"componentType":5126,
			"count":22836,
			"max":[
				1.3045536279678345,
				1.2486164569854736,
				0.9465651512145996
			],
			"min":[
				-1.3045536279678345,
				-0.0056481435894966125,
				-0.8728863000869751
			],
			"type":"VEC3"
		},
		{
			"bufferView":85,
			"componentType":5126,
			"count":22836,
			"type":"VEC3"
		},
		{
			"bufferView":86,
			"componentType":5126,
			"count":22836,
			"type":"VEC2"
		},
		{
			"bufferView":87,
			"componentType":5123,
			"count":44376,
			"type":"SCALAR"
		},
		{
			"bufferView":88,
			"componentType":5126,
			"count":27360,
			"max":[
				1.3052711486816406,
				1.198322057723999,
				0.5645538568496704
			],
			"min":[
				-1.3052711486816406,
				0.6268625259399414,
				-0.29093489050865173
			],
			"type":"VEC3"
		},
		{
			"bufferView":89,
			"componentType":5126,
			"count":27360,
			"type":"VEC3"
		},
		{
			"bufferView":90,
			"componentType":5126,
			"count":27360,
			"type":"VEC2"
		},
		{
			"bufferView":91,
			"componentType":5123,
			"count":87840,
			"type":"SCALAR"
		},
		{
			"bufferView":92,
			"componentType":5126,
			"count":1306,
			"max":[
				1.2289382219314575,
				1.1162772178649902,
				0.4821297824382782
			],
			"min":[
				-1.2289379835128784,
				0.7092856764793396,
				-0.20889079570770264
			],
			"type":"VEC3"
		},
		{
			"bufferView":93,
			"componentType":5126,
			"count":1306,
			"type":"VEC3"
		},
		{
			"bufferView":94,
			"componentType":5126,
			"count":1306,
			"type":"VEC2"
		},
		{
			"bufferView":95,
			"componentType":5123,
			"count":5496,
			"type":"SCALAR"
		},
		{
			"bufferView":96,
			"componentType":5126,
			"count":2498,
			"max":[
				1.039812684059143,
				0.9688385128974915,
				0.23866117000579834
			],
			"min":[
				-1.039812684059143,
				0.24598778784275055,
				0.060652956366539
			],
			"type":"VEC3"
		},
		{
			"bufferView":97,
			"componentType":5126,
			"count":2498,
			"type":"VEC3"
		},
		{
			"bufferView":98,
			"componentType":5126,
			"count":2498,
			"type":"VEC2"
		},
		{
			"bufferView":99,
			"componentType":5123,
			"count":9384,
			"type":"SCALAR"
		},
		{
			"bufferView":100,
			"componentType":5126,
			"count":360,
			"max":[
				-0.4921792149543762,
				0.8561869859695435,
				0.23559746146202087
			],
			"min":[
				-1.034778356552124,
				0.3585065007209778,
				0.06371627002954483
			],
			"type":"VEC3"
		},
		{
			"bufferView":101,
			"componentType":5126,
			"count":360,
			"type":"VEC3"
		},
		{
			"bufferView":102,
			"componentType":5126,
			"count":360,
			"type":"VEC2"
		},
		{
			"bufferView":103,
			"componentType":5123,
			"count":708,
			"type":"SCALAR"
		},
		{
			"bufferView":104,
			"componentType":5126,
			"count":1580,
			"max":[
				0.7238207459449768,
				2.2630772590637207,
				0.9905210137367249
			],
			"min":[
				-0.7619116902351379,
				0.7529023289680481,
				-0.9502173662185669
			],
			"type":"VEC3"
		},
		{
			"bufferView":105,
			"componentType":5126,
			"count":1580,
			"type":"VEC3"
		},
		{
			"bufferView":106,
			"componentType":5126,
			"count":1580,
			"type":"VEC2"
		},
		{
			"bufferView":107,
			"componentType":5123,
			"count":4386,
			"type":"SCALAR"
		},
		{
			"bufferView":108,
			"componentType":5126,
			"count":136,
			"max":[
				0.5057951211929321,
				1.5958211421966553,
				-0.7633320093154907
			],
			"min":[
				-0.5438863039016724,
				1.0692379474639893,
				-0.8553929328918457
			],
			"type":"VEC3"
		},
		{
			"bufferView":109,
			"componentType":5126,
			"count":136,
			"type":"VEC3"
		},
		{
			"bufferView":110,
			"componentType":5126,
			"count":136,
			"type":"VEC2"
		},
		{
			"bufferView":111,
			"componentType":5123,
			"count":384,
			"type":"SCALAR"
		},
		{
			"bufferView":112,
			"componentType":5126,
			"count":306,
			"max":[
				0.5366047024726868,
				1.524823784828186,
				-0.7325223088264465
			],
			"min":[
				-0.574695885181427,
				1.09886634349823,
				-0.8862025141716003
			],
			"type":"VEC3"
		},
		{
			"bufferView":113,
			"componentType":5126,
			"count":306,
			"type":"VEC3"
		},
		{
			"bufferView":114,
			"componentType":5126,
			"count":306,
			"type":"VEC2"
		},
		{
			"bufferView":115,
			"componentType":5123,
			"count":960,
			"type":"SCALAR"
		},
		{
			"bufferView":116,
			"componentType":5126,
			"count":1072,
			"max":[
				0.586708664894104,
				1.7925740480422974,
				-0.745590329170227
			],
			"min":[
				-0.6247997879981995,
				0.8663287162780762,
				-0.8739956617355347
			],
			"type":"VEC3"
		},
		{
			"bufferView":117,
			"componentType":5126,
			"count":1072,
			"type":"VEC3"
		},
		{
			"bufferView":118,
			"componentType":5126,
			"count":1072,
			"type":"VEC2"
		},
		{
			"bufferView":119,
			"componentType":5123,
			"count":3408,
			"type":"SCALAR"
		},
		{
			"bufferView":120,
			"componentType":5126,
			"count":412,
			"max":[
				0.8437706232070923,
				2.3488264083862305,
				1.059964895248413
			],
			"min":[
				-0.8477694392204285,
				1.6894546747207642,
				-0.6093082427978516
			],
			"type":"VEC3"
		},
		{
			"bufferView":121,
			"componentType":5126,
			"count":412,
			"type":"VEC3"
		},
		{
			"bufferView":122,
			"componentType":5126,
			"count":412,
			"type":"VEC2"
		},
		{
			"bufferView":123,
			"componentType":5123,
			"count":1362,
			"type":"SCALAR"
		},
		{
			"bufferView":124,
			"componentType":5126,
			"count":88,
			"max":[
				0.8428969383239746,
				1.7569665908813477,
				1.050978183746338
			],
			"min":[
				-0.8428969979286194,
				0.6897996664047241,
				-0.6115212440490723
			],
			"type":"VEC3"
		},
		{
			"bufferView":125,
			"componentType":5126,
			"count":88,
			"type":"VEC3"
		},
		{
			"bufferView":126,
			"componentType":5126,
			"count":88,
			"type":"VEC2"
		},
		{
			"bufferView":127,
			"componentType":5123,
			"count":240,
			"type":"SCALAR"
		},
		{
			"bufferView":128,
			"componentType":5126,
			"count":872,
			"max":[
				0.5202364921569824,
				3.734503984451294,
				0.9074704647064209
			],
			"min":[
				-0.5957992076873779,
				3.288353443145752,
				0.7509462237358093
			],
			"type":"VEC3"
		},
		{
			"bufferView":129,
			"componentType":5126,
			"count":872,
			"type":"VEC3"
		},
		{
			"bufferView":130,
			"componentType":5126,
			"count":872,
			"type":"VEC2"
		},
		{
			"bufferView":131,
			"componentType":5123,
			"count":3252,
			"type":"SCALAR"
		},
		{
			"bufferView":132,
			"componentType":5126,
			"count":192,
			"max":[
				0.5068708658218384,
				3.716634750366211,
				0.8795421123504639
			],
			"min":[
				-0.5824337005615234,
				3.3109381198883057,
				0.8043014407157898
			],
			"type":"VEC3"
		},
		{
			"bufferView":133,
			"componentType":5126,
			"count":192,
			"type":"VEC3"
		},
		{
			"bufferView":134,
			"componentType":5126,
			"count":192,
			"type":"VEC2"
		},
		{
			"bufferView":135,
			"componentType":5123,
			"count":948,
			"type":"SCALAR"
		}
	],
	"bufferViews":[
		{
			"buffer":0,
			"byteLength":2028,
			"byteOffset":0,
			"target":34962
		},
		{
			"buffer":0,
			"byteLength":2028,
			"byteOffset":2028,
			"target":34962
		},
		{
			"buffer":0,
			"byteLength":1352,
			"byteOffset":4056,
			"target":34962
		},
		{
			"buffer":0,
			"byteLength":1728,
			"byteOffset":5408,
			"target":34963
		},
		{
			"buffer":0,
			"byteLength":2340,
			"byteOffset":7136,
			"target":34962
		},
		{
			"buffer":0,
			"byteLength":2340,
			"byteOffset":9476,
			"target":34962
		},
		{
			"buffer":0,
			"byteLength":1560,
			"byteOffset":11816,
			"target":34962
		},
		{
			"buffer":0,
			"byteLength":2016,
			"byteOffset":13376,
			"target":34963
		},
		{
			"buffer":0,
			"byteLength":66984,
			"byteOffset":15392,
			"target":34962
		},
		{
			"buffer":0,
			"byteLength":66984,
			"byteOffset":82376,
			"target":34962
		},
		{
			"buffer":0,
			"byteLength":44656,
			"byteOffset":149360,
			"target":34962
		},
		{
			"buffer":0,
			"byteLength":43896,
			"byteOffset":194016,
			"target":34963
		},
		{
			"buffer":0,
			"byteLength":12972,
			"byteOffset":237912,
			"target":34962
		},
		{
			"buffer":0,
			"byteLength":12972,
			"byteOffset":250884,
			"target":34962
		},
		{
			"buffer":0,
			"byteLength":8648,
			"byteOffset":263856,
			"target":34962
		},
		{
			"buffer":0,
			"byteLength":7752,
			"byteOffset":272504,
			"target":34963
		},
		{
			"buffer":0,
			"byteLength":672,
			"byteOffset":280256,
			"target":34962
		},
		{
			"buffer":0,
			"byteLength":672,
			"byteOffset":280928,
			"target":34962
		},
		{
			"buffer":0,
			"byteLength":448,
			"byteOffset":281600,
			"target":34962
		},
		{
			"buffer":0,
			"byteLength":288,
			"byteOffset":282048,
			"target":34963
		},
		{
			"buffer":0,
			"byteLength":7344,
			"byteOffset":282336,
			"target":34962
		},
		{
			"buffer":0,
			"byteLength":7344,
			"byteOffset":289680,
			"target":34962
		},
		{
			"buffer":0,
			"byteLength":4896,
			"byteOffset":297024,
			"target":34962
		},
		{
			"buffer":0,
			"byteLength":3744,
			"byteOffset":301920,
			"target":34963
		},
		{
			"buffer":0,
			"byteLength":336,
			"byteOffset":305664,
			"target":34962
		},
		{
			"buffer":0,
			"byteLength":336,
			"byteOffset":306000,
			"target":34962
		},
		{
			"buffer":0,
			"byteLength":224,
			"byteOffset":306336,
			"target":34962
		},
		{
			"buffer":0,
			"byteLength":144,
			"byteOffset":306560,
			"target":34963
		},
		{
			"buffer":0,
			"byteLength":2880,
			"byteOffset":306704,
			"target":34962
		},
		{
			"buffer":0,
			"byteLength":2880,
			"byteOffset":309584,
			"target":34962
		},
		{
			"buffer":0,
			"byteLength":1920,
			"byteOffset":312464,
			"target":34962
		},
		{
			"buffer":0,
			"byteLength":1296,
			"byteOffset":314384,
			"target":34963
		},
		{
			"buffer":0,
			"byteLength":1848,
			"byteOffset":315680,
			"target":34962
		},
		{
			"buffer":0,
			"byteLength":1848,
			"byteOffset":317528,
			"target":34962
		},
		{
			"buffer":0,
			"byteLength":1232,
			"byteOffset":319376,
			"target":34962
		},
		{
			"buffer":0,
			"byteLength":1296,
			"byteOffset":320608,
			"target":34963
		},
		{
			"buffer":0,
			"byteLength":2472,
			"byteOffset":321904,
			"target":34962
		},
		{
			"buffer":0,
			"byteLength":2472,
			"byteOffset":324376,
			"target":34962
		},
		{
			"buffer":0,
			"byteLength":1648,
			"byteOffset":326848,
			"target":34962
		},
		{
			"buffer":0,
			"byteLength":1632,
			"byteOffset":328496,
			"target":34963
		},
		{
			"buffer":0,
			"byteLength":1248,
			"byteOffset":330128,
			"target":34962
		},
		{
			"buffer":0,
			"byteLength":1248,
			"byteOffset":331376,
			"target":34962
		},
		{
			"buffer":0,
			"byteLength":832,
			"byteOffset":332624,
			"target":34962
		},
		{
			"buffer":0,
			"byteLength":720,
			"byteOffset":333456,
			"target":34963
		},
		{
			"buffer":0,
			"byteLength":5904,
			"byteOffset":334176,
			"target":34962
		},
		{
			"buffer":0,
			"byteLength":5904,
			"byteOffset":340080,
			"target":34962
		},
		{
			"buffer":0,
			"byteLength":3936,
			"byteOffset":345984,
			"target":34962
		},
		{
			"buffer":0,
			"byteLength":3840,
			"byteOffset":349920,
			"target":34963
		},
		{
			"buffer":0,
			"byteLength":1632,
			"byteOffset":353760,
			"target":34962
		},
		{
			"buffer":0,
			"byteLength":1632,
			"byteOffset":355392,
			"target":34962
		},
		{
			"buffer":0,
			"byteLength":1088,
			"byteOffset":357024,
			"target":34962
		},
		{
			"buffer":0,
			"byteLength":1104,
			"byteOffset":358112,
			"target":34963
		},
		{
			"buffer":0,
			"byteLength":1632,
			"byteOffset":359216,
			"target":34962
		},
		{
			"buffer":0,
			"byteLength":1632,
			"byteOffset":360848,
			"target":34962
		},
		{
			"buffer":0,
			"byteLength":1088,
			"byteOffset":362480,
			"target":34962
		},
		{
			"buffer":0,
			"byteLength":1104,
			"byteOffset":363568,
			"target":34963
		},
		{
			"buffer":0,
			"byteLength":3264,
			"byteOffset":364672,
			"target":34962
		},
		{
			"buffer":0,
			"byteLength":3264,
			"byteOffset":367936,
			"target":34962
		},
		{
			"buffer":0,
			"byteLength":2176,
			"byteOffset":371200,
			"target":34962
		},
		{
			"buffer":0,
			"byteLength":2160,
			"byteOffset":373376,
			"target":34963
		},
		{
			"buffer":0,
			"byteLength":480,
			"byteOffset":375536,
			"target":34962
		},
		{
			"buffer":0,
			"byteLength":480,
			"byteOffset":376016,
			"target":34962
		},
		{
			"buffer":0,
			"byteLength":320,
			"byteOffset":376496,
			"target":34962
		},
		{
			"buffer":0,
			"byteLength":288,
			"byteOffset":376816,
			"target":34963
		},
		{
			"buffer":0,
			"byteLength":12432,
			"byteOffset":377104,
			"target":34962
		},
		{
			"buffer":0,
			"byteLength":12432,
			"byteOffset":389536,
			"target":34962
		},
		{
			"buffer":0,
			"byteLength":8288,
			"byteOffset":401968,
			"target":34962
		},
		{
			"buffer":0,
			"byteLength":8832,
			"byteOffset":410256,
			"target":34963
		},
		{
			"buffer":0,
			"byteLength":12228,
			"byteOffset":419088,
			"target":34962
		},
		{
			"buffer":0,
			"byteLength":12228,
			"byteOffset":431316,
			"target":34962
		},
		{
			"buffer":0,
			"byteLength":8152,
			"byteOffset":443544,
			"target":34962
		},
		{
			"buffer":0,
			"byteLength":8592,
			"byteOffset":451696,
			"target":34963
		},
		{
			"buffer":0,
			"byteLength":10752,
			"byteOffset":460288,
			"target":34962
		},
		{
			"buffer":0,
			"byteLength":10752,
			"byteOffset":471040,
			"target":34962
		},
		{
			"buffer":0,
			"byteLength":7168,
			"byteOffset":481792,
			"target":34962
		},
		{
			"buffer":0,
			"byteLength":4608,
			"byteOffset":488960,
			"target":34963
		},
		{
			"buffer":0,
			"byteLength":559104,
			"byteOffset":493568,
			"target":34962
		},
		{
			"buffer":0,
			"byteLength":559104,
			"byteOffset":1052672,
			"target":34962
		},
		{
			"buffer":0,
			"byteLength":372736,
			"byteOffset":1611776,
			"target":34962
		},
		{
			"buffer":0,
			"byteLength":282432,
			"byteOffset":1984512,
			"target":34963
		},
		{
			"buffer":0,
			"byteLength":12192,
			"byteOffset":2266944,
			"target":34962
		},
		{
			"buffer":0,
			"byteLength":12192,
			"byteOffset":2279136,
			"target":34962
		},
		{
			"buffer":0,
			"byteLength":8128,
			"byteOffset":2291328,
			"target":34962
		},
		{
			"buffer":0,
			"byteLength":7968,
			"byteOffset":2299456,
			"target":34963
		},
		{
			"buffer":0,
			"byteLength":274032,
			"byteOffset":2307424,
			"target":34962
		},
		{
			"buffer":0,
			"byteLength":274032,
			"byteOffset":2581456,
			"target":34962
		},
		{
			"buffer":0,
			"byteLength":182688,
			"byteOffset":2855488,
			"target":34962
		},
		{
			"buffer":0,
			"byteLength":88752,
			"byteOffset":3038176,
			"target":34963
		},
		{
			"buffer":0,
			"byteLength":328320,
			"byteOffset":3126928,
			"target":34962
		},
		{
			"buffer":0,
			"byteLength":328320,
			"byteOffset":3455248,
			"target":34962
		},
		{
			"buffer":0,
			"byteLength":218880,
			"byteOffset":3783568,
			"target":34962
		},
		{
			"buffer":0,
			"byteLength":175680,
			"byteOffset":4002448,
			"target":34963
		},
		{
			"buffer":0,
			"byteLength":15672,
			"byteOffset":4178128,
			"target":34962
		},
		{
			"buffer":0,
			"byteLength":15672,
			"byteOffset":4193800,
			"target":34962
		},
		{
			"buffer":0,
			"byteLength":10448,
			"byteOffset":4209472,
			"target":34962
		},
		{
			"buffer":0,
			"byteLength":10992,
			"byteOffset":4219920,
			"target":34963
		},
		{
			"buffer":0,
			"byteLength":29976,
			"byteOffset":4230912,
			"target":34962
		},
		{
			"buffer":0,
			"byteLength":29976,
			"byteOffset":4260888,
			"target":34962
		},
		{
			"buffer":0,
			"byteLength":19984,
			"byteOffset":4290864,
			"target":34962
		},
		{
			"buffer":0,
			"byteLength":18768,
			"byteOffset":4310848,
			"target":34963
		},
		{
			"buffer":0,
			"byteLength":4320,
			"byteOffset":4329616,
			"target":34962
		},
		{
			"buffer":0,
			"byteLength":4320,
			"byteOffset":4333936,
			"target":34962
		},
		{
			"buffer":0,
			"byteLength":2880,
			"byteOffset":4338256,
			"target":34962
		},
		{
			"buffer":0,
			"byteLength":1416,
			"byteOffset":4341136,
			"target":34963
		},
		{
			"buffer":0,
			"byteLength":18960,
			"byteOffset":4342552,
			"target":34962
		},
		{
			"buffer":0,
			"byteLength":18960,
			"byteOffset":4361512,
			"target":34962
		},
		{
			"buffer":0,
			"byteLength":12640,
			"byteOffset":4380472,
			"target":34962
		},
		{
			"buffer":0,
			"byteLength":8772,
			"byteOffset":4393112,
			"target":34963
		},
		{
			"buffer":0,
			"byteLength":1632,
			"byteOffset":4401884,
			"target":34962
		},
		{
			"buffer":0,
			"byteLength":1632,
			"byteOffset":4403516,
			"target":34962
		},
		{
			"buffer":0,
			"byteLength":1088,
			"byteOffset":4405148,
			"target":34962
		},
		{
			"buffer":0,
			"byteLength":768,
			"byteOffset":4406236,
			"target":34963
		},
		{
			"buffer":0,
			"byteLength":3672,
			"byteOffset":4407004,
			"target":34962
		},
		{
			"buffer":0,
			"byteLength":3672,
			"byteOffset":4410676,
			"target":34962
		},
		{
			"buffer":0,
			"byteLength":2448,
			"byteOffset":4414348,
			"target":34962
		},
		{
			"buffer":0,
			"byteLength":1920,
			"byteOffset":4416796,
			"target":34963
		},
		{
			"buffer":0,
			"byteLength":12864,
			"byteOffset":4418716,
			"target":34962
		},
		{
			"buffer":0,
			"byteLength":12864,
			"byteOffset":4431580,
			"target":34962
		},
		{
			"buffer":0,
			"byteLength":8576,
			"byteOffset":4444444,
			"target":34962
		},
		{
			"buffer":0,
			"byteLength":6816,
			"byteOffset":4453020,
			"target":34963
		},
		{
			"buffer":0,
			"byteLength":4944,
			"byteOffset":4459836,
			"target":34962
		},
		{
			"buffer":0,
			"byteLength":4944,
			"byteOffset":4464780,
			"target":34962
		},
		{
			"buffer":0,
			"byteLength":3296,
			"byteOffset":4469724,
			"target":34962
		},
		{
			"buffer":0,
			"byteLength":2724,
			"byteOffset":4473020,
			"target":34963
		},
		{
			"buffer":0,
			"byteLength":1056,
			"byteOffset":4475744,
			"target":34962
		},
		{
			"buffer":0,
			"byteLength":1056,
			"byteOffset":4476800,
			"target":34962
		},
		{
			"buffer":0,
			"byteLength":704,
			"byteOffset":4477856,
			"target":34962
		},
		{
			"buffer":0,
			"byteLength":480,
			"byteOffset":4478560,
			"target":34963
		},
		{
			"buffer":0,
			"byteLength":10464,
			"byteOffset":4479040,
			"target":34962
		},
		{
			"buffer":0,
			"byteLength":10464,
			"byteOffset":4489504,
			"target":34962
		},
		{
			"buffer":0,
			"byteLength":6976,
			"byteOffset":4499968,
			"target":34962
		},
		{
			"buffer":0,
			"byteLength":6504,
			"byteOffset":4506944,
			"target":34963
		},
		{
			"buffer":0,
			"byteLength":2304,
			"byteOffset":4513448,
			"target":34962
		},
		{
			"buffer":0,
			"byteLength":2304,
			"byteOffset":4515752,
			"target":34962
		},
		{
			"buffer":0,
			"byteLength":1536,
			"byteOffset":4518056,
			"target":34962
		},
		{
			"buffer":0,
			"byteLength":1896,
			"byteOffset":4519592,
			"target":34963
		}
	],
	"samplers":[
		{
			"magFilter":9729,
			"minFilter":9987
		}
	],
	"buffers":[
		{
			"byteLength":4521488,
			"uri":"walle.bin"
		}
	]
}
