{
	"asset":{
		"generator":"Khronos glTF Blender I/O v4.5.48",
		"version":"2.0"
	},
	"extensionsUsed":[
		"KHR_texture_transform"
	],
	"extensionsRequired":[
		"KHR_texture_transform"
	],
	"scene":0,
	"scenes":[
		{
			"name":"Scene",
			"nodes":[
				0,
				3,
				4,
				44,
				45
			]
		}
	],
	"nodes":[
		{
			"mesh":0,
			"name":"podium"
		},
		{
			"mesh":1,
			"name":"eye-cable-left"
		},
		{
			"mesh":2,
			"name":"eye-cable-right"
		},
		{
			"children":[
				1,
				2
			],
			"mesh":3,
			"name":"back-eyes"
		},
		{
			"mesh":4,
			"name":"head-base"
		},
		{
			"mesh":5,
			"name":"upper-thumb"
		},
		{
			"children":[
				5
			],
			"mesh":6,
			"name":"lower-thumb"
		},
		{
			"children":[
				6
			],
			"mesh":7,
			"name":"thumb-base"
		},
		{
			"children":[
				7
			],
			"mesh":8,
			"name":"thumb-connector"
		},
		{
			"children":[
				8
			],
			"mesh":9,
			"name":"hand-shaft"
		},
		{
			"mesh":10,
			"name":"upper-hand"
		},
		{
			"children":[
				10
			],
			"mesh":11,
			"name":"lower-hand"
		},
		{
			"mesh":12,
			"name":"upper-hand.001"
		},
		{
			"children":[
				12
			],
			"mesh":13,
			"name":"lower-hand.001"
		},
		{
			"children":[
				9,
				11,
				13
			],
			"mesh":14,
			"name":"hand-connector"
		},
		{
			"children":[
				14
			],
			"mesh":15,
			"name":"lower-arm"
		},
		{
			"children":[
				15
			],
			"mesh":16,
			"name":"middle-arm"
		},
		{
			"children":[
				16
			],
			"mesh":17,
			"name":"upper-arm"
		},
		{
			"children":[
				17
			],
			"mesh":18,
			"name":"arm-connector"
		},
		{
			"mesh":19,
			"name":"upper-thumb.001"
		},
		{
			"children":[
				19
			],
			"mesh":20,
			"name":"lower-thumb.001"
		},
		{
			"children":[
				20
			],
			"mesh":21,
			"name":"thumb-base.001"
		},
		{
			"children":[
				21
			],
			"mesh":22,
			"name":"thumb-connector.001"
		},
		{
			"children":[
				22
			],
			"mesh":23,
			"name":"hand-shaft.001"
		},
		{
			"mesh":24,
			"name":"upper-hand.002"
		},
		{
			"children":[
				24
			],
			"mesh":25,
			"name":"lower-hand.002"
		},
		{
			"mesh":26,
			"name":"upper-hand.003"
		},
		{
			"children":[
				26
			],
			"mesh":27,
			"name":"lower-hand.003"
		},
		{
			"children":[
				23,
				25,
				27
			],
			"mesh":28,
			"name":"hand-connector.001"
		},
		{
			"children":[
				28
			],
			"mesh":29,
			"name":"lower-arm.001"
		},
		{
			"children":[
				29
			],
			"mesh":30,
			"name":"middle-arm.001"
		},
		{
			"children":[
				30
			],
			"mesh":31,
			"name":"upper-arm.001"
		},
		{
			"children":[
				31
			],
			"mesh":32,
			"name":"arm-connector.001"
		},
		{
			"children":[
				18,
				32
			],
			"mesh":33,
			"name":"body-top"
		},
		{
			"mesh":34,
			"name":"gears.002"
		},
		{
			"mesh":35,
			"name":"lower-gears"
		},
		{
			"children":[
				34,
				35
			],
			"mesh":36,
			"name":"bottom_shaft"
		},
		{
			"mesh":37,
			"name":"treadmill"
		},
		{
			"mesh":38,
			"name":"upper-gears"
		},
		{
			"children":[
				38
			],
			"mesh":39,
			"name":"upper_shaft"
		},
		{
			"children":[
				36,
				37,
				39
			],
			"mesh":40,
			"name":"connecting_shaft"
		},
		{
			"children":[
				40
			],
			"mesh":41,
			"name":"treead-connector"
		},
		{
			"children":[
				33,
				41
			],
			"mesh":42,
			"name":"body-back"
		},
		{
			"mesh":43,
			"name":"body-ring"
		},
		{
			"children":[
				42,
				43
			],
			"mesh":44,
			"name":"walle"
		},
		{
			"mesh":45,
			"name":"back-eyes.001"
		}
	],
	"materials":[
		{
			"doubleSided":true,
			"name":"spotlight",
			"pbrMetallicRoughness":{
				"baseColorTexture":{
					"index":0
				},
				"metallicFactor":0,
				"roughnessFactor":0.5
			}
		},
		{
			"doubleSided":true,
			"name":"walle-rubber-cable",
			"pbrMetallicRoughness":{
				"baseColorTexture":{
					"index":1
				},
				"metallicFactor":0,
				"roughnessFactor":0.40909090638160706
			}
		},
		{
			"doubleSided":true,
			"name":"head",
			"normalTexture":{
				"index":2
			},
			"pbrMetallicRoughness":{
				"baseColorTexture":{
					"index":3
				},
				"metallicRoughnessTexture":{
					"index":4
				}
			}
		},
		{
			"doubleSided":true,
			"name":"walle-head-shaft",
			"pbrMetallicRoughness":{
				"baseColorTexture":{
					"index":5
				},
				"metallicFactor":0.4318181872367859,
				"roughnessFactor":0.5681818127632141
			}
		},
		{
			"doubleSided":true,
			"name":"metal",
			"normalTexture":{
				"index":6
			},
			"pbrMetallicRoughness":{
				"baseColorTexture":{
					"index":7
				},
				"metallicFactor":0,
				"roughnessFactor":0.8636363744735718
			}
		},
		{
			"doubleSided":true,
			"name":"walle-arm-shaft",
			"pbrMetallicRoughness":{
				"baseColorTexture":{
					"index":8
				},
				"metallicFactor":0,
				"roughnessFactor":0.4318181872367859
			}
		},
		{
			"doubleSided":true,
			"name":"arm-paint",
			"normalTexture":{
				"index":9
			},
			"pbrMetallicRoughness":{
				"baseColorTexture":{
					"index":10
				},
				"metallicRoughnessTexture":{
					"index":11
				}
			}
		},
		{
			"doubleSided":true,
			"name":"walle-arm-grid",
			"normalTexture":{
				"index":12
			},
			"pbrMetallicRoughness":{
				"baseColorTexture":{
					"index":13
				},
				"metallicFactor":0,
				"roughnessFactor":0.4318181872367859
			}
		},
		{
			"doubleSided":true,
			"name":"body-top",
			"normalTexture":{
				"index":14
			},
			"pbrMetallicRoughness":{
				"baseColorTexture":{
					"index":15
				},
				"metallicRoughnessTexture":{
					"index":16
				}
			}
		},
		{
			"doubleSided":true,
			"name":"walle-shafts",
			"pbrMetallicRoughness":{
				"baseColorTexture":{
					"index":17
				},
				"metallicRoughnessTexture":{
					"index":18
				}
			}
		},
		{
			"doubleSided":true,
			"name":"walle-treadmill",
			"pbrMetallicRoughness":{
				"baseColorTexture":{
					"extensions":{
						"KHR_texture_transform":{
							"offset":[
								0,
								0.17000001668930054
							],
							"scale":[
								0.8299999833106995,
								0.8299999833106995
							]
						}
					},
					"index":19
				},
				"metallicFactor":0.6954545378684998,
				"roughnessFactor":0.48636364936828613
			}
		},
		{
			"doubleSided":true,
			"name":"body-back",
			"normalTexture":{
				"index":20
			},
			"pbrMetallicRoughness":{
				"baseColorTexture":{
					"index":21
				},
				"metallicRoughnessTexture":{
					"index":22
				}
			}
		},
		{
			"doubleSided":true,
			"name":"walle-plain-metal",
			"pbrMetallicRoughness":{
				"baseColorTexture":{
					"index":23
				},
				"roughnessFactor":0.27272725105285645
			}
		},
		{
			"doubleSided":true,
			"name":"walle-piston-paint",
			"pbrMetallicRoughness":{
				"baseColorTexture":{
					"index":24
				},
				"metallicFactor":0,
				"roughnessFactor":0.23636363446712494
			}
		},
		{
			"doubleSided":true,
			"name":"walle-worn-metal",
			"pbrMetallicRoughness":{
				"baseColorTexture":{
					"index":25
				},
				"metallicFactor":0,
				"roughnessFactor":0.36818182468414307
			}
		},
		{
			"doubleSided":true,
			"name":"ring",
			"normalTexture":{
				"index":26
			},
			"pbrMetallicRoughness":{
				"baseColorTexture":{
					"index":27
				},
				"metallicRoughnessTexture":{
					"index":28
				}
			}
		},
		{
			"doubleSided":true,
			"name":"body-bottom",
			"normalTexture":{
				"index":29
			},
			"pbrMetallicRoughness":{
				"baseColorTexture":{
					"index":30
				},
				"metallicRoughnessTexture":{
					"index":31
				}
			}
		},
		{
			"doubleSided":true,
			"name":"lens-border",
			"pbrMetallicRoughness":{
				"baseColorTexture":{
					"index":32
				},
				"metallicRoughnessTexture":{
					"index":33
				}
			}
		},
		{
			"doubleSided":true,
			"name":"lens",
			"pbrMetallicRoughness":{
				"baseColorTexture":{
					"index":34
				},
				"metallicRoughnessTexture":{
					"index":35
				}
			}
		}
	],
	"meshes":[
		{
			"name":"Cylinder.002",
			"primitives":[
				{
					"attributes":{
						"POSITION":0,
						"NORMAL":1,
						"TEXCOORD_0":2
					},
					"indices":3,
					"material":0
				}
			]
		},
		{
			"name":"B\u00e9zierCurve",
			"primitives":[
				{
					"attributes":{
						"POSITION":4,
						"NORMAL":5,
						"TEXCOORD_0":6
					},
					"indices":7,
					"material":1
				}
			]
		},
		{
			"name":"B\u00e9zierCurve.002",
			"primitives":[
				{
					"attributes":{
						"POSITION":8,
						"NORMAL":9,
						"TEXCOORD_0":10
					},
					"indices":11,
					"material":1
				}
			]
		},
		{
			"name":"Mesh.002",
			"primitives":[
				{
					"attributes":{
						"POSITION":12,
						"NORMAL":13,
						"TEXCOORD_0":14
					},
					"indices":15,
					"material":2
				}
			]
		},
		{
			"name":"Cylinder.019",
			"primitives":[
				{
					"attributes":{
						"POSITION":16,
						"NORMAL":17,
						"TEXCOORD_0":18
					},
					"indices":19,
					"material":3
				}
			]
		},
		{
			"name":"Cube.005",
			"primitives":[
				{
					"attributes":{
						"POSITION":20,
						"NORMAL":21,
						"TEXCOORD_0":22
					},
					"indices":23,
					"material":4
				}
			]
		},
		{
			"name":"Cube.006",
			"primitives":[
				{
					"attributes":{
						"POSITION":24,
						"NORMAL":25,
						"TEXCOORD_0":26
					},
					"indices":27,
					"material":4
				}
			]
		},
		{
			"name":"Cylinder.013",
			"primitives":[
				{
					"attributes":{
						"POSITION":28,
						"NORMAL":29,
						"TEXCOORD_0":30
					},
					"indices":31,
					"material":5
				}
			]
		},
		{
			"name":"Cylinder.011",
			"primitives":[
				{
					"attributes":{
						"POSITION":32,
						"NORMAL":33,
						"TEXCOORD_0":34
					},
					"indices":35,
					"material":4
				}
			]
		},
		{
			"name":"Cylinder",
			"primitives":[
				{
					"attributes":{
						"POSITION":36,
						"NORMAL":37,
						"TEXCOORD_0":38
					},
					"indices":39,
					"material":5
				}
			]
		},
		{
			"name":"Cube.008",
			"primitives":[
				{
					"attributes":{
						"POSITION":40,
						"NORMAL":41,
						"TEXCOORD_0":42
					},
					"indices":43,
					"material":4
				}
			]
		},
		{
			"name":"Cube.002",
			"primitives":[
				{
					"attributes":{
						"POSITION":44,
						"NORMAL":45,
						"TEXCOORD_0":46
					},
					"indices":47,
					"material":4
				}
			]
		},
		{
			"name":"Cube.034",
			"primitives":[
				{
					"attributes":{
						"POSITION":48,
						"NORMAL":49,
						"TEXCOORD_0":50
					},
					"indices":51,
					"material":4
				}
			]
		},
		{
			"name":"Cube.029",
			"primitives":[
				{
					"attributes":{
						"POSITION":52,
						"NORMAL":53,
						"TEXCOORD_0":54
					},
					"indices":55,
					"material":4
				}
			]
		},
		{
			"name":"Cylinder.001",
			"primitives":[
				{
					"attributes":{
						"POSITION":56,
						"NORMAL":57,
						"TEXCOORD_0":58
					},
					"indices":59,
					"material":4
				}
			]
		},
		{
			"name":"Cylinder.006",
			"primitives":[
				{
					"attributes":{
						"POSITION":60,
						"NORMAL":61,
						"TEXCOORD_0":62
					},
					"indices":63,
					"material":5
				}
			]
		},
		{
			"name":"Cylinder.007",
			"primitives":[
				{
					"attributes":{
						"POSITION":64,
						"NORMAL":65,
						"TEXCOORD_0":66
					},
					"indices":67,
					"material":5
				}
			]
		},
		{
			"name":"Cylinder.009",
			"primitives":[
				{
					"attributes":{
						"POSITION":68,
						"NORMAL":69,
						"TEXCOORD_0":70
					},
					"indices":71,
					"material":6
				},
				{
					"attributes":{
						"POSITION":72,
						"NORMAL":73,
						"TEXCOORD_0":74
					},
					"indices":75,
					"material":7
				}
			]
		},
		{
			"name":"Cylinder.014",
			"primitives":[
				{
					"attributes":{
						"POSITION":76,
						"NORMAL":77,
						"TEXCOORD_0":78
					},
					"indices":79,
					"material":6
				}
			]
		},
		{
			"name":"Cube.032",
			"primitives":[
				{
					"attributes":{
						"POSITION":80,
						"NORMAL":81,
						"TEXCOORD_0":82
					},
					"indices":83,
					"material":4
				}
			]
		},
		{
			"name":"Cube.033",
			"primitives":[
				{
					"attributes":{
						"POSITION":84,
						"NORMAL":85,
						"TEXCOORD_0":86
					},
					"indices":87,
					"material":4
				}
			]
		},
		{
			"name":"Cylinder.054",
			"primitives":[
				{
					"attributes":{
						"POSITION":88,
						"NORMAL":89,
						"TEXCOORD_0":90
					},
					"indices":91,
					"material":5
				}
			]
		},
		{
			"name":"Cylinder.053",
			"primitives":[
				{
					"attributes":{
						"POSITION":92,
						"NORMAL":93,
						"TEXCOORD_0":94
					},
					"indices":95,
					"material":4
				}
			]
		},
		{
			"name":"Cylinder.048",
			"primitives":[
				{
					"attributes":{
						"POSITION":96,
						"NORMAL":97,
						"TEXCOORD_0":98
					},
					"indices":99,
					"material":5
				}
			]
		},
		{
			"name":"Cube.035",
			"primitives":[
				{
					"attributes":{
						"POSITION":100,
						"NORMAL":101,
						"TEXCOORD_0":102
					},
					"indices":51,
					"material":4
				}
			]
		},
		{
			"name":"Cube.030",
			"primitives":[
				{
					"attributes":{
						"POSITION":103,
						"NORMAL":104,
						"TEXCOORD_0":105
					},
					"indices":55,
					"material":4
				}
			]
		},
		{
			"name":"Cube.036",
			"primitives":[
				{
					"attributes":{
						"POSITION":106,
						"NORMAL":107,
						"TEXCOORD_0":108
					},
					"indices":83,
					"material":4
				}
			]
		},
		{
			"name":"Cube.031",
			"primitives":[
				{
					"attributes":{
						"POSITION":109,
						"NORMAL":110,
						"TEXCOORD_0":111
					},
					"indices":112,
					"material":4
				}
			]
		},
		{
			"name":"Cylinder.049",
			"primitives":[
				{
					"attributes":{
						"POSITION":113,
						"NORMAL":114,
						"TEXCOORD_0":115
					},
					"indices":116,
					"material":4
				}
			]
		},
		{
			"name":"Cylinder.050",
			"primitives":[
				{
					"attributes":{
						"POSITION":117,
						"NORMAL":118,
						"TEXCOORD_0":119
					},
					"indices":120,
					"material":5
				}
			]
		},
		{
			"name":"Cylinder.051",
			"primitives":[
				{
					"attributes":{
						"POSITION":121,
						"NORMAL":122,
						"TEXCOORD_0":123
					},
					"indices":124,
					"material":5
				}
			]
		},
		{
			"name":"Cylinder.052",
			"primitives":[
				{
					"attributes":{
						"POSITION":125,
						"NORMAL":126,
						"TEXCOORD_0":127
					},
					"indices":128,
					"material":6
				},
				{
					"attributes":{
						"POSITION":129,
						"NORMAL":130,
						"TEXCOORD_0":131
					},
					"indices":132,
					"material":7
				}
			]
		},
		{
			"name":"Cylinder.047",
			"primitives":[
				{
					"attributes":{
						"POSITION":133,
						"NORMAL":134,
						"TEXCOORD_0":135
					},
					"indices":136,
					"material":6
				}
			]
		},
		{
			"name":"Cube",
			"primitives":[
				{
					"attributes":{
						"POSITION":137,
						"NORMAL":138,
						"TEXCOORD_0":139
					},
					"indices":140,
					"material":8
				}
			]
		},
		{
			"name":"Cylinder.008",
			"primitives":[
				{
					"attributes":{
						"POSITION":141,
						"NORMAL":142,
						"TEXCOORD_0":143
					},
					"indices":144,
					"material":9
				}
			]
		},
		{
			"name":"Cylinder.010",
			"primitives":[
				{
					"attributes":{
						"POSITION":145,
						"NORMAL":146,
						"TEXCOORD_0":147
					},
					"indices":148,
					"material":9
				}
			]
		},
		{
			"name":"Cylinder.023",
			"primitives":[
				{
					"attributes":{
						"POSITION":149,
						"NORMAL":150,
						"TEXCOORD_0":151
					},
					"indices":152,
					"material":9
				}
			]
		},
		{
			"name":"Cube.014",
			"primitives":[
				{
					"attributes":{
						"POSITION":153,
						"NORMAL":154,
						"TEXCOORD_0":155
					},
					"indices":156,
					"material":10
				}
			]
		},
		{
			"name":"Cylinder.003",
			"primitives":[
				{
					"attributes":{
						"POSITION":157,
						"NORMAL":158,
						"TEXCOORD_0":159
					},
					"indices":160,
					"material":9
				}
			]
		},
		{
			"name":"Cylinder.024",
			"primitives":[
				{
					"attributes":{
						"POSITION":161,
						"NORMAL":162,
						"TEXCOORD_0":163
					},
					"indices":164,
					"material":9
				}
			]
		},
		{
			"name":"Cylinder.027",
			"primitives":[
				{
					"attributes":{
						"POSITION":165,
						"NORMAL":166,
						"TEXCOORD_0":167
					},
					"indices":168,
					"material":9
				}
			]
		},
		{
			"name":"Cylinder.026",
			"primitives":[
				{
					"attributes":{
						"POSITION":169,
						"NORMAL":170,
						"TEXCOORD_0":171
					},
					"indices":172,
					"material":9
				}
			]
		},
		{
			"name":"Cube.016",
			"primitives":[
				{
					"attributes":{
						"POSITION":173,
						"NORMAL":174,
						"TEXCOORD_0":175
					},
					"indices":176,
					"material":11
				},
				{
					"attributes":{
						"POSITION":177,
						"NORMAL":178,
						"TEXCOORD_0":179
					},
					"indices":180,
					"material":12
				},
				{
					"attributes":{
						"POSITION":181,
						"NORMAL":182,
						"TEXCOORD_0":183
					},
					"indices":184,
					"material":13
				},
				{
					"attributes":{
						"POSITION":185,
						"NORMAL":186,
						"TEXCOORD_0":187
					},
					"indices":188,
					"material":14
				}
			]
		},
		{
			"name":"Cube.003",
			"primitives":[
				{
					"attributes":{
						"POSITION":189,
						"NORMAL":190,
						"TEXCOORD_0":191
					},
					"indices":192,
					"material":15
				}
			]
		},
		{
			"name":"Cube.017",
			"primitives":[
				{
					"attributes":{
						"POSITION":193,
						"NORMAL":194,
						"TEXCOORD_0":195
					},
					"indices":196,
					"material":16
				}
			]
		},
		{
			"name":"Mesh.001",
			"primitives":[
				{
					"attributes":{
						"POSITION":197,
						"NORMAL":198,
						"TEXCOORD_0":199
					},
					"indices":200,
					"material":17
				},
				{
					"attributes":{
						"POSITION":201,
						"NORMAL":202,
						"TEXCOORD_0":203
					},
					"indices":204,
					"material":18
				}
			]
		}
	],
	"textures":[
		{
			"sampler":0,
			"source":0
		},
		{
			"sampler":0,
			"source":1
		},
		{
			"sampler":0,
			"source":2
		},
		{
			"sampler":0,
			"source":3
		},
		{
			"sampler":0,
			"source":4
		},
		{
			"sampler":0,
			"source":5
		},
		{
			"sampler":0,
			"source":6
		},
		{
			"sampler":0,
			"source":7
		},
		{
			"sampler":0,
			"source":8
		},
		{
			"sampler":0,
			"source":9
		},
		{
			"sampler":0,
			"source":10
		},
		{
			"sampler":0,
			"source":11
		},
		{
			"sampler":0,
			"source":12
		},
		{
			"sampler":0,
			"source":13
		},
		{
			"sampler":0,
			"source":14
		},
		{
			"sampler":0,
			"source":15
		},
		{
			"sampler":0,
			"source":16
		},
		{
			"sampler":0,
			"source":17
		},
		{
			"sampler":0,
			"source":18
		},
		{
			"sampler":0,
			"source":19
		},
		{
			"sampler":0,
			"source":20
		},
		{
			"sampler":0,
			"source":21
		},
		{
			"sampler":0,
			"source":22
		},
		{
			"sampler":0,
			"source":23
		},
		{
			"sampler":0,
			"source":24
		},
		{
			"sampler":0,
			"source":25
		},
		{
			"sampler":0,
			"source":26
		},
		{
			"sampler":0,
			"source":27
		},
		{
			"sampler":0,
			"source":28
		},
		{
			"sampler":0,
			"source":29
		},
		{
			"sampler":0,
			"source":30
		},
		{
			"sampler":0,
			"source":31
		},
		{
			"sampler":0,
			"source":32
		},
		{
			"sampler":0,
			"source":33
		},
		{
			"sampler":0,
			"source":34
		},
		{
			"sampler":0,
			"source":35
		}
	],
	"images":[
		{
			"mimeType":"image/png",
			"name":"spotlight",
			"uri":"spotlight.png"
		},
		{
			"mimeType":"image/png",
			"name":"cables",
			"uri":"cables.png"
		},
		{
			"mimeType":"image/png",
			"name":"head_normal",
			"uri":"head_normal.png"
		},
		{
			"mimeType":"image/png",
			"name":"head",
			"uri":"head.png"
		},
		{
			"mimeType":"image/png",
			"name":"head_ORM",
			"uri":"head_ORM.png"
		},
		{
			"mimeType":"image/png",
			"name":"head-shaft",
			"uri":"head-shaft.png"
		},
		{
			"mimeType":"image/png",
			"name":"metal-generic_normal",
			"uri":"metal-generic_normal.png"
		},
		{
			"mimeType":"image/png",
			"name":"metal-generic",
			"uri":"metal-generic.png"
		},
		{
			"mimeType":"image/png",
			"name":"arm-shaft",
			"uri":"arm-shaft.png"
		},
		{
			"mimeType":"image/png",
			"name":"paint-generic_normal",
			"uri":"paint-generic_normal.png"
		},
		{
			"mimeType":"image/png",
			"name":"paint-generic",
			"uri":"paint-generic.png"
		},
		{
			"mimeType":"image/png",
			"name":"paint-generic_ORM",
			"uri":"paint-generic_ORM.png"
		},
		{
			"mimeType":"image/png",
			"name":"arm-grid_normal",
			"uri":"arm-grid_normal.png"
		},
		{
			"mimeType":"image/png",
			"name":"arm-grid",
			"uri":"arm-grid.png"
		},
		{
			"mimeType":"image/png",
			"name":"body-top_normal",
			"uri":"body-top_normal.png"
		},
		{
			"mimeType":"image/png",
			"name":"body-top",
			"uri":"body-top.png"
		},
		{
			"mimeType":"image/png",
			"name":"body-top_ORM",
			"uri":"body-top_ORM.png"
		},
		{
			"mimeType":"image/png",
			"name":"shafts",
			"uri":"shafts.png"
		},
		{
			"mimeType":"image/png",
			"name":"shafts_ORM",
			"uri":"shafts_ORM.png"
		},
		{
			"mimeType":"image/png",
			"name":"treadmill",
			"uri":"treadmill.png"
		},
		{
			"mimeType":"image/png",
			"name":"body-back_normal",
			"uri":"body-back_normal.png"
		},
		{
			"mimeType":"image/png",
			"name":"body-back",
			"uri":"body-back.png"
		},
		{
			"mimeType":"image/png",
			"name":"body-back_ORM",
			"uri":"body-back_ORM.png"
		},
		{
			"mimeType":"image/png",
			"name":"plain-metal",
			"uri":"plain-metal.png"
		},
		{
			"mimeType":"image/png",
			"name":"body-back-paint",
			"uri":"body-back-paint.png"
		},
		{
			"mimeType":"image/png",
			"name":"body-back-metal",
			"uri":"body-back-metal.png"
		},
		{
			"mimeType":"image/png",
			"name":"ring_normal",
			"uri":"ring_normal.png"
		},
		{
			"mimeType":"image/png",
			"name":"ring",
			"uri":"ring.png"
		},
		{
			"mimeType":"image/png",
			"name":"ring_ORM",
			"uri":"ring_ORM.png"
		},
		{
			"mimeType":"image/png",
			"name":"body-bottom_normal",
			"uri":"body-bottom_normal.png"
		},
		{
			"mimeType":"image/png",
			"name":"body-bottom",
			"uri":"body-bottom.png"
		},
		{
			"mimeType":"image/png",
			"name":"body-bottom_ORM",
			"uri":"body-bottom_ORM.png"
		},
		{
			"mimeType":"image/png",
			"name":"head-lens",
			"uri":"head-lens.png"
		},
		{
			"mimeType":"image/png",
			"name":"head-lens-ORM",
			"uri":"head-lens-ORM.png"
		},
		{
			"mimeType":"image/png",
			"name":"lens",
			"uri":"lens.png"
		},
		{
			"mimeType":"image/png",
			"name":"lens_ORM",
			"uri":"lens_ORM.png"
		}
	],
	"accessors":[
		{
			"bufferView":0,
			"componentType":5126,
			"count":841,
			"max":[
				5.941699028015137,
				0.02000005915760994,
				5.941699028015137
			],
			"min":[
				-5.941699028015137,
				-24.344327926635742,
				-5.9416985511779785
			],
			"type":"VEC3"
		},
		{
			"bufferView":1,
			"componentType":5126,
			"count":841,
			"type":"VEC3"
		},
		{
			"bufferView":2,
			"componentType":5126,
			"count":841,
			"type":"VEC2"
		},
		{
			"bufferView":3,
			"componentType":5123,
			"count":4224,
			"type":"SCALAR"
		},
		{
			"bufferView":4,
			"componentType":5126,
			"count":169,
			"max":[
				0.49945783615112305,
				5.117607593536377,
				0.17191532254219055
			],
			"min":[
				-0.08073973655700684,
				4.584001541137695,
				-0.47072362899780273
			],
			"type":"VEC3"
		},
		{
			"bufferView":5,
			"componentType":5126,
			"count":169,
			"type":"VEC3"
		},
		{
			"bufferView":6,
			"componentType":5126,
			"count":169,
			"type":"VEC2"
		},
		{
			"bufferView":7,
			"componentType":5123,
			"count":864,
			"type":"SCALAR"
		},
		{
			"bufferView":8,
			"componentType":5126,
			"count":195,
			"max":[
				-0.04946476221084595,
				5.016294002532959,
				0.18541181087493896
			],
			"min":[
				-0.6937574148178101,
				4.69095516204834,
				-0.46362316608428955
			],
			"type":"VEC3"
		},
		{
			"bufferView":9,
			"componentType":5126,
			"count":195,
			"type":"VEC3"
		},
		{
			"bufferView":10,
			"componentType":5126,
			"count":195,
			"type":"VEC2"
		},
		{
			"bufferView":11,
			"componentType":5123,
			"count":1008,
			"type":"SCALAR"
		},
		{
			"bufferView":12,
			"componentType":5126,
			"count":5582,
			"max":[
				1.180228352546692,
				5.970557689666748,
				1.4630001783370972
			],
			"min":[
				-1.2342569828033447,
				4.566877365112305,
				-0.5369560718536377
			],
			"type":"VEC3"
		},
		{
			"bufferView":13,
			"componentType":5126,
			"count":5582,
			"type":"VEC3"
		},
		{
			"bufferView":14,
			"componentType":5126,
			"count":5582,
			"type":"VEC2"
		},
		{
			"bufferView":15,
			"componentType":5123,
			"count":21948,
			"type":"SCALAR"
		},
		{
			"bufferView":16,
			"componentType":5126,
			"count":1081,
			"max":[
				0.14453193545341492,
				5.391363620758057,
				0.7408502697944641
			],
			"min":[
				-0.2524663209915161,
				3.5167081356048584,
				-0.5528419613838196
			],
			"type":"VEC3"
		},
		{
			"bufferView":17,
			"componentType":5126,
			"count":1081,
			"type":"VEC3"
		},
		{
			"bufferView":18,
			"componentType":5126,
			"count":1081,
			"type":"VEC2"
		},
		{
			"bufferView":19,
			"componentType":5123,
			"count":3876,
			"type":"SCALAR"
		},
		{
			"bufferView":20,
			"componentType":5126,
			"count":14,
			"max":[
				-2.978874683380127,
				6.132943153381348,
				2.4845240116119385
			],
			"min":[
				-3.3611679077148438,
				5.810969352722168,
				2.0503244400024414
			],
			"type":"VEC3"
		},
		{
			"bufferView":21,
			"componentType":5126,
			"count":14,
			"type":"VEC3"
		},
		{
			"bufferView":22,
			"componentType":5126,
			"count":14,
			"type":"VEC2"
		},
		{
			"bufferView":23,
			"componentType":5123,
			"count":36,
			"type":"SCALAR"
		},
		{
			"bufferView":24,
			"componentType":5126,
			"count":120,
			"max":[
				-2.8499369621276855,
				6.2675957679748535,
				2.186748504638672
			],
			"min":[
				-3.292900562286377,
				5.8953328132629395,
				1.6466927528381348
			],
			"type":"VEC3"
		},
		{
			"bufferView":25,
			"componentType":5126,
			"count":120,
			"type":"VEC3"
		},
		{
			"bufferView":26,
			"componentType":5126,
			"count":120,
			"type":"VEC2"
		},
		{
			"bufferView":27,
			"componentType":5123,
			"count":324,
			"type":"SCALAR"
		},
		{
			"bufferView":28,
			"componentType":5126,
			"count":77,
			"max":[
				-2.9599123001098633,
				6.182154655456543,
				1.853598713874817
			],
			"min":[
				-3.113783836364746,
				6.038267135620117,
				1.7115081548690796
			],
			"type":"VEC3"
		},
		{
			"bufferView":29,
			"componentType":5126,
			"count":77,
			"type":"VEC3"
		},
		{
			"bufferView":30,
			"componentType":5126,
			"count":77,
			"type":"VEC2"
		},
		{
			"bufferView":31,
			"componentType":5123,
			"count":324,
			"type":"SCALAR"
		},
		{
			"bufferView":32,
			"componentType":5126,
			"count":103,
			"max":[
				-2.979574680328369,
				6.293902397155762,
				1.7599501609802246
			],
			"min":[
				-3.101608991622925,
				6.089513301849365,
				1.5603612661361694
			],
			"type":"VEC3"
		},
		{
			"bufferView":33,
			"componentType":5126,
			"count":103,
			"type":"VEC3"
		},
		{
			"bufferView":34,
			"componentType":5126,
			"count":103,
			"type":"VEC2"
		},
		{
			"bufferView":35,
			"componentType":5123,
			"count":408,
			"type":"SCALAR"
		},
		{
			"bufferView":36,
			"componentType":5126,
			"count":52,
			"max":[
				-2.844264030456543,
				6.383506774902344,
				1.7503936290740967
			],
			"min":[
				-3.236100435256958,
				6.07365083694458,
				1.4992904663085938
			],
			"type":"VEC3"
		},
		{
			"bufferView":37,
			"componentType":5126,
			"count":52,
			"type":"VEC3"
		},
		{
			"bufferView":38,
			"componentType":5126,
			"count":52,
			"type":"VEC2"
		},
		{
			"bufferView":39,
			"componentType":5123,
			"count":180,
			"type":"SCALAR"
		},
		{
			"bufferView":40,
			"componentType":5126,
			"count":14,
			"max":[
				-3.0037612915039062,
				7.135513782501221,
				2.0163989067077637
			],
			"min":[
				-3.6114697456359863,
				6.554280757904053,
				1.702714204788208
			],
			"type":"VEC3"
		},
		{
			"bufferView":41,
			"componentType":5126,
			"count":14,
			"type":"VEC3"
		},
		{
			"bufferView":42,
			"componentType":5126,
			"count":14,
			"type":"VEC2"
		},
		{
			"bufferView":43,
			"componentType":5123,
			"count":36,
			"type":"SCALAR"
		},
		{
			"bufferView":44,
			"componentType":5126,
			"count":153,
			"max":[
				-2.67746639251709,
				6.767907619476318,
				1.8953685760498047
			],
			"min":[
				-3.28762149810791,
				6.205379486083984,
				1.5943814516067505
			],
			"type":"VEC3"
		},
		{
			"bufferView":45,
			"componentType":5126,
			"count":153,
			"type":"VEC3"
		},
		{
			"bufferView":46,
			"componentType":5126,
			"count":153,
			"type":"VEC2"
		},
		{
			"bufferView":47,
			"componentType":5123,
			"count":468,
			"type":"SCALAR"
		},
		{
			"bufferView":48,
			"componentType":5126,
			"count":14,
			"max":[
				-3.3260579109191895,
				6.9135236740112305,
				1.8568998575210571
			],
			"min":[
				-3.9337663650512695,
				6.3322906494140625,
				1.5432151556015015
			],
			"type":"VEC3"
		},
		{
			"bufferView":49,
			"componentType":5126,
			"count":14,
			"type":"VEC3"
		},
		{
			"bufferView":50,
			"componentType":5126,
			"count":14,
			"type":"VEC2"
		},
		{
			"bufferView":51,
			"componentType":5123,
			"count":36,
			"type":"SCALAR"
		},
		{
			"bufferView":52,
			"componentType":5126,
			"count":153,
			"max":[
				-3.0623202323913574,
				6.545915126800537,
				1.7358675003051758
			],
			"min":[
				-3.6099226474761963,
				5.94030237197876,
				1.4039239883422852
			],
			"type":"VEC3"
		},
		{
			"bufferView":53,
			"componentType":5126,
			"count":153,
			"type":"VEC3"
		},
		{
			"bufferView":54,
			"componentType":5126,
			"count":153,
			"type":"VEC2"
		},
		{
			"bufferView":55,
			"componentType":5123,
			"count":468,
			"type":"SCALAR"
		},
		{
			"bufferView":56,
			"componentType":5126,
			"count":246,
			"max":[
				-2.8263111114501953,
				6.335644721984863,
				1.7204251289367676
			],
			"min":[
				-3.156996011734009,
				5.999383449554443,
				1.456383466720581
			],
			"type":"VEC3"
		},
		{
			"bufferView":57,
			"componentType":5126,
			"count":246,
			"type":"VEC3"
		},
		{
			"bufferView":58,
			"componentType":5126,
			"count":246,
			"type":"VEC2"
		},
		{
			"bufferView":59,
			"componentType":5123,
			"count":960,
			"type":"SCALAR"
		},
		{
			"bufferView":60,
			"componentType":5126,
			"count":68,
			"max":[
				-2.292896032333374,
				6.179795265197754,
				1.6830339431762695
			],
			"min":[
				-3.050251007080078,
				4.947553634643555,
				0.9009214043617249
			],
			"type":"VEC3"
		},
		{
			"bufferView":61,
			"componentType":5126,
			"count":68,
			"type":"VEC3"
		},
		{
			"bufferView":62,
			"componentType":5126,
			"count":68,
			"type":"VEC2"
		},
		{
			"bufferView":63,
			"componentType":5123,
			"count":276,
			"type":"SCALAR"
		},
		{
			"bufferView":64,
			"componentType":5126,
			"count":68,
			"max":[
				-1.8758654594421387,
				5.469959259033203,
				1.3486878871917725
			],
			"min":[
				-2.7428107261657715,
				4.101335048675537,
				0.4567739963531494
			],
			"type":"VEC3"
		},
		{
			"bufferView":65,
			"componentType":5126,
			"count":68,
			"type":"VEC3"
		},
		{
			"bufferView":66,
			"componentType":5126,
			"count":68,
			"type":"VEC2"
		},
		{
			"bufferView":67,
			"componentType":5123,
			"count":276,
			"type":"SCALAR"
		},
		{
			"bufferView":68,
			"componentType":5126,
			"count":136,
			"max":[
				-1.3664155006408691,
				4.630286693572998,
				0.9571114182472229
			],
			"min":[
				-2.4082531929016113,
				2.9825761318206787,
				-0.1722036600112915
			],
			"type":"VEC3"
		},
		{
			"bufferView":69,
			"componentType":5126,
			"count":136,
			"type":"VEC3"
		},
		{
			"bufferView":70,
			"componentType":5126,
			"count":136,
			"type":"VEC2"
		},
		{
			"bufferView":71,
			"componentType":5123,
			"count":540,
			"type":"SCALAR"
		},
		{
			"bufferView":72,
			"componentType":5126,
			"count":20,
			"max":[
				-1.6781114339828491,
				4.573496341705322,
				0.8644019961357117
			],
			"min":[
				-2.4082531929016113,
				2.9825761318206787,
				-0.1722036600112915
			],
			"type":"VEC3"
		},
		{
			"bufferView":73,
			"componentType":5126,
			"count":20,
			"type":"VEC3"
		},
		{
			"bufferView":74,
			"componentType":5126,
			"count":20,
			"type":"VEC2"
		},
		{
			"bufferView":75,
			"componentType":5123,
			"count":72,
			"type":"SCALAR"
		},
		{
			"bufferView":76,
			"componentType":5126,
			"count":518,
			"max":[
				-1.125901699066162,
				3.4626636505126953,
				0.39564722776412964
			],
			"min":[
				-1.8028000593185425,
				2.8840653896331787,
				-0.200993150472641
			],
			"type":"VEC3"
		},
		{
			"bufferView":77,
			"componentType":5126,
			"count":518,
			"type":"VEC3"
		},
		{
			"bufferView":78,
			"componentType":5126,
			"count":518,
			"type":"VEC2"
		},
		{
			"bufferView":79,
			"componentType":5123,
			"count":2208,
			"type":"SCALAR"
		},
		{
			"bufferView":80,
			"componentType":5126,
			"count":14,
			"max":[
				3.468775510787964,
				6.396121025085449,
				2.41640305519104
			],
			"min":[
				3.207688570022583,
				6.009929180145264,
				2.064629316329956
			],
			"type":"VEC3"
		},
		{
			"bufferView":81,
			"componentType":5126,
			"count":14,
			"type":"VEC3"
		},
		{
			"bufferView":82,
			"componentType":5126,
			"count":14,
			"type":"VEC2"
		},
		{
			"bufferView":83,
			"componentType":5123,
			"count":36,
			"type":"SCALAR"
		},
		{
			"bufferView":84,
			"componentType":5126,
			"count":120,
			"max":[
				3.4479873180389404,
				6.345958232879639,
				2.1005847454071045
			],
			"min":[
				3.117375135421753,
				5.90981388092041,
				1.6416971683502197
			],
			"type":"VEC3"
		},
		{
			"bufferView":85,
			"componentType":5126,
			"count":120,
			"type":"VEC3"
		},
		{
			"bufferView":86,
			"componentType":5126,
			"count":120,
			"type":"VEC2"
		},
		{
			"bufferView":87,
			"componentType":5123,
			"count":324,
			"type":"SCALAR"
		},
		{
			"bufferView":88,
			"componentType":5126,
			"count":77,
			"max":[
				3.3406503200531006,
				6.181172847747803,
				1.807521939277649
			],
			"min":[
				3.2032785415649414,
				6.023288726806641,
				1.6567870378494263
			],
			"type":"VEC3"
		},
		{
			"bufferView":89,
			"componentType":5126,
			"count":77,
			"type":"VEC3"
		},
		{
			"bufferView":90,
			"componentType":5126,
			"count":77,
			"type":"VEC2"
		},
		{
			"bufferView":91,
			"componentType":5123,
			"count":324,
			"type":"SCALAR"
		},
		{
			"bufferView":92,
			"componentType":5126,
			"count":103,
			"max":[
				3.3866002559661865,
				6.168095111846924,
				1.6972274780273438
			],
			"min":[
				3.2234394550323486,
				6.049412250518799,
				1.4785497188568115
			],
			"type":"VEC3"
		},
		{
			"bufferView":93,
			"componentType":5126,
			"count":103,
			"type":"VEC3"
		},
		{
			"bufferView":94,
			"componentType":5126,
			"count":103,
			"type":"VEC2"
		},
		{
			"bufferView":95,
			"componentType":5123,
			"count":408,
			"type":"SCALAR"
		},
		{
			"bufferView":96,
			"componentType":5126,
			"count":52,
			"max":[
				3.4741625785827637,
				6.317805290222168,
				1.6091066598892212
			],
			"min":[
				3.164816379547119,
				5.903754234313965,
				1.4727754592895508
			],
			"type":"VEC3"
		},
		{
			"bufferView":97,
			"componentType":5126,
			"count":52,
			"type":"VEC3"
		},
		{
			"bufferView":98,
			"componentType":5126,
			"count":52,
			"type":"VEC2"
		},
		{
			"bufferView":99,
			"componentType":5123,
			"count":180,
			"type":"SCALAR"
		},
		{
			"bufferView":100,
			"componentType":5126,
			"count":14,
			"max":[
				4.0188469886779785,
				6.929997444152832,
				1.9356508255004883
			],
			"min":[
				3.430030345916748,
				6.352575778961182,
				1.642111897468567
			],
			"type":"VEC3"
		},
		{
			"bufferView":101,
			"componentType":5126,
			"count":14,
			"type":"VEC3"
		},
		{
			"bufferView":102,
			"componentType":5126,
			"count":14,
			"type":"VEC2"
		},
		{
			"bufferView":103,
			"componentType":5126,
			"count":153,
			"max":[
				3.642258882522583,
				6.669617652893066,
				1.7295773029327393
			],
			"min":[
				3.0305755138397217,
				6.15241003036499,
				1.420678973197937
			],
			"type":"VEC3"
		},
		{
			"bufferView":104,
			"componentType":5126,
			"count":153,
			"type":"VEC3"
		},
		{
			"bufferView":105,
			"componentType":5126,
			"count":153,
			"type":"VEC2"
		},
		{
			"bufferView":106,
			"componentType":5126,
			"count":14,
			"max":[
				4.241146564483643,
				6.572755336761475,
				1.9750980138778687
			],
			"min":[
				3.652329921722412,
				5.995332717895508,
				1.6815590858459473
			],
			"type":"VEC3"
		},
		{
			"bufferView":107,
			"componentType":5126,
			"count":14,
			"type":"VEC3"
		},
		{
			"bufferView":108,
			"componentType":5126,
			"count":14,
			"type":"VEC2"
		},
		{
			"bufferView":109,
			"componentType":5126,
			"count":153,
			"max":[
				3.8645617961883545,
				6.312371253967285,
				1.769025206565857
			],
			"min":[
				3.2960238456726074,
				5.725828647613525,
				1.4677834510803223
			],
			"type":"VEC3"
		},
		{
			"bufferView":110,
			"componentType":5126,
			"count":153,
			"type":"VEC3"
		},
		{
			"bufferView":111,
			"componentType":5126,
			"count":153,
			"type":"VEC2"
		},
		{
			"bufferView":112,
			"componentType":5123,
			"count":468,
			"type":"SCALAR"
		},
		{
			"bufferView":113,
			"componentType":5126,
			"count":246,
			"max":[
				3.4260921478271484,
				6.226234436035156,
				1.614919662475586
			],
			"min":[
				3.0882110595703125,
				5.9106831550598145,
				1.3665164709091187
			],
			"type":"VEC3"
		},
		{
			"bufferView":114,
			"componentType":5126,
			"count":246,
			"type":"VEC3"
		},
		{
			"bufferView":115,
			"componentType":5126,
			"count":246,
			"type":"VEC2"
		},
		{
			"bufferView":116,
			"componentType":5123,
			"count":960,
			"type":"SCALAR"
		},
		{
			"bufferView":117,
			"componentType":5126,
			"count":68,
			"max":[
				3.313518762588501,
				6.091204643249512,
				1.5900191068649292
			],
			"min":[
				2.4677391052246094,
				4.87996768951416,
				0.8349817395210266
			],
			"type":"VEC3"
		},
		{
			"bufferView":118,
			"componentType":5126,
			"count":68,
			"type":"VEC3"
		},
		{
			"bufferView":119,
			"componentType":5126,
			"count":68,
			"type":"VEC2"
		},
		{
			"bufferView":120,
			"componentType":5123,
			"count":276,
			"type":"SCALAR"
		},
		{
			"bufferView":121,
			"componentType":5126,
			"count":68,
			"max":[
				2.9372613430023193,
				5.406434059143066,
				1.280468463897705
			],
			"min":[
				1.9756807088851929,
				4.05854606628418,
				0.41678667068481445
			],
			"type":"VEC3"
		},
		{
			"bufferView":122,
			"componentType":5126,
			"count":68,
			"type":"VEC3"
		},
		{
			"bufferView":123,
			"componentType":5126,
			"count":68,
			"type":"VEC2"
		},
		{
			"bufferView":124,
			"componentType":5123,
			"count":276,
			"type":"SCALAR"
		},
		{
			"bufferView":125,
			"componentType":5126,
			"count":136,
			"max":[
				2.525759220123291,
				4.593060493469238,
				0.9136598110198975
			],
			"min":[
				1.3709447383880615,
				2.9681859016418457,
				-0.1808302402496338
			],
			"type":"VEC3"
		},
		{
			"bufferView":126,
			"componentType":5126,
			"count":136,
			"type":"VEC3"
		},
		{
			"bufferView":127,
			"componentType":5126,
			"count":136,
			"type":"VEC2"
		},
		{
			"bufferView":128,
			"componentType":5123,
			"count":540,
			"type":"SCALAR"
		},
		{
			"bufferView":129,
			"componentType":5126,
			"count":20,
			"max":[
				2.525759220123291,
				4.5209879875183105,
				0.8049396276473999
			],
			"min":[
				1.6602826118469238,
				2.9681859016418457,
				-0.1808302402496338
			],
			"type":"VEC3"
		},
		{
			"bufferView":130,
			"componentType":5126,
			"count":20,
			"type":"VEC3"
		},
		{
			"bufferView":131,
			"componentType":5126,
			"count":20,
			"type":"VEC2"
		},
		{
			"bufferView":132,
			"componentType":5123,
			"count":72,
			"type":"SCALAR"
		},
		{
			"bufferView":133,
			"componentType":5126,
			"count":518,
			"max":[
				1.80339777469635,
				3.4638588428497314,
				0.39548197388648987
			],
			"min":[
				1.1349232196807861,
				2.8804616928100586,
				-0.2032776176929474
			],
			"type":"VEC3"
		},
		{
			"bufferView":134,
			"componentType":5126,
			"count":518,
			"type":"VEC3"
		},
		{
			"bufferView":135,
			"componentType":5126,
			"count":518,
			"type":"VEC2"
		},
		{
			"bufferView":136,
			"componentType":5123,
			"count":2208,
			"type":"SCALAR"
		},
		{
			"bufferView":137,
			"componentType":5126,
			"count":1019,
			"max":[
				1.2895125150680542,
				3.6616570949554443,
				1.5866940021514893
			],
			"min":[
				-1.2895103693008423,
				1.1063724756240845,
				-1.424835205078125
			],
			"type":"VEC3"
		},
		{
			"bufferView":138,
			"componentType":5126,
			"count":1019,
			"type":"VEC3"
		},
		{
			"bufferView":139,
			"componentType":5126,
			"count":1019,
			"type":"VEC2"
		},
		{
			"bufferView":140,
			"componentType":5123,
			"count":4296,
			"type":"SCALAR"
		},
		{
			"bufferView":141,
			"componentType":5126,
			"count":896,
			"max":[
				2.0232276916503906,
				1.2335562705993652,
				-0.11929859966039658
			],
			"min":[
				-2.0232253074645996,
				0.008833463303744793,
				-1.344021201133728
			],
			"type":"VEC3"
		},
		{
			"bufferView":142,
			"componentType":5126,
			"count":896,
			"type":"VEC3"
		},
		{
			"bufferView":143,
			"componentType":5126,
			"count":896,
			"type":"VEC2"
		},
		{
			"bufferView":144,
			"componentType":5123,
			"count":2304,
			"type":"SCALAR"
		},
		{
			"bufferView":145,
			"componentType":5126,
			"count":46592,
			"max":[
				2.1401917934417725,
				1.1738064289093018,
				1.402097463607788
			],
			"min":[
				-2.1401894092559814,
				0.06858314573764801,
				-1.2842713594436646
			],
			"type":"VEC3"
		},
		{
			"bufferView":146,
			"componentType":5126,
			"count":46592,
			"type":"VEC3"
		},
		{
			"bufferView":147,
			"componentType":5126,
			"count":46592,
			"type":"VEC2"
		},
		{
			"bufferView":148,
			"componentType":5123,
			"count":141216,
			"type":"SCALAR"
		},
		{
			"bufferView":149,
			"componentType":5126,
			"count":1016,
			"max":[
				1.9304319620132446,
				0.7968835830688477,
				1.1440740823745728
			],
			"min":[
				-1.9304299354553223,
				0.3286747634410858,
				-0.9073481559753418
			],
			"type":"VEC3"
		},
		{
			"bufferView":150,
			"componentType":5126,
			"count":1016,
			"type":"VEC3"
		},
		{
			"bufferView":151,
			"componentType":5126,
			"count":1016,
			"type":"VEC2"
		},
		{
			"bufferView":152,
			"componentType":5123,
			"count":3984,
			"type":"SCALAR"
		},
		{
			"bufferView":153,
			"componentType":5126,
			"count":22836,
			"max":[
				2.0358033180236816,
				1.9485101699829102,
				1.477148175239563
			],
			"min":[
				-2.0358009338378906,
				-0.008814128115773201,
				-1.3621702194213867
			],
			"type":"VEC3"
		},
		{
			"bufferView":154,
			"componentType":5126,
			"count":22836,
			"type":"VEC3"
		},
		{
			"bufferView":155,
			"componentType":5126,
			"count":22836,
			"type":"VEC2"
		},
		{
			"bufferView":156,
			"componentType":5123,
			"count":44376,
			"type":"SCALAR"
		},
		{
			"bufferView":157,
			"componentType":5126,
			"count":27360,
			"max":[
				2.0369231700897217,
				1.8700240850448608,
				0.8810060620307922
			],
			"min":[
				-2.0369207859039307,
				0.9782412052154541,
				-0.45401448011398315
			],
			"type":"VEC3"
		},
		{
			"bufferView":158,
			"componentType":5126,
			"count":27360,
			"type":"VEC3"
		},
		{
			"bufferView":159,
			"componentType":5126,
			"count":27360,
			"type":"VEC2"
		},
		{
			"bufferView":160,
			"componentType":5123,
			"count":87840,
			"type":"SCALAR"
		},
		{
			"bufferView":161,
			"componentType":5126,
			"count":1306,
			"max":[
				1.9178026914596558,
				1.7419902086257935,
				0.75238037109375
			],
			"min":[
				-1.9178001880645752,
				1.106865406036377,
				-0.3259817659854889
			],
			"type":"VEC3"
		},
		{
			"bufferView":162,
			"componentType":5126,
			"count":1306,
			"type":"VEC3"
		},
		{
			"bufferView":163,
			"componentType":5126,
			"count":1306,
			"type":"VEC2"
		},
		{
			"bufferView":164,
			"componentType":5123,
			"count":5496,
			"type":"SCALAR"
		},
		{
			"bufferView":165,
			"componentType":5126,
			"count":2498,
			"max":[
				1.6226656436920166,
				1.5119068622589111,
				0.3724389374256134
			],
			"min":[
				-1.6226634979248047,
				0.3838726580142975,
				0.09465082734823227
			],
			"type":"VEC3"
		},
		{
			"bufferView":166,
			"componentType":5126,
			"count":2498,
			"type":"VEC3"
		},
		{
			"bufferView":167,
			"componentType":5126,
			"count":2498,
			"type":"VEC2"
		},
		{
			"bufferView":168,
			"componentType":5123,
			"count":9384,
			"type":"SCALAR"
		},
		{
			"bufferView":169,
			"componentType":5126,
			"count":360,
			"max":[
				-0.7680620551109314,
				1.3361101150512695,
				0.36765792965888977
			],
			"min":[
				-1.6148072481155396,
				0.5594620704650879,
				0.09943123906850815
			],
			"type":"VEC3"
		},
		{
			"bufferView":170,
			"componentType":5126,
			"count":360,
			"type":"VEC3"
		},
		{
			"bufferView":171,
			"componentType":5126,
			"count":360,
			"type":"VEC2"
		},
		{
			"bufferView":172,
			"componentType":5123,
			"count":708,
			"type":"SCALAR"
		},
		{
			"bufferView":173,
			"componentType":5126,
			"count":1580,
			"max":[
				1.1295490264892578,
				3.5316121578216553,
				1.5457428693771362
			],
			"min":[
				-1.1889891624450684,
				1.1749308109283447,
				-1.482848048210144
			],
			"type":"VEC3"
		},
		{
			"bufferView":174,
			"componentType":5126,
			"count":1580,
			"type":"VEC3"
		},
		{
			"bufferView":175,
			"componentType":5126,
			"count":1580,
			"type":"VEC2"
		},
		{
			"bufferView":176,
			"componentType":5123,
			"count":4386,
			"type":"SCALAR"
		},
		{
			"bufferView":177,
			"componentType":5126,
			"count":136,
			"max":[
				0.7893123030662537,
				2.490335464477539,
				-1.191206932067871
			],
			"min":[
				-0.8487527966499329,
				1.6685837507247925,
				-1.3348711729049683
			],
			"type":"VEC3"
		},
		{
			"bufferView":178,
			"componentType":5126,
			"count":136,
			"type":"VEC3"
		},
		{
			"bufferView":179,
			"componentType":5126,
			"count":136,
			"type":"VEC2"
		},
		{
			"bufferView":180,
			"componentType":5123,
			"count":384,
			"type":"SCALAR"
		},
		{
			"bufferView":181,
			"componentType":5126,
			"count":306,
			"max":[
				0.83739173412323,
				2.3795416355133057,
				-1.143127202987671
			],
			"min":[
				-0.8968322277069092,
				1.7148199081420898,
				-1.3829506635665894
			],
			"type":"VEC3"
		},
		{
			"bufferView":182,
			"componentType":5126,
			"count":306,
			"type":"VEC3"
		},
		{
			"bufferView":183,
			"componentType":5126,
			"count":306,
			"type":"VEC2"
		},
		{
			"bufferView":184,
			"componentType":5123,
			"count":960,
			"type":"SCALAR"
		},
		{
			"bufferView":185,
			"componentType":5126,
			"count":1072,
			"max":[
				0.9155807495117188,
				2.797375202178955,
				-1.163520336151123
			],
			"min":[
				-0.9750211238861084,
				1.3519366979599,
				-1.3639013767242432
			],
			"type":"VEC3"
		},
		{
			"bufferView":186,
			"componentType":5126,
			"count":1072,
			"type":"VEC3"
		},
		{
			"bufferView":187,
			"componentType":5126,
			"count":1072,
			"type":"VEC2"
		},
		{
			"bufferView":188,
			"componentType":5123,
			"count":3408,
			"type":"SCALAR"
		},
		{
			"bufferView":189,
			"componentType":5126,
			"count":412,
			"max":[
				1.316735029220581,
				3.665426731109619,
				1.6541125774383545
			],
			"min":[
				-1.3229731321334839,
				2.636453866958618,
				-0.950847327709198
			],
			"type":"VEC3"
		},
		{
			"bufferView":190,
			"componentType":5126,
			"count":412,
			"type":"VEC3"
		},
		{
			"bufferView":191,
			"componentType":5126,
			"count":412,
			"type":"VEC2"
		},
		{
			"bufferView":192,
			"componentType":5123,
			"count":1362,
			"type":"SCALAR"
		},
		{
			"bufferView":193,
			"componentType":5126,
			"count":88,
			"max":[
				1.3153716325759888,
				2.7418086528778076,
				1.640088438987732
			],
			"min":[
				-1.3153696060180664,
				1.0764567852020264,
				-0.9543008208274841
			],
			"type":"VEC3"
		},
		{
			"bufferView":194,
			"componentType":5126,
			"count":88,
			"type":"VEC3"
		},
		{
			"bufferView":195,
			"componentType":5126,
			"count":88,
			"type":"VEC2"
		},
		{
			"bufferView":196,
			"componentType":5123,
			"count":240,
			"type":"SCALAR"
		},
		{
			"bufferView":197,
			"componentType":5126,
			"count":872,
			"max":[
				0.8566308617591858,
				5.877017974853516,
				1.4161396026611328
			],
			"min":[
				-0.8755269050598145,
				5.02534818649292,
				1.1718779802322388
			],
			"type":"VEC3"
		},
		{
			"bufferView":198,
			"componentType":5126,
			"count":872,
			"type":"VEC3"
		},
		{
			"bufferView":199,
			"componentType":5126,
			"count":872,
			"type":"VEC2"
		},
		{
			"bufferView":200,
			"componentType":5123,
			"count":3252,
			"type":"SCALAR"
		},
		{
			"bufferView":201,
			"componentType":5126,
			"count":192,
			"max":[
				0.8346938490867615,
				5.849247932434082,
				1.372556447982788
			],
			"min":[
				-0.8525479435920715,
				5.0604376792907715,
				1.2551406621932983
			],
			"type":"VEC3"
		},
		{
			"bufferView":202,
			"componentType":5126,
			"count":192,
			"type":"VEC3"
		},
		{
			"bufferView":203,
			"componentType":5126,
			"count":192,
			"type":"VEC2"
		},
		{
			"bufferView":204,
			"componentType":5123,
			"count":948,
			"type":"SCALAR"
		}
	],
	"bufferViews":[
		{
			"buffer":0,
			"byteLength":10092,
			"byteOffset":0,
			"target":34962
		},
		{
			"buffer":0,
			"byteLength":10092,
			"byteOffset":10092,
			"target":34962
		},
		{
			"buffer":0,
			"byteLength":6728,
			"byteOffset":20184,
			"target":34962
		},
		{
			"buffer":0,
			"byteLength":8448,
			"byteOffset":26912,
			"target":34963
		},
		{
			"buffer":0,
			"byteLength":2028,
			"byteOffset":35360,
			"target":34962
		},
		{
			"buffer":0,
			"byteLength":2028,
			"byteOffset":37388,
			"target":34962
		},
		{
			"buffer":0,
			"byteLength":1352,
			"byteOffset":39416,
			"target":34962
		},
		{
			"buffer":0,
			"byteLength":1728,
			"byteOffset":40768,
			"target":34963
		},
		{
			"buffer":0,
			"byteLength":2340,
			"byteOffset":42496,
			"target":34962
		},
		{
			"buffer":0,
			"byteLength":2340,
			"byteOffset":44836,
			"target":34962
		},
		{
			"buffer":0,
			"byteLength":1560,
			"byteOffset":47176,
			"target":34962
		},
		{
			"buffer":0,
			"byteLength":2016,
			"byteOffset":48736,
			"target":34963
		},
		{
			"buffer":0,
			"byteLength":66984,
			"byteOffset":50752,
			"target":34962
		},
		{
			"buffer":0,
			"byteLength":66984,
			"byteOffset":117736,
			"target":34962
		},
		{
			"buffer":0,
			"byteLength":44656,
			"byteOffset":184720,
			"target":34962
		},
		{
			"buffer":0,
			"byteLength":43896,
			"byteOffset":229376,
			"target":34963
		},
		{
			"buffer":0,
			"byteLength":12972,
			"byteOffset":273272,
			"target":34962
		},
		{
			"buffer":0,
			"byteLength":12972,
			"byteOffset":286244,
			"target":34962
		},
		{
			"buffer":0,
			"byteLength":8648,
			"byteOffset":299216,
			"target":34962
		},
		{
			"buffer":0,
			"byteLength":7752,
			"byteOffset":307864,
			"target":34963
		},
		{
			"buffer":0,
			"byteLength":168,
			"byteOffset":315616,
			"target":34962
		},
		{
			"buffer":0,
			"byteLength":168,
			"byteOffset":315784,
			"target":34962
		},
		{
			"buffer":0,
			"byteLength":112,
			"byteOffset":315952,
			"target":34962
		},
		{
			"buffer":0,
			"byteLength":72,
			"byteOffset":316064,
			"target":34963
		},
		{
			"buffer":0,
			"byteLength":1440,
			"byteOffset":316136,
			"target":34962
		},
		{
			"buffer":0,
			"byteLength":1440,
			"byteOffset":317576,
			"target":34962
		},
		{
			"buffer":0,
			"byteLength":960,
			"byteOffset":319016,
			"target":34962
		},
		{
			"buffer":0,
			"byteLength":648,
			"byteOffset":319976,
			"target":34963
		},
		{
			"buffer":0,
			"byteLength":924,
			"byteOffset":320624,
			"target":34962
		},
		{
			"buffer":0,
			"byteLength":924,
			"byteOffset":321548,
			"target":34962
		},
		{
			"buffer":0,
			"byteLength":616,
			"byteOffset":322472,
			"target":34962
		},
		{
			"buffer":0,
			"byteLength":648,
			"byteOffset":323088,
			"target":34963
		},
		{
			"buffer":0,
			"byteLength":1236,
			"byteOffset":323736,
			"target":34962
		},
		{
			"buffer":0,
			"byteLength":1236,
			"byteOffset":324972,
			"target":34962
		},
		{
			"buffer":0,
			"byteLength":824,
			"byteOffset":326208,
			"target":34962
		},
		{
			"buffer":0,
			"byteLength":816,
			"byteOffset":327032,
			"target":34963
		},
		{
			"buffer":0,
			"byteLength":624,
			"byteOffset":327848,
			"target":34962
		},
		{
			"buffer":0,
			"byteLength":624,
			"byteOffset":328472,
			"target":34962
		},
		{
			"buffer":0,
			"byteLength":416,
			"byteOffset":329096,
			"target":34962
		},
		{
			"buffer":0,
			"byteLength":360,
			"byteOffset":329512,
			"target":34963
		},
		{
			"buffer":0,
			"byteLength":168,
			"byteOffset":329872,
			"target":34962
		},
		{
			"buffer":0,
			"byteLength":168,
			"byteOffset":330040,
			"target":34962
		},
		{
			"buffer":0,
			"byteLength":112,
			"byteOffset":330208,
			"target":34962
		},
		{
			"buffer":0,
			"byteLength":72,
			"byteOffset":330320,
			"target":34963
		},
		{
			"buffer":0,
			"byteLength":1836,
			"byteOffset":330392,
			"target":34962
		},
		{
			"buffer":0,
			"byteLength":1836,
			"byteOffset":332228,
			"target":34962
		},
		{
			"buffer":0,
			"byteLength":1224,
			"byteOffset":334064,
			"target":34962
		},
		{
			"buffer":0,
			"byteLength":936,
			"byteOffset":335288,
			"target":34963
		},
		{
			"buffer":0,
			"byteLength":168,
			"byteOffset":336224,
			"target":34962
		},
		{
			"buffer":0,
			"byteLength":168,
			"byteOffset":336392,
			"target":34962
		},
		{
			"buffer":0,
			"byteLength":112,
			"byteOffset":336560,
			"target":34962
		},
		{
			"buffer":0,
			"byteLength":72,
			"byteOffset":336672,
			"target":34963
		},
		{
			"buffer":0,
			"byteLength":1836,
			"byteOffset":336744,
			"target":34962
		},
		{
			"buffer":0,
			"byteLength":1836,
			"byteOffset":338580,
			"target":34962
		},
		{
			"buffer":0,
			"byteLength":1224,
			"byteOffset":340416,
			"target":34962
		},
		{
			"buffer":0,
			"byteLength":936,
			"byteOffset":341640,
			"target":34963
		},
		{
			"buffer":0,
			"byteLength":2952,
			"byteOffset":342576,
			"target":34962
		},
		{
			"buffer":0,
			"byteLength":2952,
			"byteOffset":345528,
			"target":34962
		},
		{
			"buffer":0,
			"byteLength":1968,
			"byteOffset":348480,
			"target":34962
		},
		{
			"buffer":0,
			"byteLength":1920,
			"byteOffset":350448,
			"target":34963
		},
		{
			"buffer":0,
			"byteLength":816,
			"byteOffset":352368,
			"target":34962
		},
		{
			"buffer":0,
			"byteLength":816,
			"byteOffset":353184,
			"target":34962
		},
		{
			"buffer":0,
			"byteLength":544,
			"byteOffset":354000,
			"target":34962
		},
		{
			"buffer":0,
			"byteLength":552,
			"byteOffset":354544,
			"target":34963
		},
		{
			"buffer":0,
			"byteLength":816,
			"byteOffset":355096,
			"target":34962
		},
		{
			"buffer":0,
			"byteLength":816,
			"byteOffset":355912,
			"target":34962
		},
		{
			"buffer":0,
			"byteLength":544,
			"byteOffset":356728,
			"target":34962
		},
		{
			"buffer":0,
			"byteLength":552,
			"byteOffset":357272,
			"target":34963
		},
		{
			"buffer":0,
			"byteLength":1632,
			"byteOffset":357824,
			"target":34962
		},
		{
			"buffer":0,
			"byteLength":1632,
			"byteOffset":359456,
			"target":34962
		},
		{
			"buffer":0,
			"byteLength":1088,
			"byteOffset":361088,
			"target":34962
		},
		{
			"buffer":0,
			"byteLength":1080,
			"byteOffset":362176,
			"target":34963
		},
		{
			"buffer":0,
			"byteLength":240,
			"byteOffset":363256,
			"target":34962
		},
		{
			"buffer":0,
			"byteLength":240,
			"byteOffset":363496,
			"target":34962
		},
		{
			"buffer":0,
			"byteLength":160,
			"byteOffset":363736,
			"target":34962
		},
		{
			"buffer":0,
			"byteLength":144,
			"byteOffset":363896,
			"target":34963
		},
		{
			"buffer":0,
			"byteLength":6216,
			"byteOffset":364040,
			"target":34962
		},
		{
			"buffer":0,
			"byteLength":6216,
			"byteOffset":370256,
			"target":34962
		},
		{
			"buffer":0,
			"byteLength":4144,
			"byteOffset":376472,
			"target":34962
		},
		{
			"buffer":0,
			"byteLength":4416,
			"byteOffset":380616,
			"target":34963
		},
		{
			"buffer":0,
			"byteLength":168,
			"byteOffset":385032,
			"target":34962
		},
		{
			"buffer":0,
			"byteLength":168,
			"byteOffset":385200,
			"target":34962
		},
		{
			"buffer":0,
			"byteLength":112,
			"byteOffset":385368,
			"target":34962
		},
		{
			"buffer":0,
			"byteLength":72,
			"byteOffset":385480,
			"target":34963
		},
		{
			"buffer":0,
			"byteLength":1440,
			"byteOffset":385552,
			"target":34962
		},
		{
			"buffer":0,
			"byteLength":1440,
			"byteOffset":386992,
			"target":34962
		},
		{
			"buffer":0,
			"byteLength":960,
			"byteOffset":388432,
			"target":34962
		},
		{
			"buffer":0,
			"byteLength":648,
			"byteOffset":389392,
			"target":34963
		},
		{
			"buffer":0,
			"byteLength":924,
			"byteOffset":390040,
			"target":34962
		},
		{
			"buffer":0,
			"byteLength":924,
			"byteOffset":390964,
			"target":34962
		},
		{
			"buffer":0,
			"byteLength":616,
			"byteOffset":391888,
			"target":34962
		},
		{
			"buffer":0,
			"byteLength":648,
			"byteOffset":392504,
			"target":34963
		},
		{
			"buffer":0,
			"byteLength":1236,
			"byteOffset":393152,
			"target":34962
		},
		{
			"buffer":0,
			"byteLength":1236,
			"byteOffset":394388,
			"target":34962
		},
		{
			"buffer":0,
			"byteLength":824,
			"byteOffset":395624,
			"target":34962
		},
		{
			"buffer":0,
			"byteLength":816,
			"byteOffset":396448,
			"target":34963
		},
		{
			"buffer":0,
			"byteLength":624,
			"byteOffset":397264,
			"target":34962
		},
		{
			"buffer":0,
			"byteLength":624,
			"byteOffset":397888,
			"target":34962
		},
		{
			"buffer":0,
			"byteLength":416,
			"byteOffset":398512,
			"target":34962
		},
		{
			"buffer":0,
			"byteLength":360,
			"byteOffset":398928,
			"target":34963
		},
		{
			"buffer":0,
			"byteLength":168,
			"byteOffset":399288,
			"target":34962
		},
		{
			"buffer":0,
			"byteLength":168,
			"byteOffset":399456,
			"target":34962
		},
		{
			"buffer":0,
			"byteLength":112,
			"byteOffset":399624,
			"target":34962
		},
		{
			"buffer":0,
			"byteLength":1836,
			"byteOffset":399736,
			"target":34962
		},
		{
			"buffer":0,
			"byteLength":1836,
			"byteOffset":401572,
			"target":34962
		},
		{
			"buffer":0,
			"byteLength":1224,
			"byteOffset":403408,
			"target":34962
		},
		{
			"buffer":0,
			"byteLength":168,
			"byteOffset":404632,
			"target":34962
		},
		{
			"buffer":0,
			"byteLength":168,
			"byteOffset":404800,
			"target":34962
		},
		{
			"buffer":0,
			"byteLength":112,
			"byteOffset":404968,
			"target":34962
		},
		{
			"buffer":0,
			"byteLength":1836,
			"byteOffset":405080,
			"target":34962
		},
		{
			"buffer":0,
			"byteLength":1836,
			"byteOffset":406916,
			"target":34962
		},
		{
			"buffer":0,
			"byteLength":1224,
			"byteOffset":408752,
			"target":34962
		},
		{
			"buffer":0,
			"byteLength":936,
			"byteOffset":409976,
			"target":34963
		},
		{
			"buffer":0,
			"byteLength":2952,
			"byteOffset":410912,
			"target":34962
		},
		{
			"buffer":0,
			"byteLength":2952,
			"byteOffset":413864,
			"target":34962
		},
		{
			"buffer":0,
			"byteLength":1968,
			"byteOffset":416816,
			"target":34962
		},
		{
			"buffer":0,
			"byteLength":1920,
			"byteOffset":418784,
			"target":34963
		},
		{
			"buffer":0,
			"byteLength":816,
			"byteOffset":420704,
			"target":34962
		},
		{
			"buffer":0,
			"byteLength":816,
			"byteOffset":421520,
			"target":34962
		},
		{
			"buffer":0,
			"byteLength":544,
			"byteOffset":422336,
			"target":34962
		},
		{
			"buffer":0,
			"byteLength":552,
			"byteOffset":422880,
			"target":34963
		},
		{
			"buffer":0,
			"byteLength":816,
			"byteOffset":423432,
			"target":34962
		},
		{
			"buffer":0,
			"byteLength":816,
			"byteOffset":424248,
			"target":34962
		},
		{
			"buffer":0,
			"byteLength":544,
			"byteOffset":425064,
			"target":34962
		},
		{
			"buffer":0,
			"byteLength":552,
			"byteOffset":425608,
			"target":34963
		},
		{
			"buffer":0,
			"byteLength":1632,
			"byteOffset":426160,
			"target":34962
		},
		{
			"buffer":0,
			"byteLength":1632,
			"byteOffset":427792,
			"target":34962
		},
		{
			"buffer":0,
			"byteLength":1088,
			"byteOffset":429424,
			"target":34962
		},
		{
			"buffer":0,
			"byteLength":1080,
			"byteOffset":430512,
			"target":34963
		},
		{
			"buffer":0,
			"byteLength":240,
			"byteOffset":431592,
			"target":34962
		},
		{
			"buffer":0,
			"byteLength":240,
			"byteOffset":431832,
			"target":34962
		},
		{
			"buffer":0,
			"byteLength":160,
			"byteOffset":432072,
			"target":34962
		},
		{
			"buffer":0,
			"byteLength":144,
			"byteOffset":432232,
			"target":34963
		},
		{
			"buffer":0,
			"byteLength":6216,
			"byteOffset":432376,
			"target":34962
		},
		{
			"buffer":0,
			"byteLength":6216,
			"byteOffset":438592,
			"target":34962
		},
		{
			"buffer":0,
			"byteLength":4144,
			"byteOffset":444808,
			"target":34962
		},
		{
			"buffer":0,
			"byteLength":4416,
			"byteOffset":448952,
			"target":34963
		},
		{
			"buffer":0,
			"byteLength":12228,
			"byteOffset":453368,
			"target":34962
		},
		{
			"buffer":0,
			"byteLength":12228,
			"byteOffset":465596,
			"target":34962
		},
		{
			"buffer":0,
			"byteLength":8152,
			"byteOffset":477824,
			"target":34962
		},
		{
			"buffer":0,
			"byteLength":8592,
			"byteOffset":485976,
			"target":34963
		},
		{
			"buffer":0,
			"byteLength":10752,
			"byteOffset":494568,
			"target":34962
		},
		{
			"buffer":0,
			"byteLength":10752,
			"byteOffset":505320,
			"target":34962
		},
		{
			"buffer":0,
			"byteLength":7168,
			"byteOffset":516072,
			"target":34962
		},
		{
			"buffer":0,
			"byteLength":4608,
			"byteOffset":523240,
			"target":34963
		},
		{
			"buffer":0,
			"byteLength":559104,
			"byteOffset":527848,
			"target":34962
		},
		{
			"buffer":0,
			"byteLength":559104,
			"byteOffset":1086952,
			"target":34962
		},
		{
			"buffer":0,
			"byteLength":372736,
			"byteOffset":1646056,
			"target":34962
		},
		{
			"buffer":0,
			"byteLength":282432,
			"byteOffset":2018792,
			"target":34963
		},
		{
			"buffer":0,
			"byteLength":12192,
			"byteOffset":2301224,
			"target":34962
		},
		{
			"buffer":0,
			"byteLength":12192,
			"byteOffset":2313416,
			"target":34962
		},
		{
			"buffer":0,
			"byteLength":8128,
			"byteOffset":2325608,
			"target":34962
		},
		{
			"buffer":0,
			"byteLength":7968,
			"byteOffset":2333736,
			"target":34963
		},
		{
			"buffer":0,
			"byteLength":274032,
			"byteOffset":2341704,
			"target":34962
		},
		{
			"buffer":0,
			"byteLength":274032,
			"byteOffset":2615736,
			"target":34962
		},
		{
			"buffer":0,
			"byteLength":182688,
			"byteOffset":2889768,
			"target":34962
		},
		{
			"buffer":0,
			"byteLength":88752,
			"byteOffset":3072456,
			"target":34963
		},
		{
			"buffer":0,
			"byteLength":328320,
			"byteOffset":3161208,
			"target":34962
		},
		{
			"buffer":0,
			"byteLength":328320,
			"byteOffset":3489528,
			"target":34962
		},
		{
			"buffer":0,
			"byteLength":218880,
			"byteOffset":3817848,
			"target":34962
		},
		{
			"buffer":0,
			"byteLength":175680,
			"byteOffset":4036728,
			"target":34963
		},
		{
			"buffer":0,
			"byteLength":15672,
			"byteOffset":4212408,
			"target":34962
		},
		{
			"buffer":0,
			"byteLength":15672,
			"byteOffset":4228080,
			"target":34962
		},
		{
			"buffer":0,
			"byteLength":10448,
			"byteOffset":4243752,
			"target":34962
		},
		{
			"buffer":0,
			"byteLength":10992,
			"byteOffset":4254200,
			"target":34963
		},
		{
			"buffer":0,
			"byteLength":29976,
			"byteOffset":4265192,
			"target":34962
		},
		{
			"buffer":0,
			"byteLength":29976,
			"byteOffset":4295168,
			"target":34962
		},
		{
			"buffer":0,
			"byteLength":19984,
			"byteOffset":4325144,
			"target":34962
		},
		{
			"buffer":0,
			"byteLength":18768,
			"byteOffset":4345128,
			"target":34963
		},
		{
			"buffer":0,
			"byteLength":4320,
			"byteOffset":4363896,
			"target":34962
		},
		{
			"buffer":0,
			"byteLength":4320,
			"byteOffset":4368216,
			"target":34962
		},
		{
			"buffer":0,
			"byteLength":2880,
			"byteOffset":4372536,
			"target":34962
		},
		{
			"buffer":0,
			"byteLength":1416,
			"byteOffset":4375416,
			"target":34963
		},
		{
			"buffer":0,
			"byteLength":18960,
			"byteOffset":4376832,
			"target":34962
		},
		{
			"buffer":0,
			"byteLength":18960,
			"byteOffset":4395792,
			"target":34962
		},
		{
			"buffer":0,
			"byteLength":12640,
			"byteOffset":4414752,
			"target":34962
		},
		{
			"buffer":0,
			"byteLength":8772,
			"byteOffset":4427392,
			"target":34963
		},
		{
			"buffer":0,
			"byteLength":1632,
			"byteOffset":4436164,
			"target":34962
		},
		{
			"buffer":0,
			"byteLength":1632,
			"byteOffset":4437796,
			"target":34962
		},
		{
			"buffer":0,
			"byteLength":1088,
			"byteOffset":4439428,
			"target":34962
		},
		{
			"buffer":0,
			"byteLength":768,
			"byteOffset":4440516,
			"target":34963
		},
		{
			"buffer":0,
			"byteLength":3672,
			"byteOffset":4441284,
			"target":34962
		},
		{
			"buffer":0,
			"byteLength":3672,
			"byteOffset":4444956,
			"target":34962
		},
		{
			"buffer":0,
			"byteLength":2448,
			"byteOffset":4448628,
			"target":34962
		},
		{
			"buffer":0,
			"byteLength":1920,
			"byteOffset":4451076,
			"target":34963
		},
		{
			"buffer":0,
			"byteLength":12864,
			"byteOffset":4452996,
			"target":34962
		},
		{
			"buffer":0,
			"byteLength":12864,
			"byteOffset":4465860,
			"target":34962
		},
		{
			"buffer":0,
			"byteLength":8576,
			"byteOffset":4478724,
			"target":34962
		},
		{
			"buffer":0,
			"byteLength":6816,
			"byteOffset":4487300,
			"target":34963
		},
		{
			"buffer":0,
			"byteLength":4944,
			"byteOffset":4494116,
			"target":34962
		},
		{
			"buffer":0,
			"byteLength":4944,
			"byteOffset":4499060,
			"target":34962
		},
		{
			"buffer":0,
			"byteLength":3296,
			"byteOffset":4504004,
			"target":34962
		},
		{
			"buffer":0,
			"byteLength":2724,
			"byteOffset":4507300,
			"target":34963
		},
		{
			"buffer":0,
			"byteLength":1056,
			"byteOffset":4510024,
			"target":34962
		},
		{
			"buffer":0,
			"byteLength":1056,
			"byteOffset":4511080,
			"target":34962
		},
		{
			"buffer":0,
			"byteLength":704,
			"byteOffset":4512136,
			"target":34962
		},
		{
			"buffer":0,
			"byteLength":480,
			"byteOffset":4512840,
			"target":34963
		},
		{
			"buffer":0,
			"byteLength":10464,
			"byteOffset":4513320,
			"target":34962
		},
		{
			"buffer":0,
			"byteLength":10464,
			"byteOffset":4523784,
			"target":34962
		},
		{
			"buffer":0,
			"byteLength":6976,
			"byteOffset":4534248,
			"target":34962
		},
		{
			"buffer":0,
			"byteLength":6504,
			"byteOffset":4541224,
			"target":34963
		},
		{
			"buffer":0,
			"byteLength":2304,
			"byteOffset":4547728,
			"target":34962
		},
		{
			"buffer":0,
			"byteLength":2304,
			"byteOffset":4550032,
			"target":34962
		},
		{
			"buffer":0,
			"byteLength":1536,
			"byteOffset":4552336,
			"target":34962
		},
		{
			"buffer":0,
			"byteLength":1896,
			"byteOffset":4553872,
			"target":34963
		}
	],
	"samplers":[
		{
			"magFilter":9729,
			"minFilter":9987
		}
	],
	"buffers":[
		{
			"byteLength":4555768,
			"uri":"walle-happy.bin"
		}
	]
}
