{
	"asset":{
		"generator":"Khronos glTF Blender I/O v4.5.48",
		"version":"2.0"
	},
	"extensionsUsed":[
		"KHR_texture_transform"
	],
	"extensionsRequired":[
		"KHR_texture_transform"
	],
	"scene":0,
	"scenes":[
		{
			"name":"Scene",
			"nodes":[
				0,
				1,
				2,
				3,
				4,
				5,
				6,
				7,
				8,
				9,
				10,
				11,
				12,
				13,
				14,
				15,
				16,
				17,
				18,
				19,
				20,
				21,
				22,
				23,
				24,
				25,
				26,
				27,
				28,
				29,
				30,
				31,
				32,
				33,
				34,
				35,
				36,
				37,
				38,
				39,
				40,
				41,
				42,
				43,
				44,
				45
			]
		}
	],
	"nodes":[
		{
			"mesh":0,
			"name":"Cylinder"
		},
		{
			"mesh":1,
			"name":"lower-hand"
		},
		{
			"mesh":2,
			"name":"hand-shaft"
		},
		{
			"mesh":3,
			"name":"hand-connector"
		},
		{
			"mesh":4,
			"name":"lower-arm"
		},
		{
			"mesh":5,
			"name":"middle-arm"
		},
		{
			"mesh":6,
			"name":"upper-arm"
		},
		{
			"mesh":7,
			"name":"arm-connector"
		},
		{
			"mesh":8,
			"name":"upper-thumb"
		},
		{
			"mesh":9,
			"name":"lower-thumb"
		},
		{
			"mesh":10,
			"name":"upper-hand"
		},
		{
			"mesh":11,
			"name":"thumb-connector"
		},
		{
			"mesh":12,
			"name":"thumb-base"
		},
		{
			"mesh":13,
			"name":"lower-gears"
		},
		{
			"mesh":14,
			"name":"bottom_shaft"
		},
		{
			"mesh":15,
			"name":"upper_shaft"
		},
		{
			"mesh":16,
			"name":"connecting_shaft"
		},
		{
			"mesh":17,
			"name":"treadmill"
		},
		{
			"mesh":18,
			"name":"upper-gears"
		},
		{
			"mesh":19,
			"name":"treead-connector"
		},
		{
			"mesh":20,
			"name":"gears.002"
		},
		{
			"mesh":21,
			"name":"back-eyes"
		},
		{
			"mesh":22,
			"name":"head-base"
		},
		{
			"mesh":23,
			"name":"eye-cable-left"
		},
		{
			"mesh":24,
			"name":"eye-cable-right"
		},
		{
			"mesh":25,
			"name":"body-back"
		},
		{
			"mesh":26,
			"name":"walle"
		},
		{
			"mesh":27,
			"name":"body-ring"
		},
		{
			"mesh":28,
			"name":"body-top"
		},
		{
			"mesh":29,
			"name":"back-eyes.001"
		},
		{
			"mesh":30,
			"name":"arm-connector.001"
		},
		{
			"mesh":31,
			"name":"lower-hand.001"
		},
		{
			"mesh":32,
			"name":"lower-hand.002"
		},
		{
			"mesh":33,
			"name":"lower-hand.003"
		},
		{
			"mesh":34,
			"name":"hand-shaft.001"
		},
		{
			"mesh":35,
			"name":"hand-connector.001"
		},
		{
			"mesh":36,
			"name":"lower-arm.001"
		},
		{
			"mesh":37,
			"name":"middle-arm.001"
		},
		{
			"mesh":38,
			"name":"upper-arm.001"
		},
		{
			"mesh":39,
			"name":"upper-thumb.001"
		},
		{
			"mesh":40,
			"name":"lower-thumb.001"
		},
		{
			"mesh":41,
			"name":"upper-hand.001"
		},
		{
			"mesh":42,
			"name":"upper-hand.002"
		},
		{
			"mesh":43,
			"name":"upper-hand.003"
		},
		{
			"mesh":44,
			"name":"thumb-connector.001"
		},
		{
			"mesh":45,
			"name":"thumb-base.001"
		}
	],
	"materials":[
		{
			"doubleSided":true,
			"name":"spotlight",
			"pbrMetallicRoughness":{
				"baseColorTexture":{
					"index":0
				},
				"metallicFactor":0,
				"roughnessFactor":0.5
			}
		},
		{
			"doubleSided":true,
			"name":"metal",
			"normalTexture":{
				"index":1
			},
			"pbrMetallicRoughness":{
				"baseColorTexture":{
					"index":2
				},
				"metallicFactor":0,
				"roughnessFactor":0.8636363744735718
			}
		},
		{
			"doubleSided":true,
			"name":"walle-arm-shaft",
			"pbrMetallicRoughness":{
				"baseColorTexture":{
					"index":3
				},
				"metallicFactor":0,
				"roughnessFactor":0.4318181872367859
			}
		},
		{
			"doubleSided":true,
			"name":"arm-paint",
			"normalTexture":{
				"index":4
			},
			"pbrMetallicRoughness":{
				"baseColorTexture":{
					"index":5
				},
				"metallicRoughnessTexture":{
					"index":6
				}
			}
		},
		{
			"doubleSided":true,
			"name":"walle-arm-grid",
			"normalTexture":{
				"index":7
			},
			"pbrMetallicRoughness":{
				"baseColorTexture":{
					"index":8
				},
				"metallicFactor":0,
				"roughnessFactor":0.4318181872367859
			}
		},
		{
			"doubleSided":true,
			"name":"walle-shafts",
			"pbrMetallicRoughness":{
				"baseColorTexture":{
					"index":9
				},
				"metallicRoughnessTexture":{
					"index":10
				}
			}
		},
		{
			"doubleSided":true,
			"name":"walle-treadmill",
			"pbrMetallicRoughness":{
				"baseColorTexture":{
					"extensions":{
						"KHR_texture_transform":{
							"offset":[
								0,
								0.17000001668930054
							],
							"scale":[
								0.8299999833106995,
								0.8299999833106995
							]
						}
					},
					"index":11
				},
				"metallicFactor":0.6954545378684998,
				"roughnessFactor":0.48636364936828613
			}
		},
		{
			"doubleSided":true,
			"name":"head",
			"normalTexture":{
				"index":12
			},
			"pbrMetallicRoughness":{
				"baseColorTexture":{
					"index":13
				},
				"metallicRoughnessTexture":{
					"index":14
				}
			}
		},
		{
			"doubleSided":true,
			"name":"walle-head-shaft",
			"pbrMetallicRoughness":{
				"baseColorTexture":{
					"index":15
				},
				"metallicFactor":0.4318181872367859,
				"roughnessFactor":0.5681818127632141
			}
		},
		{
			"doubleSided":true,
			"name":"walle-rubber-cable",
			"pbrMetallicRoughness":{
				"baseColorTexture":{
					"index":16
				},
				"metallicFactor":0,
				"roughnessFactor":0.40909090638160706
			}
		},
		{
			"doubleSided":true,
			"name":"body-back",
			"normalTexture":{
				"index":17
			},
			"pbrMetallicRoughness":{
				"baseColorTexture":{
					"index":18
				},
				"metallicRoughnessTexture":{
					"index":19
				}
			}
		},
		{
			"doubleSided":true,
			"name":"walle-plain-metal",
			"pbrMetallicRoughness":{
				"baseColorTexture":{
					"index":20
				},
				"roughnessFactor":0.27272725105285645
			}
		},
		{
			"doubleSided":true,
			"name":"walle-piston-paint",
			"pbrMetallicRoughness":{
				"baseColorTexture":{
					"index":21
				},
				"metallicFactor":0,
				"roughnessFactor":0.23636363446712494
			}
		},
		{
			"doubleSided":true,
			"name":"walle-worn-metal",
			"pbrMetallicRoughness":{
				"baseColorTexture":{
					"index":22
				},
				"metallicFactor":0,
				"roughnessFactor":0.36818182468414307
			}
		},
		{
			"doubleSided":true,
			"name":"body-bottom",
			"normalTexture":{
				"index":23
			},
			"pbrMetallicRoughness":{
				"baseColorTexture":{
					"index":24
				},
				"metallicRoughnessTexture":{
					"index":25
				}
			}
		},
		{
			"doubleSided":true,
			"name":"ring",
			"normalTexture":{
				"index":26
			},
			"pbrMetallicRoughness":{
				"baseColorTexture":{
					"index":27
				},
				"metallicRoughnessTexture":{
					"index":28
				}
			}
		},
		{
			"doubleSided":true,
			"name":"body-top",
			"normalTexture":{
				"index":29
			},
			"pbrMetallicRoughness":{
				"baseColorTexture":{
					"index":30
				},
				"metallicRoughnessTexture":{
					"index":31
				}
			}
		},
		{
			"doubleSided":true,
			"name":"lens-border",
			"pbrMetallicRoughness":{
				"baseColorTexture":{
					"index":32
				},
				"metallicRoughnessTexture":{
					"index":33
				}
			}
		},
		{
			"doubleSided":true,
			"name":"lens",
			"pbrMetallicRoughness":{
				"baseColorTexture":{
					"index":34
				},
				"metallicRoughnessTexture":{
					"index":35
				}
			}
		}
	],
	"meshes":[
		{
			"name":"Cylinder.002",
			"primitives":[
				{
					"attributes":{
						"POSITION":0,
						"NORMAL":1,
						"TEXCOORD_0":2
					},
					"indices":3,
					"material":0
				}
			]
		},
		{
			"name":"Cube.002",
			"primitives":[
				{
					"attributes":{
						"POSITION":4,
						"NORMAL":5,
						"TEXCOORD_0":6
					},
					"indices":7,
					"material":1
				}
			]
		},
		{
			"name":"Cylinder",
			"primitives":[
				{
					"attributes":{
						"POSITION":8,
						"NORMAL":9,
						"TEXCOORD_0":10
					},
					"indices":11,
					"material":2
				}
			]
		},
		{
			"name":"Cylinder.001",
			"primitives":[
				{
					"attributes":{
						"POSITION":12,
						"NORMAL":13,
						"TEXCOORD_0":14
					},
					"indices":15,
					"material":1
				}
			]
		},
		{
			"name":"Cylinder.006",
			"primitives":[
				{
					"attributes":{
						"POSITION":16,
						"NORMAL":17,
						"TEXCOORD_0":18
					},
					"indices":19,
					"material":2
				}
			]
		},
		{
			"name":"Cylinder.007",
			"primitives":[
				{
					"attributes":{
						"POSITION":20,
						"NORMAL":21,
						"TEXCOORD_0":22
					},
					"indices":23,
					"material":2
				}
			]
		},
		{
			"name":"Cylinder.009",
			"primitives":[
				{
					"attributes":{
						"POSITION":24,
						"NORMAL":25,
						"TEXCOORD_0":26
					},
					"indices":27,
					"material":3
				},
				{
					"attributes":{
						"POSITION":28,
						"NORMAL":29,
						"TEXCOORD_0":30
					},
					"indices":31,
					"material":4
				}
			]
		},
		{
			"name":"Cylinder.014",
			"primitives":[
				{
					"attributes":{
						"POSITION":32,
						"NORMAL":33,
						"TEXCOORD_0":34
					},
					"indices":35,
					"material":3
				}
			]
		},
		{
			"name":"Cube.005",
			"primitives":[
				{
					"attributes":{
						"POSITION":36,
						"NORMAL":37,
						"TEXCOORD_0":38
					},
					"indices":39,
					"material":1
				}
			]
		},
		{
			"name":"Cube.006",
			"primitives":[
				{
					"attributes":{
						"POSITION":40,
						"NORMAL":41,
						"TEXCOORD_0":42
					},
					"indices":43,
					"material":1
				}
			]
		},
		{
			"name":"Cube.008",
			"primitives":[
				{
					"attributes":{
						"POSITION":44,
						"NORMAL":45,
						"TEXCOORD_0":46
					},
					"indices":47,
					"material":1
				}
			]
		},
		{
			"name":"Cylinder.011",
			"primitives":[
				{
					"attributes":{
						"POSITION":48,
						"NORMAL":49,
						"TEXCOORD_0":50
					},
					"indices":51,
					"material":1
				}
			]
		},
		{
			"name":"Cylinder.013",
			"primitives":[
				{
					"attributes":{
						"POSITION":52,
						"NORMAL":53,
						"TEXCOORD_0":54
					},
					"indices":55,
					"material":2
				}
			]
		},
		{
			"name":"Cylinder.010",
			"primitives":[
				{
					"attributes":{
						"POSITION":56,
						"NORMAL":57,
						"TEXCOORD_0":58
					},
					"indices":59,
					"material":5
				}
			]
		},
		{
			"name":"Cylinder.023",
			"primitives":[
				{
					"attributes":{
						"POSITION":60,
						"NORMAL":61,
						"TEXCOORD_0":62
					},
					"indices":63,
					"material":5
				}
			]
		},
		{
			"name":"Cylinder.024",
			"primitives":[
				{
					"attributes":{
						"POSITION":64,
						"NORMAL":65,
						"TEXCOORD_0":66
					},
					"indices":67,
					"material":5
				}
			]
		},
		{
			"name":"Cylinder.027",
			"primitives":[
				{
					"attributes":{
						"POSITION":68,
						"NORMAL":69,
						"TEXCOORD_0":70
					},
					"indices":71,
					"material":5
				}
			]
		},
		{
			"name":"Cube.014",
			"primitives":[
				{
					"attributes":{
						"POSITION":72,
						"NORMAL":73,
						"TEXCOORD_0":74
					},
					"indices":75,
					"material":6
				}
			]
		},
		{
			"name":"Cylinder.003",
			"primitives":[
				{
					"attributes":{
						"POSITION":76,
						"NORMAL":77,
						"TEXCOORD_0":78
					},
					"indices":79,
					"material":5
				}
			]
		},
		{
			"name":"Cylinder.026",
			"primitives":[
				{
					"attributes":{
						"POSITION":80,
						"NORMAL":81,
						"TEXCOORD_0":82
					},
					"indices":83,
					"material":5
				}
			]
		},
		{
			"name":"Cylinder.008",
			"primitives":[
				{
					"attributes":{
						"POSITION":84,
						"NORMAL":85,
						"TEXCOORD_0":86
					},
					"indices":87,
					"material":5
				}
			]
		},
		{
			"name":"Mesh.002",
			"primitives":[
				{
					"attributes":{
						"POSITION":88,
						"NORMAL":89,
						"TEXCOORD_0":90
					},
					"indices":91,
					"material":7
				}
			]
		},
		{
			"name":"Cylinder.019",
			"primitives":[
				{
					"attributes":{
						"POSITION":92,
						"NORMAL":93,
						"TEXCOORD_0":94
					},
					"indices":95,
					"material":8
				}
			]
		},
		{
			"name":"B\u00e9zierCurve",
			"primitives":[
				{
					"attributes":{
						"POSITION":96,
						"NORMAL":97,
						"TEXCOORD_0":98
					},
					"indices":99,
					"material":9
				}
			]
		},
		{
			"name":"B\u00e9zierCurve.002",
			"primitives":[
				{
					"attributes":{
						"POSITION":100,
						"NORMAL":101,
						"TEXCOORD_0":102
					},
					"indices":103,
					"material":9
				}
			]
		},
		{
			"name":"Cube.016",
			"primitives":[
				{
					"attributes":{
						"POSITION":104,
						"NORMAL":105,
						"TEXCOORD_0":106
					},
					"indices":107,
					"material":10
				},
				{
					"attributes":{
						"POSITION":108,
						"NORMAL":109,
						"TEXCOORD_0":110
					},
					"indices":111,
					"material":11
				},
				{
					"attributes":{
						"POSITION":112,
						"NORMAL":113,
						"TEXCOORD_0":114
					},
					"indices":115,
					"material":12
				},
				{
					"attributes":{
						"POSITION":116,
						"NORMAL":117,
						"TEXCOORD_0":118
					},
					"indices":119,
					"material":13
				}
			]
		},
		{
			"name":"Cube.017",
			"primitives":[
				{
					"attributes":{
						"POSITION":120,
						"NORMAL":121,
						"TEXCOORD_0":122
					},
					"indices":123,
					"material":14
				}
			]
		},
		{
			"name":"Cube.003",
			"primitives":[
				{
					"attributes":{
						"POSITION":124,
						"NORMAL":125,
						"TEXCOORD_0":126
					},
					"indices":127,
					"material":15
				}
			]
		},
		{
			"name":"Cube",
			"primitives":[
				{
					"attributes":{
						"POSITION":128,
						"NORMAL":129,
						"TEXCOORD_0":130
					},
					"indices":131,
					"material":16
				}
			]
		},
		{
			"name":"Mesh.001",
			"primitives":[
				{
					"attributes":{
						"POSITION":132,
						"NORMAL":133,
						"TEXCOORD_0":134
					},
					"indices":135,
					"material":17
				},
				{
					"attributes":{
						"POSITION":136,
						"NORMAL":137,
						"TEXCOORD_0":138
					},
					"indices":139,
					"material":18
				}
			]
		},
		{
			"name":"Cylinder.047",
			"primitives":[
				{
					"attributes":{
						"POSITION":140,
						"NORMAL":141,
						"TEXCOORD_0":142
					},
					"indices":143,
					"material":3
				}
			]
		},
		{
			"name":"Cube.029",
			"primitives":[
				{
					"attributes":{
						"POSITION":144,
						"NORMAL":145,
						"TEXCOORD_0":146
					},
					"indices":147,
					"material":1
				}
			]
		},
		{
			"name":"Cube.030",
			"primitives":[
				{
					"attributes":{
						"POSITION":148,
						"NORMAL":149,
						"TEXCOORD_0":150
					},
					"indices":147,
					"material":1
				}
			]
		},
		{
			"name":"Cube.031",
			"primitives":[
				{
					"attributes":{
						"POSITION":151,
						"NORMAL":152,
						"TEXCOORD_0":153
					},
					"indices":154,
					"material":1
				}
			]
		},
		{
			"name":"Cylinder.048",
			"primitives":[
				{
					"attributes":{
						"POSITION":155,
						"NORMAL":156,
						"TEXCOORD_0":157
					},
					"indices":158,
					"material":2
				}
			]
		},
		{
			"name":"Cylinder.049",
			"primitives":[
				{
					"attributes":{
						"POSITION":159,
						"NORMAL":160,
						"TEXCOORD_0":161
					},
					"indices":162,
					"material":1
				}
			]
		},
		{
			"name":"Cylinder.050",
			"primitives":[
				{
					"attributes":{
						"POSITION":163,
						"NORMAL":164,
						"TEXCOORD_0":165
					},
					"indices":166,
					"material":2
				}
			]
		},
		{
			"name":"Cylinder.051",
			"primitives":[
				{
					"attributes":{
						"POSITION":167,
						"NORMAL":168,
						"TEXCOORD_0":169
					},
					"indices":170,
					"material":2
				}
			]
		},
		{
			"name":"Cylinder.052",
			"primitives":[
				{
					"attributes":{
						"POSITION":171,
						"NORMAL":172,
						"TEXCOORD_0":173
					},
					"indices":174,
					"material":3
				},
				{
					"attributes":{
						"POSITION":175,
						"NORMAL":176,
						"TEXCOORD_0":177
					},
					"indices":178,
					"material":4
				}
			]
		},
		{
			"name":"Cube.032",
			"primitives":[
				{
					"attributes":{
						"POSITION":179,
						"NORMAL":180,
						"TEXCOORD_0":181
					},
					"indices":182,
					"material":1
				}
			]
		},
		{
			"name":"Cube.033",
			"primitives":[
				{
					"attributes":{
						"POSITION":183,
						"NORMAL":184,
						"TEXCOORD_0":185
					},
					"indices":186,
					"material":1
				}
			]
		},
		{
			"name":"Cube.034",
			"primitives":[
				{
					"attributes":{
						"POSITION":187,
						"NORMAL":188,
						"TEXCOORD_0":189
					},
					"indices":190,
					"material":1
				}
			]
		},
		{
			"name":"Cube.035",
			"primitives":[
				{
					"attributes":{
						"POSITION":191,
						"NORMAL":192,
						"TEXCOORD_0":193
					},
					"indices":190,
					"material":1
				}
			]
		},
		{
			"name":"Cube.036",
			"primitives":[
				{
					"attributes":{
						"POSITION":194,
						"NORMAL":195,
						"TEXCOORD_0":196
					},
					"indices":182,
					"material":1
				}
			]
		},
		{
			"name":"Cylinder.053",
			"primitives":[
				{
					"attributes":{
						"POSITION":197,
						"NORMAL":198,
						"TEXCOORD_0":199
					},
					"indices":200,
					"material":1
				}
			]
		},
		{
			"name":"Cylinder.054",
			"primitives":[
				{
					"attributes":{
						"POSITION":201,
						"NORMAL":202,
						"TEXCOORD_0":203
					},
					"indices":204,
					"material":2
				}
			]
		}
	],
	"textures":[
		{
			"sampler":0,
			"source":0
		},
		{
			"sampler":0,
			"source":1
		},
		{
			"sampler":0,
			"source":2
		},
		{
			"sampler":0,
			"source":3
		},
		{
			"sampler":0,
			"source":4
		},
		{
			"sampler":0,
			"source":5
		},
		{
			"sampler":0,
			"source":6
		},
		{
			"sampler":0,
			"source":7
		},
		{
			"sampler":0,
			"source":8
		},
		{
			"sampler":0,
			"source":9
		},
		{
			"sampler":0,
			"source":10
		},
		{
			"sampler":0,
			"source":11
		},
		{
			"sampler":0,
			"source":12
		},
		{
			"sampler":0,
			"source":13
		},
		{
			"sampler":0,
			"source":14
		},
		{
			"sampler":0,
			"source":15
		},
		{
			"sampler":0,
			"source":16
		},
		{
			"sampler":0,
			"source":17
		},
		{
			"sampler":0,
			"source":18
		},
		{
			"sampler":0,
			"source":19
		},
		{
			"sampler":0,
			"source":20
		},
		{
			"sampler":0,
			"source":21
		},
		{
			"sampler":0,
			"source":22
		},
		{
			"sampler":0,
			"source":23
		},
		{
			"sampler":0,
			"source":24
		},
		{
			"sampler":0,
			"source":25
		},
		{
			"sampler":0,
			"source":26
		},
		{
			"sampler":0,
			"source":27
		},
		{
			"sampler":0,
			"source":28
		},
		{
			"sampler":0,
			"source":29
		},
		{
			"sampler":0,
			"source":30
		},
		{
			"sampler":0,
			"source":31
		},
		{
			"sampler":0,
			"source":32
		},
		{
			"sampler":0,
			"source":33
		},
		{
			"sampler":0,
			"source":34
		},
		{
			"sampler":0,
			"source":35
		}
	],
	"images":[
		{
			"mimeType":"image/png",
			"name":"spotlight",
			"uri":"spotlight.png"
		},
		{
			"mimeType":"image/png",
			"name":"metal-generic_normal",
			"uri":"metal-generic_normal.png"
		},
		{
			"mimeType":"image/png",
			"name":"metal-generic",
			"uri":"metal-generic.png"
		},
		{
			"mimeType":"image/png",
			"name":"arm-shaft",
			"uri":"arm-shaft.png"
		},
		{
			"mimeType":"image/png",
			"name":"paint-generic_normal",
			"uri":"paint-generic_normal.png"
		},
		{
			"mimeType":"image/png",
			"name":"paint-generic",
			"uri":"paint-generic.png"
		},
		{
			"mimeType":"image/png",
			"name":"paint-generic_ORM",
			"uri":"paint-generic_ORM.png"
		},
		{
			"mimeType":"image/png",
			"name":"arm-grid_normal",
			"uri":"arm-grid_normal.png"
		},
		{
			"mimeType":"image/png",
			"name":"arm-grid",
			"uri":"arm-grid.png"
		},
		{
			"mimeType":"image/png",
			"name":"shafts",
			"uri":"shafts.png"
		},
		{
			"mimeType":"image/png",
			"name":"shafts_ORM",
			"uri":"shafts_ORM.png"
		},
		{
			"mimeType":"image/png",
			"name":"treadmill",
			"uri":"treadmill.png"
		},
		{
			"mimeType":"image/png",
			"name":"head_normal",
			"uri":"head_normal.png"
		},
		{
			"mimeType":"image/png",
			"name":"head",
			"uri":"head.png"
		},
		{
			"mimeType":"image/png",
			"name":"head_ORM",
			"uri":"head_ORM.png"
		},
		{
			"mimeType":"image/png",
			"name":"head-shaft",
			"uri":"head-shaft.png"
		},
		{
			"mimeType":"image/png",
			"name":"cables",
			"uri":"cables.png"
		},
		{
			"mimeType":"image/png",
			"name":"body-back_normal",
			"uri":"body-back_normal.png"
		},
		{
			"mimeType":"image/png",
			"name":"body-back",
			"uri":"body-back.png"
		},
		{
			"mimeType":"image/png",
			"name":"body-back_ORM",
			"uri":"body-back_ORM.png"
		},
		{
			"mimeType":"image/png",
			"name":"plain-metal",
			"uri":"plain-metal.png"
		},
		{
			"mimeType":"image/png",
			"name":"body-back-paint",
			"uri":"body-back-paint.png"
		},
		{
			"mimeType":"image/png",
			"name":"body-back-metal",
			"uri":"body-back-metal.png"
		},
		{
			"mimeType":"image/png",
			"name":"body-bottom_normal",
			"uri":"body-bottom_normal.png"
		},
		{
			"mimeType":"image/png",
			"name":"body-bottom",
			"uri":"body-bottom.png"
		},
		{
			"mimeType":"image/png",
			"name":"body-bottom_ORM",
			"uri":"body-bottom_ORM.png"
		},
		{
			"mimeType":"image/png",
			"name":"ring_normal",
			"uri":"ring_normal.png"
		},
		{
			"mimeType":"image/png",
			"name":"ring",
			"uri":"ring.png"
		},
		{
			"mimeType":"image/png",
			"name":"ring_ORM",
			"uri":"ring_ORM.png"
		},
		{
			"mimeType":"image/png",
			"name":"body-top_normal",
			"uri":"body-top_normal.png"
		},
		{
			"mimeType":"image/png",
			"name":"body-top",
			"uri":"body-top.png"
		},
		{
			"mimeType":"image/png",
			"name":"body-top_ORM",
			"uri":"body-top_ORM.png"
		},
		{
			"mimeType":"image/png",
			"name":"head-lens",
			"uri":"head-lens.png"
		},
		{
			"mimeType":"image/png",
			"name":"head-lens-ORM",
			"uri":"head-lens-ORM.png"
		},
		{
			"mimeType":"image/png",
			"name":"lens",
			"uri":"lens.png"
		},
		{
			"mimeType":"image/png",
			"name":"lens_ORM",
			"uri":"lens_ORM.png"
		}
	],
	"accessors":[
		{
			"bufferView":0,
			"componentType":5126,
			"count":841,
			"max":[
				5.941699028015137,
				0.02000005915760994,
				5.941699028015137
			],
			"min":[
				-5.941699028015137,
				-24.344327926635742,
				-5.9416985511779785
			],
			"type":"VEC3"
		},
		{
			"bufferView":1,
			"componentType":5126,
			"count":841,
			"type":"VEC3"
		},
		{
			"bufferView":2,
			"componentType":5126,
			"count":841,
			"type":"VEC2"
		},
		{
			"bufferView":3,
			"componentType":5123,
			"count":4224,
			"type":"SCALAR"
		},
		{
			"bufferView":4,
			"componentType":5126,
			"count":153,
			"max":[
				-0.3067631721496582,
				0.9459127187728882,
				3.4458675384521484
			],
			"min":[
				-0.7345309853553772,
				0.4128611087799072,
				3.0911412239074707
			],
			"type":"VEC3"
		},
		{
			"bufferView":5,
			"componentType":5126,
			"count":153,
			"type":"VEC3"
		},
		{
			"bufferView":6,
			"componentType":5126,
			"count":153,
			"type":"VEC2"
		},
		{
			"bufferView":7,
			"componentType":5123,
			"count":468,
			"type":"SCALAR"
		},
		{
			"bufferView":8,
			"componentType":5126,
			"count":52,
			"max":[
				-0.54640793800354,
				0.8610926270484924,
				3.227346420288086
			],
			"min":[
				-0.9870554208755493,
				0.673136293888092,
				3.1184704303741455
			],
			"type":"VEC3"
		},
		{
			"bufferView":9,
			"componentType":5126,
			"count":52,
			"type":"VEC3"
		},
		{
			"bufferView":10,
			"componentType":5126,
			"count":52,
			"type":"VEC2"
		},
		{
			"bufferView":11,
			"componentType":5123,
			"count":180,
			"type":"SCALAR"
		},
		{
			"bufferView":12,
			"componentType":5126,
			"count":246,
			"max":[
				-0.6564512848854065,
				1.0005351305007935,
				3.2391977310180664
			],
			"min":[
				-0.9093787670135498,
				0.6860724687576294,
				3.0173637866973877
			],
			"type":"VEC3"
		},
		{
			"bufferView":13,
			"componentType":5126,
			"count":246,
			"type":"VEC3"
		},
		{
			"bufferView":14,
			"componentType":5126,
			"count":246,
			"type":"VEC2"
		},
		{
			"bufferView":15,
			"componentType":5123,
			"count":960,
			"type":"SCALAR"
		},
		{
			"bufferView":16,
			"componentType":5126,
			"count":68,
			"max":[
				-0.6598930358886719,
				1.967415452003479,
				3.1953282356262207
			],
			"min":[
				-1.2846156358718872,
				0.8331065773963928,
				2.147578716278076
			],
			"type":"VEC3"
		},
		{
			"bufferView":17,
			"componentType":5126,
			"count":68,
			"type":"VEC3"
		},
		{
			"bufferView":18,
			"componentType":5126,
			"count":68,
			"type":"VEC2"
		},
		{
			"bufferView":19,
			"componentType":5123,
			"count":276,
			"type":"SCALAR"
		},
		{
			"bufferView":20,
			"componentType":5126,
			"count":68,
			"max":[
				-0.7116885185241699,
				2.3088202476501465,
				3.0197129249572754
			],
			"min":[
				-1.436758041381836,
				1.0405972003936768,
				1.8429006338119507
			],
			"type":"VEC3"
		},
		{
			"bufferView":21,
			"componentType":5126,
			"count":68,
			"type":"VEC3"
		},
		{
			"bufferView":22,
			"componentType":5126,
			"count":68,
			"type":"VEC2"
		},
		{
			"bufferView":23,
			"componentType":5123,
			"count":276,
			"type":"SCALAR"
		},
		{
			"bufferView":24,
			"componentType":5126,
			"count":136,
			"max":[
				-0.9947219491004944,
				3.3069729804992676,
				2.337230920791626
			],
			"min":[
				-1.8482691049575806,
				1.8259637355804443,
				0.9616063833236694
			],
			"type":"VEC3"
		},
		{
			"bufferView":25,
			"componentType":5126,
			"count":136,
			"type":"VEC3"
		},
		{
			"bufferView":26,
			"componentType":5126,
			"count":136,
			"type":"VEC2"
		},
		{
			"bufferView":27,
			"componentType":5123,
			"count":540,
			"type":"SCALAR"
		},
		{
			"bufferView":28,
			"componentType":5126,
			"count":20,
			"max":[
				-1.3832809925079346,
				3.3069729804992676,
				2.337230920791626
			],
			"min":[
				-1.8482691049575806,
				1.8259637355804443,
				0.9616063833236694
			],
			"type":"VEC3"
		},
		{
			"bufferView":29,
			"componentType":5126,
			"count":20,
			"type":"VEC3"
		},
		{
			"bufferView":30,
			"componentType":5126,
			"count":20,
			"type":"VEC2"
		},
		{
			"bufferView":31,
			"componentType":5123,
			"count":72,
			"type":"SCALAR"
		},
		{
			"bufferView":32,
			"componentType":5126,
			"count":518,
			"max":[
				-1.1918551921844482,
				3.4707860946655273,
				1.4028723239898682
			],
			"min":[
				-1.8430521488189697,
				2.8720340728759766,
				0.7992328405380249
			],
			"type":"VEC3"
		},
		{
			"bufferView":33,
			"componentType":5126,
			"count":518,
			"type":"VEC3"
		},
		{
			"bufferView":34,
			"componentType":5126,
			"count":518,
			"type":"VEC2"
		},
		{
			"bufferView":35,
			"componentType":5123,
			"count":2208,
			"type":"SCALAR"
		},
		{
			"bufferView":36,
			"componentType":5126,
			"count":14,
			"max":[
				-0.46402478218078613,
				0.4849163293838501,
				3.361086130142212
			],
			"min":[
				-0.8810088634490967,
				0.18649649620056152,
				3.0702903270721436
			],
			"type":"VEC3"
		},
		{
			"bufferView":37,
			"componentType":5126,
			"count":14,
			"type":"VEC3"
		},
		{
			"bufferView":38,
			"componentType":5126,
			"count":14,
			"type":"VEC2"
		},
		{
			"bufferView":39,
			"componentType":5123,
			"count":36,
			"type":"SCALAR"
		},
		{
			"bufferView":40,
			"componentType":5126,
			"count":120,
			"max":[
				-0.46583354473114014,
				0.6994925737380981,
				3.1808300018310547
			],
			"min":[
				-0.9205321669578552,
				0.19394314289093018,
				3.022064685821533
			],
			"type":"VEC3"
		},
		{
			"bufferView":41,
			"componentType":5126,
			"count":120,
			"type":"VEC3"
		},
		{
			"bufferView":42,
			"componentType":5126,
			"count":120,
			"type":"VEC2"
		},
		{
			"bufferView":43,
			"componentType":5123,
			"count":324,
			"type":"SCALAR"
		},
		{
			"bufferView":44,
			"componentType":5126,
			"count":14,
			"max":[
				-0.20189297199249268,
				0.506831169128418,
				3.5351650714874268
			],
			"min":[
				-0.6702892780303955,
				-0.06823074817657471,
				3.388115167617798
			],
			"type":"VEC3"
		},
		{
			"bufferView":45,
			"componentType":5126,
			"count":14,
			"type":"VEC3"
		},
		{
			"bufferView":46,
			"componentType":5126,
			"count":14,
			"type":"VEC2"
		},
		{
			"bufferView":47,
			"componentType":5123,
			"count":36,
			"type":"SCALAR"
		},
		{
			"bufferView":48,
			"componentType":5126,
			"count":103,
			"max":[
				-0.703577995300293,
				0.8168162107467651,
				3.263631820678711
			],
			"min":[
				-0.8084951639175415,
				0.6164262294769287,
				3.0841400623321533
			],
			"type":"VEC3"
		},
		{
			"bufferView":49,
			"componentType":5126,
			"count":103,
			"type":"VEC3"
		},
		{
			"bufferView":50,
			"componentType":5126,
			"count":103,
			"type":"VEC2"
		},
		{
			"bufferView":51,
			"componentType":5123,
			"count":408,
			"type":"SCALAR"
		},
		{
			"bufferView":52,
			"componentType":5126,
			"count":77,
			"max":[
				-0.6551284193992615,
				0.6617855429649353,
				3.1550841331481934
			],
			"min":[
				-0.7951639890670776,
				0.513198733329773,
				3.061833143234253
			],
			"type":"VEC3"
		},
		{
			"bufferView":53,
			"componentType":5126,
			"count":77,
			"type":"VEC3"
		},
		{
			"bufferView":54,
			"componentType":5126,
			"count":77,
			"type":"VEC2"
		},
		{
			"bufferView":55,
			"componentType":5123,
			"count":324,
			"type":"SCALAR"
		},
		{
			"bufferView":56,
			"componentType":5126,
			"count":46592,
			"max":[
				2.1401917934417725,
				1.1738064289093018,
				1.402097463607788
			],
			"min":[
				-2.1401894092559814,
				0.06858314573764801,
				-1.2842713594436646
			],
			"type":"VEC3"
		},
		{
			"bufferView":57,
			"componentType":5126,
			"count":46592,
			"type":"VEC3"
		},
		{
			"bufferView":58,
			"componentType":5126,
			"count":46592,
			"type":"VEC2"
		},
		{
			"bufferView":59,
			"componentType":5123,
			"count":141216,
			"type":"SCALAR"
		},
		{
			"bufferView":60,
			"componentType":5126,
			"count":1016,
			"max":[
				1.9304319620132446,
				0.7968835830688477,
				1.1440740823745728
			],
			"min":[
				-1.9304299354553223,
				0.3286747634410858,
				-0.9073481559753418
			],
			"type":"VEC3"
		},
		{
			"bufferView":61,
			"componentType":5126,
			"count":1016,
			"type":"VEC3"
		},
		{
			"bufferView":62,
			"componentType":5126,
			"count":1016,
			"type":"VEC2"
		},
		{
			"bufferView":63,
			"componentType":5123,
			"count":3984,
			"type":"SCALAR"
		},
		{
			"bufferView":64,
			"componentType":5126,
			"count":1306,
			"max":[
				1.9178026914596558,
				1.7419902086257935,
				0.75238037109375
			],
			"min":[
				-1.9178001880645752,
				1.106865406036377,
				-0.3259817659854889
			],
			"type":"VEC3"
		},
		{
			"bufferView":65,
			"componentType":5126,
			"count":1306,
			"type":"VEC3"
		},
		{
			"bufferView":66,
			"componentType":5126,
			"count":1306,
			"type":"VEC2"
		},
		{
			"bufferView":67,
			"componentType":5123,
			"count":5496,
			"type":"SCALAR"
		},
		{
			"bufferView":68,
			"componentType":5126,
			"count":2498,
			"max":[
				1.6226656436920166,
				1.5119068622589111,
				0.3724389374256134
			],
			"min":[
				-1.6226634979248047,
				0.3838726580142975,
				0.09465082734823227
			],
			"type":"VEC3"
		},
		{
			"bufferView":69,
			"componentType":5126,
			"count":2498,
			"type":"VEC3"
		},
		{
			"bufferView":70,
			"componentType":5126,
			"count":2498,
			"type":"VEC2"
		},
		{
			"bufferView":71,
			"componentType":5123,
			"count":9384,
			"type":"SCALAR"
		},
		{
			"bufferView":72,
			"componentType":5126,
			"count":22836,
			"max":[
				2.0358033180236816,
				1.9485101699829102,
				1.477148175239563
			],
			"min":[
				-2.0358009338378906,
				-0.008814128115773201,
				-1.3621702194213867
			],
			"type":"VEC3"
		},
		{
			"bufferView":73,
			"componentType":5126,
			"count":22836,
			"type":"VEC3"
		},
		{
			"bufferView":74,
			"componentType":5126,
			"count":22836,
			"type":"VEC2"
		},
		{
			"bufferView":75,
			"componentType":5123,
			"count":44376,
			"type":"SCALAR"
		},
		{
			"bufferView":76,
			"componentType":5126,
			"count":27360,
			"max":[
				2.0369231700897217,
				1.8700240850448608,
				0.8810060620307922
			],
			"min":[
				-2.0369207859039307,
				0.9782412052154541,
				-0.45401448011398315
			],
			"type":"VEC3"
		},
		{
			"bufferView":77,
			"componentType":5126,
			"count":27360,
			"type":"VEC3"
		},
		{
			"bufferView":78,
			"componentType":5126,
			"count":27360,
			"type":"VEC2"
		},
		{
			"bufferView":79,
			"componentType":5123,
			"count":87840,
			"type":"SCALAR"
		},
		{
			"bufferView":80,
			"componentType":5126,
			"count":360,
			"max":[
				-0.7680620551109314,
				1.3361101150512695,
				0.36765792965888977
			],
			"min":[
				-1.6148072481155396,
				0.5594620704650879,
				0.09943123906850815
			],
			"type":"VEC3"
		},
		{
			"bufferView":81,
			"componentType":5126,
			"count":360,
			"type":"VEC3"
		},
		{
			"bufferView":82,
			"componentType":5126,
			"count":360,
			"type":"VEC2"
		},
		{
			"bufferView":83,
			"componentType":5123,
			"count":708,
			"type":"SCALAR"
		},
		{
			"bufferView":84,
			"componentType":5126,
			"count":896,
			"max":[
				2.0232276916503906,
				1.2335562705993652,
				-0.11929859966039658
			],
			"min":[
				-2.0232253074645996,
				0.008833463303744793,
				-1.344021201133728
			],
			"type":"VEC3"
		},
		{
			"bufferView":85,
			"componentType":5126,
			"count":896,
			"type":"VEC3"
		},
		{
			"bufferView":86,
			"componentType":5126,
			"count":896,
			"type":"VEC2"
		},
		{
			"bufferView":87,
			"componentType":5123,
			"count":2304,
			"type":"SCALAR"
		},
		{
			"bufferView":88,
			"componentType":5126,
			"count":5582,
			"max":[
				1.1647768020629883,
				5.710178852081299,
				2.163168430328369
			],
			"min":[
				-1.282899022102356,
				3.8894119262695312,
				0.040370941162109375
			],
			"type":"VEC3"
		},
		{
			"bufferView":89,
			"componentType":5126,
			"count":5582,
			"type":"VEC3"
		},
		{
			"bufferView":90,
			"componentType":5126,
			"count":5582,
			"type":"VEC2"
		},
		{
			"bufferView":91,
			"componentType":5123,
			"count":21948,
			"type":"SCALAR"
		},
		{
			"bufferView":92,
			"componentType":5126,
			"count":1081,
			"max":[
				0.14453193545341492,
				5.391363620758057,
				0.7408502697944641
			],
			"min":[
				-0.2524663209915161,
				3.5167081356048584,
				-0.5528419613838196
			],
			"type":"VEC3"
		},
		{
			"bufferView":93,
			"componentType":5126,
			"count":1081,
			"type":"VEC3"
		},
		{
			"bufferView":94,
			"componentType":5126,
			"count":1081,
			"type":"VEC2"
		},
		{
			"bufferView":95,
			"componentType":5123,
			"count":3876,
			"type":"SCALAR"
		},
		{
			"bufferView":96,
			"componentType":5126,
			"count":169,
			"max":[
				0.4417209029197693,
				5.190533638000488,
				0.821524977684021
			],
			"min":[
				-0.07268424332141876,
				4.971126079559326,
				0.0270841121673584
			],
			"type":"VEC3"
		},
		{
			"bufferView":97,
			"componentType":5126,
			"count":169,
			"type":"VEC3"
		},
		{
			"bufferView":98,
			"componentType":5126,
			"count":169,
			"type":"VEC2"
		},
		{
			"bufferView":99,
			"componentType":5123,
			"count":864,
			"type":"SCALAR"
		},
		{
			"bufferView":100,
			"componentType":5126,
			"count":195,
			"max":[
				-0.0256916843354702,
				5.1500244140625,
				0.75046706199646
			],
			"min":[
				-0.533735454082489,
				4.878397464752197,
				0.058257341384887695
			],
			"type":"VEC3"
		},
		{
			"bufferView":101,
			"componentType":5126,
			"count":195,
			"type":"VEC3"
		},
		{
			"bufferView":102,
			"componentType":5126,
			"count":195,
			"type":"VEC2"
		},
		{
			"bufferView":103,
			"componentType":5123,
			"count":1008,
			"type":"SCALAR"
		},
		{
			"bufferView":104,
			"componentType":5126,
			"count":1580,
			"max":[
				1.1295490264892578,
				3.5316121578216553,
				1.5457428693771362
			],
			"min":[
				-1.1889891624450684,
				1.1749308109283447,
				-1.482848048210144
			],
			"type":"VEC3"
		},
		{
			"bufferView":105,
			"componentType":5126,
			"count":1580,
			"type":"VEC3"
		},
		{
			"bufferView":106,
			"componentType":5126,
			"count":1580,
			"type":"VEC2"
		},
		{
			"bufferView":107,
			"componentType":5123,
			"count":4386,
			"type":"SCALAR"
		},
		{
			"bufferView":108,
			"componentType":5126,
			"count":136,
			"max":[
				0.7893123030662537,
				2.490335464477539,
				-1.191206932067871
			],
			"min":[
				-0.8487527966499329,
				1.6685837507247925,
				-1.3348711729049683
			],
			"type":"VEC3"
		},
		{
			"bufferView":109,
			"componentType":5126,
			"count":136,
			"type":"VEC3"
		},
		{
			"bufferView":110,
			"componentType":5126,
			"count":136,
			"type":"VEC2"
		},
		{
			"bufferView":111,
			"componentType":5123,
			"count":384,
			"type":"SCALAR"
		},
		{
			"bufferView":112,
			"componentType":5126,
			"count":306,
			"max":[
				0.83739173412323,
				2.3795416355133057,
				-1.143127202987671
			],
			"min":[
				-0.8968322277069092,
				1.7148199081420898,
				-1.3829506635665894
			],
			"type":"VEC3"
		},
		{
			"bufferView":113,
			"componentType":5126,
			"count":306,
			"type":"VEC3"
		},
		{
			"bufferView":114,
			"componentType":5126,
			"count":306,
			"type":"VEC2"
		},
		{
			"bufferView":115,
			"componentType":5123,
			"count":960,
			"type":"SCALAR"
		},
		{
			"bufferView":116,
			"componentType":5126,
			"count":1072,
			"max":[
				0.9155807495117188,
				2.797375202178955,
				-1.163520336151123
			],
			"min":[
				-0.9750211238861084,
				1.3519366979599,
				-1.3639013767242432
			],
			"type":"VEC3"
		},
		{
			"bufferView":117,
			"componentType":5126,
			"count":1072,
			"type":"VEC3"
		},
		{
			"bufferView":118,
			"componentType":5126,
			"count":1072,
			"type":"VEC2"
		},
		{
			"bufferView":119,
			"componentType":5123,
			"count":3408,
			"type":"SCALAR"
		},
		{
			"bufferView":120,
			"componentType":5126,
			"count":88,
			"max":[
				1.3153716325759888,
				2.7418086528778076,
				1.640088438987732
			],
			"min":[
				-1.3153696060180664,
				1.0764567852020264,
				-0.9543008208274841
			],
			"type":"VEC3"
		},
		{
			"bufferView":121,
			"componentType":5126,
			"count":88,
			"type":"VEC3"
		},
		{
			"bufferView":122,
			"componentType":5126,
			"count":88,
			"type":"VEC2"
		},
		{
			"bufferView":123,
			"componentType":5123,
			"count":240,
			"type":"SCALAR"
		},
		{
			"bufferView":124,
			"componentType":5126,
			"count":412,
			"max":[
				1.316735029220581,
				3.665426731109619,
				1.6541125774383545
			],
			"min":[
				-1.3229731321334839,
				2.636453866958618,
				-0.950847327709198
			],
			"type":"VEC3"
		},
		{
			"bufferView":125,
			"componentType":5126,
			"count":412,
			"type":"VEC3"
		},
		{
			"bufferView":126,
			"componentType":5126,
			"count":412,
			"type":"VEC2"
		},
		{
			"bufferView":127,
			"componentType":5123,
			"count":1362,
			"type":"SCALAR"
		},
		{
			"bufferView":128,
			"componentType":5126,
			"count":1019,
			"max":[
				1.2895125150680542,
				3.6616570949554443,
				1.5866940021514893
			],
			"min":[
				-1.2895103693008423,
				1.1063724756240845,
				-1.424835205078125
			],
			"type":"VEC3"
		},
		{
			"bufferView":129,
			"componentType":5126,
			"count":1019,
			"type":"VEC3"
		},
		{
			"bufferView":130,
			"componentType":5126,
			"count":1019,
			"type":"VEC2"
		},
		{
			"bufferView":131,
			"componentType":5123,
			"count":4296,
			"type":"SCALAR"
		},
		{
			"bufferView":132,
			"componentType":5126,
			"count":872,
			"max":[
				0.8478780388832092,
				4.828500270843506,
				2.044915199279785
			],
			"min":[
				-0.9643300771713257,
				4.161839962005615,
				1.5991631746292114
			],
			"type":"VEC3"
		},
		{
			"bufferView":133,
			"componentType":5126,
			"count":872,
			"type":"VEC3"
		},
		{
			"bufferView":134,
			"componentType":5126,
			"count":872,
			"type":"VEC2"
		},
		{
			"bufferView":135,
			"componentType":5123,
			"count":3252,
			"type":"SCALAR"
		},
		{
			"bufferView":136,
			"componentType":5126,
			"count":192,
			"max":[
				0.8253374695777893,
				4.771076679229736,
				1.9994556903839111
			],
			"min":[
				-0.9419057965278625,
				4.199707984924316,
				1.6798802614212036
			],
			"type":"VEC3"
		},
		{
			"bufferView":137,
			"componentType":5126,
			"count":192,
			"type":"VEC3"
		},
		{
			"bufferView":138,
			"componentType":5126,
			"count":192,
			"type":"VEC2"
		},
		{
			"bufferView":139,
			"componentType":5123,
			"count":948,
			"type":"SCALAR"
		},
		{
			"bufferView":140,
			"componentType":5126,
			"count":518,
			"max":[
				1.8368535041809082,
				3.471187114715576,
				1.4028152227401733
			],
			"min":[
				1.1962463855743408,
				2.86982798576355,
				0.799197793006897
			],
			"type":"VEC3"
		},
		{
			"bufferView":141,
			"componentType":5126,
			"count":518,
			"type":"VEC3"
		},
		{
			"bufferView":142,
			"componentType":5126,
			"count":518,
			"type":"VEC2"
		},
		{
			"bufferView":143,
			"componentType":5123,
			"count":2208,
			"type":"SCALAR"
		},
		{
			"bufferView":144,
			"componentType":5126,
			"count":153,
			"max":[
				-0.7192075252532959,
				0.8367066383361816,
				3.434692621231079
			],
			"min":[
				-1.1729389429092407,
				0.3214050531387329,
				3.0777976512908936
			],
			"type":"VEC3"
		},
		{
			"bufferView":145,
			"componentType":5126,
			"count":153,
			"type":"VEC3"
		},
		{
			"bufferView":146,
			"componentType":5126,
			"count":153,
			"type":"VEC2"
		},
		{
			"bufferView":147,
			"componentType":5123,
			"count":468,
			"type":"SCALAR"
		},
		{
			"bufferView":148,
			"componentType":5126,
			"count":153,
			"max":[
				0.6540248394012451,
				0.970613956451416,
				3.4380712509155273
			],
			"min":[
				0.2670711874961853,
				0.4664175510406494,
				3.080106496810913
			],
			"type":"VEC3"
		},
		{
			"bufferView":149,
			"componentType":5126,
			"count":153,
			"type":"VEC3"
		},
		{
			"bufferView":150,
			"componentType":5126,
			"count":153,
			"type":"VEC2"
		},
		{
			"bufferView":151,
			"componentType":5126,
			"count":153,
			"max":[
				1.0784980058670044,
				0.924044132232666,
				3.4003207683563232
			],
			"min":[
				0.6861814856529236,
				0.42741698026657104,
				3.035029172897339
			],
			"type":"VEC3"
		},
		{
			"bufferView":152,
			"componentType":5126,
			"count":153,
			"type":"VEC3"
		},
		{
			"bufferView":153,
			"componentType":5126,
			"count":153,
			"type":"VEC2"
		},
		{
			"bufferView":154,
			"componentType":5123,
			"count":468,
			"type":"SCALAR"
		},
		{
			"bufferView":155,
			"componentType":5126,
			"count":52,
			"max":[
				0.8954669833183289,
				0.9065520763397217,
				3.220734119415283
			],
			"min":[
				0.45758166909217834,
				0.7711302638053894,
				3.0862932205200195
			],
			"type":"VEC3"
		},
		{
			"bufferView":156,
			"componentType":5126,
			"count":52,
			"type":"VEC3"
		},
		{
			"bufferView":157,
			"componentType":5126,
			"count":52,
			"type":"VEC2"
		},
		{
			"bufferView":158,
			"componentType":5123,
			"count":180,
			"type":"SCALAR"
		},
		{
			"bufferView":159,
			"componentType":5126,
			"count":246,
			"max":[
				0.792916476726532,
				1.0650606155395508,
				3.2250783443450928
			],
			"min":[
				0.5705671906471252,
				0.7698991298675537,
				2.998044013977051
			],
			"type":"VEC3"
		},
		{
			"bufferView":160,
			"componentType":5126,
			"count":246,
			"type":"VEC3"
		},
		{
			"bufferView":161,
			"componentType":5126,
			"count":246,
			"type":"VEC2"
		},
		{
			"bufferView":162,
			"componentType":5123,
			"count":960,
			"type":"SCALAR"
		},
		{
			"bufferView":163,
			"componentType":5126,
			"count":68,
			"max":[
				1.2227001190185547,
				2.0140395164489746,
				3.1689860820770264
			],
			"min":[
				0.5492915511131287,
				0.8986913561820984,
				2.1233224868774414
			],
			"type":"VEC3"
		},
		{
			"bufferView":164,
			"componentType":5126,
			"count":68,
			"type":"VEC3"
		},
		{
			"bufferView":165,
			"componentType":5126,
			"count":68,
			"type":"VEC2"
		},
		{
			"bufferView":166,
			"componentType":5123,
			"count":276,
			"type":"SCALAR"
		},
		{
			"bufferView":167,
			"componentType":5126,
			"count":68,
			"max":[
				1.393038034439087,
				2.3518261909484863,
				2.9916491508483887
			],
			"min":[
				0.6153302192687988,
				1.1043425798416138,
				1.8170284032821655
			],
			"type":"VEC3"
		},
		{
			"bufferView":168,
			"componentType":5126,
			"count":68,
			"type":"VEC3"
		},
		{
			"bufferView":169,
			"componentType":5126,
			"count":68,
			"type":"VEC2"
		},
		{
			"bufferView":170,
			"componentType":5123,
			"count":276,
			"type":"SCALAR"
		},
		{
			"bufferView":171,
			"componentType":5126,
			"count":136,
			"max":[
				1.8408379554748535,
				3.2941784858703613,
				2.334211587905884
			],
			"min":[
				0.9340232610702515,
				1.8372715711593628,
				0.9611101150512695
			],
			"type":"VEC3"
		},
		{
			"bufferView":172,
			"componentType":5126,
			"count":136,
			"type":"VEC3"
		},
		{
			"bufferView":173,
			"componentType":5126,
			"count":136,
			"type":"VEC2"
		},
		{
			"bufferView":174,
			"componentType":5123,
			"count":540,
			"type":"SCALAR"
		},
		{
			"bufferView":175,
			"componentType":5126,
			"count":20,
			"max":[
				1.8408379554748535,
				3.2941784858703613,
				2.334211587905884
			],
			"min":[
				1.3258233070373535,
				1.8372715711593628,
				0.9611101150512695
			],
			"type":"VEC3"
		},
		{
			"bufferView":176,
			"componentType":5126,
			"count":20,
			"type":"VEC3"
		},
		{
			"bufferView":177,
			"componentType":5126,
			"count":20,
			"type":"VEC2"
		},
		{
			"bufferView":178,
			"componentType":5123,
			"count":72,
			"type":"SCALAR"
		},
		{
			"bufferView":179,
			"componentType":5126,
			"count":14,
			"max":[
				0.8346160650253296,
				0.5147815942764282,
				3.251384735107422
			],
			"min":[
				0.42703866958618164,
				0.3094984292984009,
				2.913625955581665
			],
			"type":"VEC3"
		},
		{
			"bufferView":180,
			"componentType":5126,
			"count":14,
			"type":"VEC3"
		},
		{
			"bufferView":181,
			"componentType":5126,
			"count":14,
			"type":"VEC2"
		},
		{
			"bufferView":182,
			"componentType":5123,
			"count":36,
			"type":"SCALAR"
		},
		{
			"bufferView":183,
			"componentType":5126,
			"count":120,
			"max":[
				0.844696044921875,
				0.7721420526504517,
				3.142049789428711
			],
			"min":[
				0.42566174268722534,
				0.3119840621948242,
				2.892162799835205
			],
			"type":"VEC3"
		},
		{
			"bufferView":184,
			"componentType":5126,
			"count":120,
			"type":"VEC3"
		},
		{
			"bufferView":185,
			"componentType":5126,
			"count":120,
			"type":"VEC2"
		},
		{
			"bufferView":186,
			"componentType":5123,
			"count":324,
			"type":"SCALAR"
		},
		{
			"bufferView":187,
			"componentType":5126,
			"count":14,
			"max":[
				-0.6361302137374878,
				0.4310699701309204,
				3.421300172805786
			],
			"min":[
				-1.0842971801757812,
				0.002786397933959961,
				2.993290424346924
			],
			"type":"VEC3"
		},
		{
			"bufferView":188,
			"componentType":5126,
			"count":14,
			"type":"VEC3"
		},
		{
			"bufferView":189,
			"componentType":5126,
			"count":14,
			"type":"VEC2"
		},
		{
			"bufferView":190,
			"componentType":5123,
			"count":36,
			"type":"SCALAR"
		},
		{
			"bufferView":191,
			"componentType":5126,
			"count":14,
			"max":[
				0.6372117400169373,
				0.512765109539032,
				3.439584255218506
			],
			"min":[
				0.21491840481758118,
				-0.031026124954223633,
				3.2998664379119873
			],
			"type":"VEC3"
		},
		{
			"bufferView":192,
			"componentType":5126,
			"count":14,
			"type":"VEC3"
		},
		{
			"bufferView":193,
			"componentType":5126,
			"count":14,
			"type":"VEC2"
		},
		{
			"bufferView":194,
			"componentType":5126,
			"count":14,
			"max":[
				1.0546584129333496,
				0.4922168254852295,
				3.3840010166168213
			],
			"min":[
				0.6222332715988159,
				0.1358017921447754,
				2.911766290664673
			],
			"type":"VEC3"
		},
		{
			"bufferView":195,
			"componentType":5126,
			"count":14,
			"type":"VEC3"
		},
		{
			"bufferView":196,
			"componentType":5126,
			"count":14,
			"type":"VEC2"
		},
		{
			"bufferView":197,
			"componentType":5126,
			"count":103,
			"max":[
				0.7167392373085022,
				0.8759069442749023,
				3.254767894744873
			],
			"min":[
				0.6272008419036865,
				0.7076802253723145,
				3.046823263168335
			],
			"type":"VEC3"
		},
		{
			"bufferView":198,
			"componentType":5126,
			"count":103,
			"type":"VEC3"
		},
		{
			"bufferView":199,
			"componentType":5126,
			"count":103,
			"type":"VEC2"
		},
		{
			"bufferView":200,
			"componentType":5123,
			"count":408,
			"type":"SCALAR"
		},
		{
			"bufferView":201,
			"componentType":5126,
			"count":77,
			"max":[
				0.724876344203949,
				0.7582874298095703,
				3.116224765777588
			],
			"min":[
				0.5805847644805908,
				0.5988390445709229,
				2.9910216331481934
			],
			"type":"VEC3"
		},
		{
			"bufferView":202,
			"componentType":5126,
			"count":77,
			"type":"VEC3"
		},
		{
			"bufferView":203,
			"componentType":5126,
			"count":77,
			"type":"VEC2"
		},
		{
			"bufferView":204,
			"componentType":5123,
			"count":324,
			"type":"SCALAR"
		}
	],
	"bufferViews":[
		{
			"buffer":0,
			"byteLength":10092,
			"byteOffset":0,
			"target":34962
		},
		{
			"buffer":0,
			"byteLength":10092,
			"byteOffset":10092,
			"target":34962
		},
		{
			"buffer":0,
			"byteLength":6728,
			"byteOffset":20184,
			"target":34962
		},
		{
			"buffer":0,
			"byteLength":8448,
			"byteOffset":26912,
			"target":34963
		},
		{
			"buffer":0,
			"byteLength":1836,
			"byteOffset":35360,
			"target":34962
		},
		{
			"buffer":0,
			"byteLength":1836,
			"byteOffset":37196,
			"target":34962
		},
		{
			"buffer":0,
			"byteLength":1224,
			"byteOffset":39032,
			"target":34962
		},
		{
			"buffer":0,
			"byteLength":936,
			"byteOffset":40256,
			"target":34963
		},
		{
			"buffer":0,
			"byteLength":624,
			"byteOffset":41192,
			"target":34962
		},
		{
			"buffer":0,
			"byteLength":624,
			"byteOffset":41816,
			"target":34962
		},
		{
			"buffer":0,
			"byteLength":416,
			"byteOffset":42440,
			"target":34962
		},
		{
			"buffer":0,
			"byteLength":360,
			"byteOffset":42856,
			"target":34963
		},
		{
			"buffer":0,
			"byteLength":2952,
			"byteOffset":43216,
			"target":34962
		},
		{
			"buffer":0,
			"byteLength":2952,
			"byteOffset":46168,
			"target":34962
		},
		{
			"buffer":0,
			"byteLength":1968,
			"byteOffset":49120,
			"target":34962
		},
		{
			"buffer":0,
			"byteLength":1920,
			"byteOffset":51088,
			"target":34963
		},
		{
			"buffer":0,
			"byteLength":816,
			"byteOffset":53008,
			"target":34962
		},
		{
			"buffer":0,
			"byteLength":816,
			"byteOffset":53824,
			"target":34962
		},
		{
			"buffer":0,
			"byteLength":544,
			"byteOffset":54640,
			"target":34962
		},
		{
			"buffer":0,
			"byteLength":552,
			"byteOffset":55184,
			"target":34963
		},
		{
			"buffer":0,
			"byteLength":816,
			"byteOffset":55736,
			"target":34962
		},
		{
			"buffer":0,
			"byteLength":816,
			"byteOffset":56552,
			"target":34962
		},
		{
			"buffer":0,
			"byteLength":544,
			"byteOffset":57368,
			"target":34962
		},
		{
			"buffer":0,
			"byteLength":552,
			"byteOffset":57912,
			"target":34963
		},
		{
			"buffer":0,
			"byteLength":1632,
			"byteOffset":58464,
			"target":34962
		},
		{
			"buffer":0,
			"byteLength":1632,
			"byteOffset":60096,
			"target":34962
		},
		{
			"buffer":0,
			"byteLength":1088,
			"byteOffset":61728,
			"target":34962
		},
		{
			"buffer":0,
			"byteLength":1080,
			"byteOffset":62816,
			"target":34963
		},
		{
			"buffer":0,
			"byteLength":240,
			"byteOffset":63896,
			"target":34962
		},
		{
			"buffer":0,
			"byteLength":240,
			"byteOffset":64136,
			"target":34962
		},
		{
			"buffer":0,
			"byteLength":160,
			"byteOffset":64376,
			"target":34962
		},
		{
			"buffer":0,
			"byteLength":144,
			"byteOffset":64536,
			"target":34963
		},
		{
			"buffer":0,
			"byteLength":6216,
			"byteOffset":64680,
			"target":34962
		},
		{
			"buffer":0,
			"byteLength":6216,
			"byteOffset":70896,
			"target":34962
		},
		{
			"buffer":0,
			"byteLength":4144,
			"byteOffset":77112,
			"target":34962
		},
		{
			"buffer":0,
			"byteLength":4416,
			"byteOffset":81256,
			"target":34963
		},
		{
			"buffer":0,
			"byteLength":168,
			"byteOffset":85672,
			"target":34962
		},
		{
			"buffer":0,
			"byteLength":168,
			"byteOffset":85840,
			"target":34962
		},
		{
			"buffer":0,
			"byteLength":112,
			"byteOffset":86008,
			"target":34962
		},
		{
			"buffer":0,
			"byteLength":72,
			"byteOffset":86120,
			"target":34963
		},
		{
			"buffer":0,
			"byteLength":1440,
			"byteOffset":86192,
			"target":34962
		},
		{
			"buffer":0,
			"byteLength":1440,
			"byteOffset":87632,
			"target":34962
		},
		{
			"buffer":0,
			"byteLength":960,
			"byteOffset":89072,
			"target":34962
		},
		{
			"buffer":0,
			"byteLength":648,
			"byteOffset":90032,
			"target":34963
		},
		{
			"buffer":0,
			"byteLength":168,
			"byteOffset":90680,
			"target":34962
		},
		{
			"buffer":0,
			"byteLength":168,
			"byteOffset":90848,
			"target":34962
		},
		{
			"buffer":0,
			"byteLength":112,
			"byteOffset":91016,
			"target":34962
		},
		{
			"buffer":0,
			"byteLength":72,
			"byteOffset":91128,
			"target":34963
		},
		{
			"buffer":0,
			"byteLength":1236,
			"byteOffset":91200,
			"target":34962
		},
		{
			"buffer":0,
			"byteLength":1236,
			"byteOffset":92436,
			"target":34962
		},
		{
			"buffer":0,
			"byteLength":824,
			"byteOffset":93672,
			"target":34962
		},
		{
			"buffer":0,
			"byteLength":816,
			"byteOffset":94496,
			"target":34963
		},
		{
			"buffer":0,
			"byteLength":924,
			"byteOffset":95312,
			"target":34962
		},
		{
			"buffer":0,
			"byteLength":924,
			"byteOffset":96236,
			"target":34962
		},
		{
			"buffer":0,
			"byteLength":616,
			"byteOffset":97160,
			"target":34962
		},
		{
			"buffer":0,
			"byteLength":648,
			"byteOffset":97776,
			"target":34963
		},
		{
			"buffer":0,
			"byteLength":559104,
			"byteOffset":98424,
			"target":34962
		},
		{
			"buffer":0,
			"byteLength":559104,
			"byteOffset":657528,
			"target":34962
		},
		{
			"buffer":0,
			"byteLength":372736,
			"byteOffset":1216632,
			"target":34962
		},
		{
			"buffer":0,
			"byteLength":282432,
			"byteOffset":1589368,
			"target":34963
		},
		{
			"buffer":0,
			"byteLength":12192,
			"byteOffset":1871800,
			"target":34962
		},
		{
			"buffer":0,
			"byteLength":12192,
			"byteOffset":1883992,
			"target":34962
		},
		{
			"buffer":0,
			"byteLength":8128,
			"byteOffset":1896184,
			"target":34962
		},
		{
			"buffer":0,
			"byteLength":7968,
			"byteOffset":1904312,
			"target":34963
		},
		{
			"buffer":0,
			"byteLength":15672,
			"byteOffset":1912280,
			"target":34962
		},
		{
			"buffer":0,
			"byteLength":15672,
			"byteOffset":1927952,
			"target":34962
		},
		{
			"buffer":0,
			"byteLength":10448,
			"byteOffset":1943624,
			"target":34962
		},
		{
			"buffer":0,
			"byteLength":10992,
			"byteOffset":1954072,
			"target":34963
		},
		{
			"buffer":0,
			"byteLength":29976,
			"byteOffset":1965064,
			"target":34962
		},
		{
			"buffer":0,
			"byteLength":29976,
			"byteOffset":1995040,
			"target":34962
		},
		{
			"buffer":0,
			"byteLength":19984,
			"byteOffset":2025016,
			"target":34962
		},
		{
			"buffer":0,
			"byteLength":18768,
			"byteOffset":2045000,
			"target":34963
		},
		{
			"buffer":0,
			"byteLength":274032,
			"byteOffset":2063768,
			"target":34962
		},
		{
			"buffer":0,
			"byteLength":274032,
			"byteOffset":2337800,
			"target":34962
		},
		{
			"buffer":0,
			"byteLength":182688,
			"byteOffset":2611832,
			"target":34962
		},
		{
			"buffer":0,
			"byteLength":88752,
			"byteOffset":2794520,
			"target":34963
		},
		{
			"buffer":0,
			"byteLength":328320,
			"byteOffset":2883272,
			"target":34962
		},
		{
			"buffer":0,
			"byteLength":328320,
			"byteOffset":3211592,
			"target":34962
		},
		{
			"buffer":0,
			"byteLength":218880,
			"byteOffset":3539912,
			"target":34962
		},
		{
			"buffer":0,
			"byteLength":175680,
			"byteOffset":3758792,
			"target":34963
		},
		{
			"buffer":0,
			"byteLength":4320,
			"byteOffset":3934472,
			"target":34962
		},
		{
			"buffer":0,
			"byteLength":4320,
			"byteOffset":3938792,
			"target":34962
		},
		{
			"buffer":0,
			"byteLength":2880,
			"byteOffset":3943112,
			"target":34962
		},
		{
			"buffer":0,
			"byteLength":1416,
			"byteOffset":3945992,
			"target":34963
		},
		{
			"buffer":0,
			"byteLength":10752,
			"byteOffset":3947408,
			"target":34962
		},
		{
			"buffer":0,
			"byteLength":10752,
			"byteOffset":3958160,
			"target":34962
		},
		{
			"buffer":0,
			"byteLength":7168,
			"byteOffset":3968912,
			"target":34962
		},
		{
			"buffer":0,
			"byteLength":4608,
			"byteOffset":3976080,
			"target":34963
		},
		{
			"buffer":0,
			"byteLength":66984,
			"byteOffset":3980688,
			"target":34962
		},
		{
			"buffer":0,
			"byteLength":66984,
			"byteOffset":4047672,
			"target":34962
		},
		{
			"buffer":0,
			"byteLength":44656,
			"byteOffset":4114656,
			"target":34962
		},
		{
			"buffer":0,
			"byteLength":43896,
			"byteOffset":4159312,
			"target":34963
		},
		{
			"buffer":0,
			"byteLength":12972,
			"byteOffset":4203208,
			"target":34962
		},
		{
			"buffer":0,
			"byteLength":12972,
			"byteOffset":4216180,
			"target":34962
		},
		{
			"buffer":0,
			"byteLength":8648,
			"byteOffset":4229152,
			"target":34962
		},
		{
			"buffer":0,
			"byteLength":7752,
			"byteOffset":4237800,
			"target":34963
		},
		{
			"buffer":0,
			"byteLength":2028,
			"byteOffset":4245552,
			"target":34962
		},
		{
			"buffer":0,
			"byteLength":2028,
			"byteOffset":4247580,
			"target":34962
		},
		{
			"buffer":0,
			"byteLength":1352,
			"byteOffset":4249608,
			"target":34962
		},
		{
			"buffer":0,
			"byteLength":1728,
			"byteOffset":4250960,
			"target":34963
		},
		{
			"buffer":0,
			"byteLength":2340,
			"byteOffset":4252688,
			"target":34962
		},
		{
			"buffer":0,
			"byteLength":2340,
			"byteOffset":4255028,
			"target":34962
		},
		{
			"buffer":0,
			"byteLength":1560,
			"byteOffset":4257368,
			"target":34962
		},
		{
			"buffer":0,
			"byteLength":2016,
			"byteOffset":4258928,
			"target":34963
		},
		{
			"buffer":0,
			"byteLength":18960,
			"byteOffset":4260944,
			"target":34962
		},
		{
			"buffer":0,
			"byteLength":18960,
			"byteOffset":4279904,
			"target":34962
		},
		{
			"buffer":0,
			"byteLength":12640,
			"byteOffset":4298864,
			"target":34962
		},
		{
			"buffer":0,
			"byteLength":8772,
			"byteOffset":4311504,
			"target":34963
		},
		{
			"buffer":0,
			"byteLength":1632,
			"byteOffset":4320276,
			"target":34962
		},
		{
			"buffer":0,
			"byteLength":1632,
			"byteOffset":4321908,
			"target":34962
		},
		{
			"buffer":0,
			"byteLength":1088,
			"byteOffset":4323540,
			"target":34962
		},
		{
			"buffer":0,
			"byteLength":768,
			"byteOffset":4324628,
			"target":34963
		},
		{
			"buffer":0,
			"byteLength":3672,
			"byteOffset":4325396,
			"target":34962
		},
		{
			"buffer":0,
			"byteLength":3672,
			"byteOffset":4329068,
			"target":34962
		},
		{
			"buffer":0,
			"byteLength":2448,
			"byteOffset":4332740,
			"target":34962
		},
		{
			"buffer":0,
			"byteLength":1920,
			"byteOffset":4335188,
			"target":34963
		},
		{
			"buffer":0,
			"byteLength":12864,
			"byteOffset":4337108,
			"target":34962
		},
		{
			"buffer":0,
			"byteLength":12864,
			"byteOffset":4349972,
			"target":34962
		},
		{
			"buffer":0,
			"byteLength":8576,
			"byteOffset":4362836,
			"target":34962
		},
		{
			"buffer":0,
			"byteLength":6816,
			"byteOffset":4371412,
			"target":34963
		},
		{
			"buffer":0,
			"byteLength":1056,
			"byteOffset":4378228,
			"target":34962
		},
		{
			"buffer":0,
			"byteLength":1056,
			"byteOffset":4379284,
			"target":34962
		},
		{
			"buffer":0,
			"byteLength":704,
			"byteOffset":4380340,
			"target":34962
		},
		{
			"buffer":0,
			"byteLength":480,
			"byteOffset":4381044,
			"target":34963
		},
		{
			"buffer":0,
			"byteLength":4944,
			"byteOffset":4381524,
			"target":34962
		},
		{
			"buffer":0,
			"byteLength":4944,
			"byteOffset":4386468,
			"target":34962
		},
		{
			"buffer":0,
			"byteLength":3296,
			"byteOffset":4391412,
			"target":34962
		},
		{
			"buffer":0,
			"byteLength":2724,
			"byteOffset":4394708,
			"target":34963
		},
		{
			"buffer":0,
			"byteLength":12228,
			"byteOffset":4397432,
			"target":34962
		},
		{
			"buffer":0,
			"byteLength":12228,
			"byteOffset":4409660,
			"target":34962
		},
		{
			"buffer":0,
			"byteLength":8152,
			"byteOffset":4421888,
			"target":34962
		},
		{
			"buffer":0,
			"byteLength":8592,
			"byteOffset":4430040,
			"target":34963
		},
		{
			"buffer":0,
			"byteLength":10464,
			"byteOffset":4438632,
			"target":34962
		},
		{
			"buffer":0,
			"byteLength":10464,
			"byteOffset":4449096,
			"target":34962
		},
		{
			"buffer":0,
			"byteLength":6976,
			"byteOffset":4459560,
			"target":34962
		},
		{
			"buffer":0,
			"byteLength":6504,
			"byteOffset":4466536,
			"target":34963
		},
		{
			"buffer":0,
			"byteLength":2304,
			"byteOffset":4473040,
			"target":34962
		},
		{
			"buffer":0,
			"byteLength":2304,
			"byteOffset":4475344,
			"target":34962
		},
		{
			"buffer":0,
			"byteLength":1536,
			"byteOffset":4477648,
			"target":34962
		},
		{
			"buffer":0,
			"byteLength":1896,
			"byteOffset":4479184,
			"target":34963
		},
		{
			"buffer":0,
			"byteLength":6216,
			"byteOffset":4481080,
			"target":34962
		},
		{
			"buffer":0,
			"byteLength":6216,
			"byteOffset":4487296,
			"target":34962
		},
		{
			"buffer":0,
			"byteLength":4144,
			"byteOffset":4493512,
			"target":34962
		},
		{
			"buffer":0,
			"byteLength":4416,
			"byteOffset":4497656,
			"target":34963
		},
		{
			"buffer":0,
			"byteLength":1836,
			"byteOffset":4502072,
			"target":34962
		},
		{
			"buffer":0,
			"byteLength":1836,
			"byteOffset":4503908,
			"target":34962
		},
		{
			"buffer":0,
			"byteLength":1224,
			"byteOffset":4505744,
			"target":34962
		},
		{
			"buffer":0,
			"byteLength":936,
			"byteOffset":4506968,
			"target":34963
		},
		{
			"buffer":0,
			"byteLength":1836,
			"byteOffset":4507904,
			"target":34962
		},
		{
			"buffer":0,
			"byteLength":1836,
			"byteOffset":4509740,
			"target":34962
		},
		{
			"buffer":0,
			"byteLength":1224,
			"byteOffset":4511576,
			"target":34962
		},
		{
			"buffer":0,
			"byteLength":1836,
			"byteOffset":4512800,
			"target":34962
		},
		{
			"buffer":0,
			"byteLength":1836,
			"byteOffset":4514636,
			"target":34962
		},
		{
			"buffer":0,
			"byteLength":1224,
			"byteOffset":4516472,
			"target":34962
		},
		{
			"buffer":0,
			"byteLength":936,
			"byteOffset":4517696,
			"target":34963
		},
		{
			"buffer":0,
			"byteLength":624,
			"byteOffset":4518632,
			"target":34962
		},
		{
			"buffer":0,
			"byteLength":624,
			"byteOffset":4519256,
			"target":34962
		},
		{
			"buffer":0,
			"byteLength":416,
			"byteOffset":4519880,
			"target":34962
		},
		{
			"buffer":0,
			"byteLength":360,
			"byteOffset":4520296,
			"target":34963
		},
		{
			"buffer":0,
			"byteLength":2952,
			"byteOffset":4520656,
			"target":34962
		},
		{
			"buffer":0,
			"byteLength":2952,
			"byteOffset":4523608,
			"target":34962
		},
		{
			"buffer":0,
			"byteLength":1968,
			"byteOffset":4526560,
			"target":34962
		},
		{
			"buffer":0,
			"byteLength":1920,
			"byteOffset":4528528,
			"target":34963
		},
		{
			"buffer":0,
			"byteLength":816,
			"byteOffset":4530448,
			"target":34962
		},
		{
			"buffer":0,
			"byteLength":816,
			"byteOffset":4531264,
			"target":34962
		},
		{
			"buffer":0,
			"byteLength":544,
			"byteOffset":4532080,
			"target":34962
		},
		{
			"buffer":0,
			"byteLength":552,
			"byteOffset":4532624,
			"target":34963
		},
		{
			"buffer":0,
			"byteLength":816,
			"byteOffset":4533176,
			"target":34962
		},
		{
			"buffer":0,
			"byteLength":816,
			"byteOffset":4533992,
			"target":34962
		},
		{
			"buffer":0,
			"byteLength":544,
			"byteOffset":4534808,
			"target":34962
		},
		{
			"buffer":0,
			"byteLength":552,
			"byteOffset":4535352,
			"target":34963
		},
		{
			"buffer":0,
			"byteLength":1632,
			"byteOffset":4535904,
			"target":34962
		},
		{
			"buffer":0,
			"byteLength":1632,
			"byteOffset":4537536,
			"target":34962
		},
		{
			"buffer":0,
			"byteLength":1088,
			"byteOffset":4539168,
			"target":34962
		},
		{
			"buffer":0,
			"byteLength":1080,
			"byteOffset":4540256,
			"target":34963
		},
		{
			"buffer":0,
			"byteLength":240,
			"byteOffset":4541336,
			"target":34962
		},
		{
			"buffer":0,
			"byteLength":240,
			"byteOffset":4541576,
			"target":34962
		},
		{
			"buffer":0,
			"byteLength":160,
			"byteOffset":4541816,
			"target":34962
		},
		{
			"buffer":0,
			"byteLength":144,
			"byteOffset":4541976,
			"target":34963
		},
		{
			"buffer":0,
			"byteLength":168,
			"byteOffset":4542120,
			"target":34962
		},
		{
			"buffer":0,
			"byteLength":168,
			"byteOffset":4542288,
			"target":34962
		},
		{
			"buffer":0,
			"byteLength":112,
			"byteOffset":4542456,
			"target":34962
		},
		{
			"buffer":0,
			"byteLength":72,
			"byteOffset":4542568,
			"target":34963
		},
		{
			"buffer":0,
			"byteLength":1440,
			"byteOffset":4542640,
			"target":34962
		},
		{
			"buffer":0,
			"byteLength":1440,
			"byteOffset":4544080,
			"target":34962
		},
		{
			"buffer":0,
			"byteLength":960,
			"byteOffset":4545520,
			"target":34962
		},
		{
			"buffer":0,
			"byteLength":648,
			"byteOffset":4546480,
			"target":34963
		},
		{
			"buffer":0,
			"byteLength":168,
			"byteOffset":4547128,
			"target":34962
		},
		{
			"buffer":0,
			"byteLength":168,
			"byteOffset":4547296,
			"target":34962
		},
		{
			"buffer":0,
			"byteLength":112,
			"byteOffset":4547464,
			"target":34962
		},
		{
			"buffer":0,
			"byteLength":72,
			"byteOffset":4547576,
			"target":34963
		},
		{
			"buffer":0,
			"byteLength":168,
			"byteOffset":4547648,
			"target":34962
		},
		{
			"buffer":0,
			"byteLength":168,
			"byteOffset":4547816,
			"target":34962
		},
		{
			"buffer":0,
			"byteLength":112,
			"byteOffset":4547984,
			"target":34962
		},
		{
			"buffer":0,
			"byteLength":168,
			"byteOffset":4548096,
			"target":34962
		},
		{
			"buffer":0,
			"byteLength":168,
			"byteOffset":4548264,
			"target":34962
		},
		{
			"buffer":0,
			"byteLength":112,
			"byteOffset":4548432,
			"target":34962
		},
		{
			"buffer":0,
			"byteLength":1236,
			"byteOffset":4548544,
			"target":34962
		},
		{
			"buffer":0,
			"byteLength":1236,
			"byteOffset":4549780,
			"target":34962
		},
		{
			"buffer":0,
			"byteLength":824,
			"byteOffset":4551016,
			"target":34962
		},
		{
			"buffer":0,
			"byteLength":816,
			"byteOffset":4551840,
			"target":34963
		},
		{
			"buffer":0,
			"byteLength":924,
			"byteOffset":4552656,
			"target":34962
		},
		{
			"buffer":0,
			"byteLength":924,
			"byteOffset":4553580,
			"target":34962
		},
		{
			"buffer":0,
			"byteLength":616,
			"byteOffset":4554504,
			"target":34962
		},
		{
			"buffer":0,
			"byteLength":648,
			"byteOffset":4555120,
			"target":34963
		}
	],
	"samplers":[
		{
			"magFilter":9729,
			"minFilter":9987
		}
	],
	"buffers":[
		{
			"byteLength":4555768,
			"uri":"walle-sad.bin"
		}
	]
}
